<svg xmlns="http://www.w3.org/2000/svg" width="701.845" height="699.075"><g data-name="Group 699" transform="translate(-172.4 -1254.56)"><path data-name="Path 384" d="M640.338 1371.814a56.622 56.622 0 0 0 35.114-52.38 56.605 56.605 0 0 0-56.605-56.607 56.605 56.605 0 0 0-56.609 56.607" fill="none" stroke="#e90050" stroke-width="12"/><path data-name="Path 385" d="M272.972 1614.259c-7.025 30.851-41.62 44.8-51.441 53a56.908 56.908 0 0 0-6.369 6.228 56.385 56.385 0 0 0-13.972 37.24 56.605 56.605 0 0 0 56.6 56.605" fill="none" stroke="#e90050" stroke-width="12"/><path data-name="Path 386" d="M676.65 1541.473a51.41 51.41 0 0 0 50.145-34.875 51.024 51.024 0 0 0 2.4-11.132s.651-5.558.744-7.42c1.564-31.223 25.343-56.605 56.605-56.605a56.605 56.605 0 0 1 56.606 56.605c0 15.282-4.353 31.13-15.9 39.335-8.318 5.91-17.172 9.657-35.149 20.746-16.342 10.083-20.772 29.324-20.772 29.324" fill="none" stroke="#e90050" stroke-width="12"/><path data-name="Path 387" d="M786.544 1766.414a56.605 56.605 0 0 0 56.605-56.605 56.4 56.4 0 0 0-14.514-37.849" fill="none" stroke="#e90050" stroke-width="12"/><path data-name="Path 388" d="M368.915 1653.391a112.555 112.555 0 1 0 0 225.11" fill="none" stroke="#e90050" stroke-width="12"/><path data-name="Path 389" d="M371.663 1318.913a112.556 112.556 0 0 0-112.556 112.556" fill="none" stroke="#e90050" stroke-width="12"/><path data-name="Path 390" d="M481.5 1453.689c1.019 69.033-36.384 94.722-84.756 94.722-37.615 0-76.78-8.8-82.1-59.238-.03-.286-.106-.906-.136-1.192-3.352-31.083-25.452-56.539-56.714-56.539a56.6 56.6 0 0 0-56.605 56.6 56.415 56.415 0 0 0 16.409 39.854" fill="none" stroke="#e90050" stroke-width="12"/><path data-name="Path 391" d="M788.457 1431.469a112.556 112.556 0 0 0-112.556-112.556" fill="none" stroke="#e90050" stroke-width="12"/><path data-name="Path 392" d="M265.365 1515.387a84.7 84.7 0 0 0-47.441 154.868" fill="none" stroke="#e90050" stroke-width="12"/><path data-name="Path 393" d="M804.782 1681.474a84.306 84.306 0 0 0 23.3-10.793 84.615 84.615 0 0 0 37.9-70.601 84.639 84.639 0 0 0-39.917-71.9" fill="none" stroke="#e90050" stroke-width="12"/><path data-name="Path 394" d="M671.32 1878.502a112.556 112.556 0 0 0 112.556-112.559 112.556 112.556 0 0 0-112.556-112.551 112.556 112.556 0 0 0-112.556 112.551" fill="none" stroke="#e90050" stroke-width="12"/><path data-name="Path 395" d="M642.111 1371.223a34.041 34.041 0 0 0-21.676 42.985 34.042 34.042 0 0 0 43.216 21.215" fill="none" stroke="#e90050" stroke-width="12"/><path data-name="Path 396" d="M663.65 1762.835a34.044 34.044 0 0 0-43.216 21.215 34.044 34.044 0 0 0 21.676 42.987l-1.772-.591a56.611 56.611 0 1 1-78.1 52.382" fill="none" stroke="#e90050" stroke-width="12"/><path data-name="Path 397" d="M483.011 1319.432a56.605 56.605 0 0 0-56.605-56.605 56.605 56.605 0 0 0-56.605 56.605 56.6 56.6 0 0 0 30.872 50.434l.368.145c17.919 6.012 29.159 26.472 23.21 44.2a34.043 34.043 0 0 1-43.216 21.215" fill="none" stroke="#e90050" stroke-width="12"/><path data-name="Path 398" d="M541.319 1625.756a36.651 36.651 0 0 0 36.651-36.652 36.651 36.651 0 0 0-36.651-36.651 36.651 36.651 0 0 0-36.651 36.651s-.149 22.3-.149 23.946v265.561c0 36.847-30.145 66.72-67.33 66.72s-67.332-29.873-67.332-66.72l-.056.729a56.627 56.627 0 0 1 35.526-52.551l.79-.353a32.647 32.647 0 0 0 19.465-30.085c0-18.05-9.045-33.639-42.85-29.771" fill="none" stroke="#e90050" stroke-width="12"/><path data-name="Path 399" d="M471.296 1588.46a70.092 70.092 0 0 1 70.091-70.091m70.09 70.091a70.09 70.09 0 0 1-70.089 70.091m3.022-69.438a3.36 3.36 0 1 1-3.36-3.36 3.36 3.36 0 0 1 3.359 3.36z" fill="none" stroke="#e90050" stroke-width="12"/><path data-name="Path 400" d="M582.25 1353.002v-19.438a19.437 19.437 0 0 0-19.438-19.432 19.437 19.437 0 0 0-19.439 19.432v19.438z" fill="#e90050"/><path data-name="Path 401" d="M540.738 1848.249v19.439a19.439 19.439 0 0 0 38.877 0v-19.439z" fill="#e90050"/><path data-name="Path 402" d="m802.272 1703.622 18.023-7.285a19.439 19.439 0 0 0 10.745-25.3 19.44 19.44 0 0 0-25.3-10.741l-18.031 7.281z" fill="#e90050"/><path data-name="Path 403" d="m343.331 1441.512 18.024 7.282a19.439 19.439 0 0 0 14.562-36.044l-18.024-7.28z" fill="#e90050"/><path data-name="Path 404" d="m275.049 1491.791-19.082 3.708a19.439 19.439 0 0 0 7.418 38.163l19.082-3.71z" fill="#e90050"/><path data-name="Path 405" d="M172.4 1953.635h701.845V1254.56H172.4z" fill="none"/><path data-name="Path 406" d="M549.304 1369.476h27.017v-27.675h-27.017z" fill="#e90050"/><path data-name="Path 407" d="M573.686 1831.777h-27.017v27.675h27.017z" fill="#e90050"/><path data-name="Path 408" d="m774.656 1679.246 10.12 25.05 25.659-10.366-10.12-25.051z" fill="#e90050"/><path data-name="Path 409" d="m340.399 1404.794-10.12 25.049 25.659 10.368 10.12-25.049z" fill="#e90050"/><path data-name="Path 410" d="m297.506 1520.989-5.155-26.52-27.167 5.281 5.157 26.52z" fill="#e90050"/><path data-name="Path 411" d="M663.553 1434.342a22.807 22.807 0 1 0 22.808-22.808 22.808 22.808 0 0 0-22.808 22.808z" fill="none" stroke="#0af" stroke-width="12"/><path data-name="Path 412" d="M630.563 1542.474a22.807 22.807 0 1 0 22.808-22.808 22.809 22.809 0 0 0-22.808 22.808z" fill="none" stroke="#fac800" stroke-width="12"/><path data-name="Path 413" d="M746.027 1599.901a22.807 22.807 0 1 0 22.808-22.808 22.808 22.808 0 0 0-22.808 22.808z" fill="none" stroke="#40e0d0" stroke-width="12"/><path data-name="Path 414" d="M536.275 1788.753a22.807 22.807 0 1 0 22.808-22.808 22.808 22.808 0 0 0-22.808 22.808z" fill="none" stroke="#0af" stroke-width="12"/><path data-name="Path 415" d="M664.774 1767.293a22.807 22.807 0 1 0 22.808-22.808 22.808 22.808 0 0 0-22.808 22.808z" fill="none" stroke="#ffc846" stroke-width="12"/><path data-name="Path 416" d="M459.098 1430.436a22.807 22.807 0 1 0 22.808-22.808 22.808 22.808 0 0 0-22.808 22.808z" fill="none" stroke="#40e0d0" stroke-width="12"/><path data-name="Path 417" d="M460.204 1340.128a22.807 22.807 0 1 0 22.808-22.808 22.809 22.809 0 0 0-22.808 22.808z" fill="none" stroke="#8450ce" stroke-width="12"/><path data-name="Path 418" d="M254.236 1591.312a22.807 22.807 0 1 0 22.808-22.808 22.808 22.808 0 0 0-22.808 22.808z" fill="none" stroke="#fac800" stroke-width="12"/><path data-name="Path 419" d="M369.09 1655.254a22.807 22.807 0 1 0 22.808-22.808 22.808 22.808 0 0 0-22.808 22.808z" fill="none" stroke="#8450ce" stroke-width="12"/><path data-name="Path 420" d="M336.506 1767.256a22.807 22.807 0 1 0 22.808-22.808 22.808 22.808 0 0 0-22.808 22.808z" fill="none" stroke="#0af" stroke-width="12"/><path data-name="Path 421" d="M172.4 1953.635h701.845V1254.56H172.4z" fill="none"/><circle data-name="Ellipse 125" cx="9" cy="9" r="9" transform="translate(532.246 1579.634)" fill="#e90050"/></g></svg>