<svg xmlns="http://www.w3.org/2000/svg" width="641.263" height="457.431"><defs><clipPath id="a"><path data-name="Path 540" d="M422.263 59.61H0v-351.889h422.263z" transform="translate(0 292.279)" fill="none"/></clipPath><clipPath id="b"><path data-name="Path 540" d="M0-40.453h302.189v-251.826H0z" transform="translate(0 292.279)" fill="none"/></clipPath><clipPath id="c"><path data-name="Rectangle 246" fill="none" stroke="#40e0d0" stroke-width="8" d="M0 0h96.189v129.035H0z"/></clipPath></defs><g data-name="Group 846"><g data-name="Group 740"><g data-name="Group 739" transform="translate(219)" clip-path="url(#a)"><g data-name="Group 738"><path data-name="Path 539" d="M6.02 176.429V6.019h410.223v266.235H252.586l-.566 68.9-111.668-68.9h-27.935" fill="none" stroke="#fff" stroke-linecap="square" stroke-width="10"/></g></g></g><g data-name="Group 741"><g data-name="Group 739" transform="translate(0 205.605)" clip-path="url(#b)"><g data-name="Group 738"><path data-name="Path 539" d="M297.881 184.939V4.308H4.308v190.529h117.12l.4 49.308 79.912-49.308h26.873" fill="none" stroke="#fac800" stroke-linecap="square" stroke-width="10"/></g></g></g><g data-name="Group 742"><path data-name="Path 375" d="m502.551 105.76 32.3 30.283 3.155 2.9-3.154 2.967-32.3 30.283" fill="none" stroke="#fac800" stroke-width="10"/></g><g data-name="Group 743"><path data-name="Path 376" d="m377.456 105.76-32.301 30.283-3.155 2.902 3.155 2.965 32.3 30.283" fill="none" stroke="#fac800" stroke-width="10"/></g><path data-name="Line 165" fill="none" stroke="#fac800" stroke-width="10" d="m413.766 83.483 51.851 111.199"/><g data-name="Group 745"><g data-name="Group 744" transform="translate(107.905 241.77)" clip-path="url(#c)" fill="none" stroke="#40e0d0" stroke-linecap="round" stroke-linejoin="round" stroke-width="8"><path data-name="Path 541" d="M91.887 48.102c0 24.181-43.783 76.629-43.783 76.629S4.303 72.283 4.303 48.102a43.792 43.792 0 1 1 87.584 0z"/><path data-name="Path 542" d="M64.522 48.102a16.423 16.423 0 1 1-16.419-16.427 16.422 16.422 0 0 1 16.419 16.427z"/></g></g></g></svg>