<svg xmlns="http://www.w3.org/2000/svg" width="828" height="620"><g data-name="Group 1208"><path data-name="Rectangle 520" fill="#f4f4f4" d="M0 86h788v472H0z"/><path data-name="Line 214" fill="none" stroke="#fac800" stroke-linejoin="round" stroke-width="8" d="M532.95 35.809v177.813"/><path data-name="Line 217" fill="none" stroke="#e90050" stroke-linejoin="round" stroke-width="8" d="M469.453 166.318v47.305"/><path data-name="Line 215" fill="none" stroke="#e90050" stroke-linejoin="round" stroke-width="8" d="M596.445 166.318v47.305"/><path data-name="Line 218" fill="none" stroke="#e90050" stroke-linejoin="round" stroke-width="8" d="M220.784 319.448h210.34"/><path data-name="Line 223" fill="none" stroke="#8450ce" stroke-linejoin="round" stroke-width="8" d="M374.438 382.944h52.686"/><path data-name="Line 219" fill="none" stroke="#0af" stroke-linejoin="round" stroke-width="8" d="M374.438 255.952h52.686"/><path data-name="Line 226" fill="none" stroke="#e90050" stroke-linejoin="round" stroke-width="8" d="M532.95 469.589v-44.315"/><path data-name="Line 227" fill="none" stroke="#fac800" stroke-linejoin="round" stroke-width="8" d="M596.445 469.589v-44.315"/><path data-name="Line 228" fill="none" stroke="#0af" stroke-linejoin="round" stroke-width="8" d="M469.454 581.126V425.275"/><path data-name="Line 220" fill="none" stroke="#e90050" stroke-linejoin="round" stroke-width="8" d="M681.275 319.448h-42.499"/><path data-name="Line 216" fill="none" stroke="#8450ce" stroke-linejoin="round" stroke-width="8" d="M792.308 255.952H635.776"/><path data-name="Line 224" fill="none" stroke="#e90050" stroke-linejoin="round" stroke-width="8" d="M681.275 382.944h-42.499"/><path data-name="Path 1018" d="M610.556 368.834a28.3 28.3 0 0 1-28.221 28.221h-98.77a28.311 28.311 0 0 1-28.221-28.221v-98.77a28.31 28.31 0 0 1 28.221-28.221h98.771a28.3 28.3 0 0 1 28.221 28.221z" fill="none" stroke="#e90050" stroke-linejoin="round" stroke-width="8"/><path data-name="Line 221" fill="none" stroke="#e90050" stroke-linejoin="round" stroke-width="8" d="M497.674 284.172h56.441"/><path data-name="Line 222" fill="none" stroke="#e90050" stroke-linejoin="round" stroke-width="8" d="M497.674 312.393h28.22"/><path data-name="Line 225" fill="none" stroke="#e90050" stroke-linejoin="round" stroke-width="8" d="M540.005 354.724h28.221"/><path data-name="Path 1019" d="M638.776 411.164a14.146 14.146 0 0 1-14.11 14.11H441.233a14.155 14.155 0 0 1-14.11-14.11V227.732a14.155 14.155 0 0 1 14.11-14.11h183.432a14.146 14.146 0 0 1 14.11 14.11z" fill="none" stroke="#e90050" stroke-linejoin="round" stroke-width="8"/><g data-name="Ellipse 268" transform="translate(510)" fill="none" stroke="#fac800" stroke-width="8"><circle cx="22" cy="22" r="22" stroke="none"/><circle cx="22" cy="22" r="18"/></g><g data-name="Ellipse 269" transform="translate(785 234)" fill="none" stroke="#8743e8" stroke-width="8"><ellipse cx="21.5" cy="22" rx="21.5" ry="22" stroke="none"/><ellipse cx="21.5" cy="22" rx="17.5" ry="18"/></g><g data-name="Ellipse 270" transform="translate(183 298)" fill="none" stroke="#e90050" stroke-width="8"><circle cx="22" cy="22" r="22" stroke="none"/><circle cx="22" cy="22" r="18"/></g><g data-name="Ellipse 271" transform="translate(447 576)" fill="none" stroke="#0af" stroke-width="8"><circle cx="22" cy="22" r="22" stroke="none"/><circle cx="22" cy="22" r="18"/></g></g></svg>