<svg xmlns="http://www.w3.org/2000/svg" width="842.8" height="472"><g data-name="Group 1209"><path data-name="Rectangle 521" fill="#f4f4f4" d="M54.801 0h788v472h-788z"/><path data-name="Path 485" d="M101.559 58.167s76.831-4.714 106.8 14.04 64.868 46.521 85.435 77.153 42.9 78.144 71.691 101.9 59.349 46.887 119.289 41.886 78.155-29.383 104.6-31.257 102.836 0 102.836 0" fill="none" stroke="#ffbf00" stroke-width="8"/><path data-name="Path 479" d="M637.091 243.837H536.909s-75.67 3.2-112.973 36.235-68.209 85.263-116.169 100.184-94.854 7.464-114.039 13.855-44.762 20.249-44.762 20.249" fill="none" stroke="#4595ed" stroke-linecap="square" stroke-width="8"/><path data-name="Path 484" d="M790.979 244.382s-23.74 10.627-63.968 15.63-174.1-2.5-189.27.624-46.163 11.253-101.558 48.139-70.564 45.635-100.9 48.761-95.623 5-154.976-31.883-92.985-59.388-118.7-58.764-41.56 17.558-52.113 23.81" fill="none" stroke="#8450ce" stroke-width="8"/><path data-name="Path 482" d="M836.638 243.73c-4.743 0-38.3.267-39.151-.32-7.356-5.057-29.842-19.025-42.1-19.025-22.382 0-75.67-1.333-120.433-1.333s-77.8-45.67-140.683-45.67-117.231 79.933-150.269 93.787-95.922 9.593-130.026 20.25-73.538 68.209-107.644 69.274-88.459 0-88.459 0" fill="none" stroke="#40e0d0" stroke-linecap="square" stroke-width="8"/><path data-name="Path 483" d="M838.683 243.837H533.711s-105.245 6.66-159.865-25.311-73.274-58.619-130.559-56.621-59.285 21.317-122.564 21.317c-70.675 0-91.069-30.741-115.067-55.923" fill="none" stroke="#e90050" stroke-linecap="square" stroke-width="8"/></g></svg>