<svg height="472" width="854.445" xmlns="http://www.w3.org/2000/svg"><path d="M66.445 0h788v472h-788z" fill="#f4f4f4"/><g fill="none"><path d="m324.138 248.509 83.807-83.009" stroke="#40e0d0" stroke-width="8"/><path d="M430.138 226.201 570.175 89.519" stroke="#fac800" stroke-width="8"/><path d="m25.173 324.846 99.879-100.048 54.954 57.763" stroke="#40e0d0" stroke-miterlimit="10" stroke-width="8"/><path d="m741.573 211.701 26.428 5.378 5.38 26.429" stroke="#8450ce" stroke-linejoin="round" stroke-width="8"/><path d="m765.492 88.519 26.428 5.378 5.38 26.429" stroke="#0af" stroke-linejoin="round" stroke-width="8"/><path d="m544.854 81.095 26.428 5.378 5.38 26.429" stroke="#fac800" stroke-linejoin="round" stroke-width="8"/><path d="m384.501 157.418 26.432 5.377 5.38 26.429" stroke="#40e0d0" stroke-linejoin="round" stroke-width="8"/><path d="M267.382 83.739v110.435M575.928 150.359v56.099M356.407 143.192h-89.026V82.611h89.025l-25.636 28.454zM621.151 180.56h-45.223v-30.774h45.223l-13.022 14.455z" stroke="#ea1244" stroke-miterlimit="10" stroke-width="8"/><path d="m131.4 326.352 136.191-136.188 82.944 83.525" stroke="#fac800" stroke-miterlimit="10" stroke-width="8"/><path d="M30.6 331.371a13.3 13.3 0 1 1-13.3-13.3 13.3 13.3 0 0 1 13.3 13.3z" stroke="#40e0d0" stroke-linecap="round" stroke-linejoin="round" stroke-width="8"/><path d="M124.439 189.584v35.214M152.826 208.541h-28.387v-19.317h28.387l-8.174 9.073z" stroke="#ea1244" stroke-miterlimit="10" stroke-width="5"/><path d="m242.275 382.426 170.054-175.97 82.059 85.773" stroke="#0af" stroke-miterlimit="10" stroke-width="8"/><path d="M411.104 391.923a13.3 13.3 0 1 1-13.3-13.3 13.3 13.3 0 0 1 13.3 13.3z" stroke="#8450ce" stroke-linecap="round" stroke-linejoin="round" stroke-width="8"/><path d="M245.71 391.923a13.3 13.3 0 1 1-13.3-13.3 13.3 13.3 0 0 1 13.3 13.3z" stroke="#0af" stroke-linecap="round" stroke-linejoin="round" stroke-width="8"/><path d="M133.832 334.343a13.3 13.3 0 1 1-13.3-13.3 13.3 13.3 0 0 1 13.3 13.3z" stroke="#fac800" stroke-linecap="round" stroke-linejoin="round" stroke-width="8"/><path d="m630.945 257.383 160-160.883" stroke="#0af" stroke-width="8"/><path d="m407.668 382.426 170.054-175.97 99.533 102.341 91.231-90.09" stroke="#8450ce" stroke-miterlimit="10" stroke-width="8"/></g></svg>