<svg xmlns="http://www.w3.org/2000/svg" width="645" height="620"><g data-name="Group 1208" fill="none" stroke-width="8"><path data-name="Line 214" stroke="#fac800" stroke-linejoin="round" d="M349.95 35.809v177.813"/><path data-name="Line 217" stroke="#e90050" stroke-linejoin="round" d="M286.453 166.318v47.305"/><path data-name="Line 215" stroke="#e90050" stroke-linejoin="round" d="M413.445 166.318v47.305"/><path data-name="Line 218" stroke="#e90050" stroke-linejoin="round" d="M37.784 319.448h210.34"/><path data-name="Line 223" stroke="#8450ce" stroke-linejoin="round" d="M191.438 382.944h52.686"/><path data-name="Line 219" stroke="#0af" stroke-linejoin="round" d="M191.438 255.952h52.686"/><path data-name="Line 226" stroke="#e90050" stroke-linejoin="round" d="M349.95 469.589v-44.315"/><path data-name="Line 227" stroke="#fac800" stroke-linejoin="round" d="M413.445 469.589v-44.315"/><path data-name="Line 228" stroke="#0af" stroke-linejoin="round" d="M286.454 581.126V425.275"/><path data-name="Line 220" stroke="#e90050" stroke-linejoin="round" d="M498.275 319.448h-42.499"/><path data-name="Line 216" stroke="#8450ce" stroke-linejoin="round" d="M609.308 255.952H452.776"/><path data-name="Line 224" stroke="#e90050" stroke-linejoin="round" d="M498.275 382.944h-42.499"/><path data-name="Path 1018" d="M427.556 368.834a28.3 28.3 0 0 1-28.221 28.221h-98.77a28.311 28.311 0 0 1-28.221-28.221v-98.77a28.31 28.31 0 0 1 28.221-28.221h98.771a28.3 28.3 0 0 1 28.221 28.221z" stroke="#e90050" stroke-linejoin="round"/><path data-name="Line 221" stroke="#e90050" stroke-linejoin="round" d="M314.674 284.172h56.441"/><path data-name="Line 222" stroke="#e90050" stroke-linejoin="round" d="M314.674 312.393h28.22"/><path data-name="Line 225" stroke="#e90050" stroke-linejoin="round" d="M357.005 354.724h28.221"/><path data-name="Path 1019" d="M455.776 411.164a14.146 14.146 0 0 1-14.11 14.11H258.233a14.155 14.155 0 0 1-14.11-14.11V227.732a14.155 14.155 0 0 1 14.11-14.11h183.432a14.146 14.146 0 0 1 14.11 14.11z" stroke="#e90050" stroke-linejoin="round"/><g data-name="Ellipse 268" transform="translate(327)" stroke="#fac800"><circle cx="22" cy="22" r="22" stroke="none"/><circle cx="22" cy="22" r="18"/></g><g data-name="Ellipse 269" transform="translate(602 234)" stroke="#8743e8"><ellipse cx="21.5" cy="22" rx="21.5" ry="22" stroke="none"/><ellipse cx="21.5" cy="22" rx="17.5" ry="18"/></g><g data-name="Ellipse 270" transform="translate(0 298)" stroke="#e90050"><circle cx="22" cy="22" r="22" stroke="none"/><circle cx="22" cy="22" r="18"/></g><g data-name="Ellipse 271" transform="translate(264 576)" stroke="#0af"><circle cx="22" cy="22" r="22" stroke="none"/><circle cx="22" cy="22" r="18"/></g></g></svg>