<svg xmlns="http://www.w3.org/2000/svg" width="152.259" height="152.259"><g data-name="Group 774" opacity=".983" fill="#e90050"><path data-name="Path 190" d="M87.622 76.041a11.4 11.4 0 1 1-11.4-11.4 11.4 11.4 0 0 1 11.4 11.4"/><path data-name="Path 189" d="M119.935 76.119a43.711 43.711 0 0 0-87.422 0v27.593h16.158V76.119a27.553 27.553 0 1 1 27.459 27.553v16.158a43.808 43.808 0 0 0 43.8-43.711"/><path data-name="Path 188" d="M76.129 16.158V0A76.189 76.189 0 0 0 0 76.076h16.158a60.013 60.013 0 0 1 59.971-59.918"/><path data-name="Path 191" d="M152.259 76.063h-16.157a60.073 60.073 0 0 1-59.972 60.039v16.157a76.25 76.25 0 0 0 76.129-76.2"/></g></svg>