<svg xmlns="http://www.w3.org/2000/svg" width="523.022" height="656.233"><defs><clipPath id="a"><path data-name="Path 370" d="M0 307.737h523.022V-348.5H0z" transform="translate(0 348.496)" fill="none"/></clipPath></defs><g data-name="Group 653"><g data-name="Group 521" clip-path="url(#a)"><g data-name="Group 518"><path data-name="Path 367" d="M77.909 262.315H0" fill="none" stroke="#ffc846" stroke-width="15"/></g><g data-name="Group 519"><path data-name="Path 368" d="M261.473 0v78.883" fill="none" stroke="#ffc846" stroke-width="15"/></g><g data-name="Group 520"><path data-name="Path 369" d="M523.023 261.773h-77.909" fill="none" stroke="#ffc846" stroke-width="15"/></g></g><g data-name="Group 522"><path data-name="Path 371" d="m446.417 74.518-55.09 55.778" fill="none" stroke="#ffc846" stroke-width="15"/></g><g data-name="Group 523"><path data-name="Path 372" d="m131.619 393.252-55.09 55.778" fill="none" stroke="#ffc846" stroke-width="15"/></g><g data-name="Group 524"><path data-name="Path 373" d="m76.529 74.518 55.09 55.778" fill="none" stroke="#ffc846" stroke-width="15"/></g><g data-name="Group 525"><path data-name="Path 374" d="m391.327 393.252 55.09 55.778" fill="none" stroke="#ffc846" stroke-width="15"/></g><g data-name="Group 526"><path data-name="Path 375" d="m231.06 240.412-37.461 35.121-3.659 3.365 3.659 3.438 37.461 35.121" fill="none" stroke="#38bcea" stroke-width="15"/></g><g data-name="Group 527"><path data-name="Path 376" d="m295.938 240.412 37.461 35.121 3.659 3.365-3.659 3.438-37.461 35.121" fill="none" stroke="#38bcea" stroke-width="15"/></g><path data-name="Path 377" d="M107.001 264.059a157.9 157.9 0 0 0 46.754 121.35c26.687 26.214 41.984 62.317 41.984 99.05v20.61c0 19.845 15.944 35.987 35.544 35.987h60.451c19.6 0 35.544-16.141 35.544-35.987v-20.584c0-37.209 14.938-72.964 40.981-98.089a156.222 156.222 0 0 0 48-113.425c0-86.4-69.424-156.692-154.756-156.692a158.912 158.912 0 0 0-17.584.989c-73.921 8.262-132.786 71.374-136.918 146.791z" fill="none" stroke="#fff" stroke-width="15"/><path data-name="Path 378" d="M0 656.234h523.022V-.003H0z" fill="none"/><g data-name="Group 530"><path data-name="Path 379" d="M314.897 580.008H211.88" fill="none" stroke="#fff" stroke-width="15"/></g><g data-name="Group 531"><path data-name="Path 380" d="M314.897 614.619H211.88" fill="none" stroke="#fff" stroke-width="15"/></g><g data-name="Group 532"><path data-name="Path 381" d="M291.412 648.701h-56.045" fill="none" stroke="#fff" stroke-width="15"/></g><path data-name="Path 382" d="M0 656.234h523.022V-.003H0z" fill="none"/><g data-name="Group 534"><path data-name="Path 383" d="M263.579 539.239V287.697" fill="none" stroke="#fff" stroke-linecap="square" stroke-width="15"/></g></g></svg>