<svg id="Layer_1" data-name="Layer 1" xmlns="http://www.w3.org/2000/svg" viewBox="0 0 772.4 179"><defs><style>.cls-1{fill:#fff;}</style></defs><g id="Layer_4" data-name="Layer 4"><path class="cls-1" d="M263.6,266a13.4,13.4,0,1,0-13.4,13.4A13.4,13.4,0,0,0,263.6,266" transform="translate(-160.6 -176.6)"/><path class="cls-1" d="M250.1,317.5v-19a32.4,32.4,0,1,0-32.3-32.4v32.4h-19V266.1a51.4,51.4,0,1,1,51.3,51.4Z" transform="translate(-160.6 -176.6)"/><path class="cls-1" d="M179.6,266.1h-19a89.666,89.666,0,0,1,89.5-89.5v19A70.546,70.546,0,0,0,179.6,266.1Z" transform="translate(-160.6 -176.6)"/><path class="cls-1" d="M250.1,355.6v-19A70.632,70.632,0,0,0,320.6,266h19A89.623,89.623,0,0,1,250.1,355.6Z" transform="translate(-160.6 -176.6)"/><path class="cls-1" d="M440.8,218.3c11.9,0,22.1,4.5,30.5,13.5s12.6,20.1,12.6,33.2-4.2,24.1-12.6,33.2c-8.4,9-18.6,13.5-30.5,13.5-12.4,0-21.9-4.3-28.6-12.9v45.5l-22.8.3V220.8h22.8v10.4c6.7-8.6,16.2-12.9,28.6-12.9M419.1,283c4.6,4.7,10.4,7,17.5,7s12.9-2.3,17.6-7,7-10.6,7-17.9-2.3-13.3-7-17.9c-4.7-4.7-10.5-7-17.6-7s-12.9,2.3-17.5,7-6.9,10.6-6.9,17.9c0,7.2,2.3,13.2,6.9,17.9" transform="translate(-160.6 -176.6)"/><path class="cls-1" d="M522.9,236a23.338,23.338,0,0,1,10.5-12.7,32.288,32.288,0,0,1,16.4-4.2v25.5a27.35,27.35,0,0,0-18.7,4.2c-5.5,3.7-8.2,9.7-8.2,18.2v42.3H500V220.9h22.8V236Z" transform="translate(-160.6 -176.6)"/><path class="cls-1" d="M634.9,298.2a45.5,45.5,0,0,1-33.2,13.5c-13.1,0-24.1-4.5-33.2-13.5S555,278.1,555,265s4.5-24.1,13.5-33.2c9-9,20.1-13.5,33.2-13.5s24.2,4.5,33.2,13.5c9.1,9,13.6,20.1,13.6,33.2a44.66,44.66,0,0,1-13.6,33.2m-50.3-15.7a22.908,22.908,0,0,0,17.1,6.9,23.449,23.449,0,0,0,17.2-6.9c4.6-4.6,6.9-10.4,6.9-17.5s-2.3-12.9-6.9-17.5a24.763,24.763,0,0,0-34.3,0c-4.5,4.6-6.8,10.4-6.8,17.5s2.3,12.9,6.8,17.5" transform="translate(-160.6 -176.6)"/><path class="cls-1" d="M716.1,218.3c11.9,0,22.1,4.5,30.5,13.5s12.6,20.1,12.6,33.2-4.2,24.1-12.6,33.2c-8.4,9-18.6,13.5-30.5,13.5-12.4,0-21.9-4.3-28.6-12.9v45.5l-22.8.3V220.8h22.8v10.4c6.7-8.6,16.2-12.9,28.6-12.9M694.4,283c4.6,4.7,10.4,7,17.5,7s12.9-2.3,17.6-7,7-10.6,7-17.9-2.3-13.3-7-17.9c-4.7-4.7-10.5-7-17.6-7s-12.9,2.3-17.5,7-6.9,10.6-6.9,17.9c0,7.2,2.3,13.2,6.9,17.9" transform="translate(-160.6 -176.6)"/><path class="cls-1" d="M794.6,274.4c3.1,11.1,11.4,16.6,24.9,16.6,8.7,0,15.3-2.9,19.8-8.8l18.4,10.6c-8.7,12.6-21.6,18.9-38.5,18.9-14.6,0-26.3-4.4-35.2-13.3-8.8-8.8-13.3-20-13.3-33.4,0-13.3,4.4-24.4,13.1-33.3s19.9-13.3,33.6-13.3c13,0,23.7,4.5,32.1,13.4,8.4,9,12.6,20,12.6,33.2a53.194,53.194,0,0,1-.9,9.4Zm-.3-17.7h45.1c-1.3-6-4-10.5-8-13.4a23.46,23.46,0,0,0-13.9-4.4c-6.1,0-11.2,1.6-15.2,4.7a21.2,21.2,0,0,0-8,13.1" transform="translate(-160.6 -176.6)"/><polygon class="cls-1" points="740.3 3.5 717.5 3.8 717.5 132.6 740.3 132.6 740.3 3.5"/><path class="cls-1" d="M909.2,191.7a11.9,11.9,0,1,1,11.9,11.9A11.865,11.865,0,0,1,909.2,191.7Zm1.7,0A10.1,10.1,0,1,0,921,181.6,10.136,10.136,0,0,0,910.9,191.7Zm9.8,1.5h-2.3v5.4h-1.9V185H922a4.129,4.129,0,0,1,4.4,4.1,3.972,3.972,0,0,1-3.5,4l3.6,5.4h-2.3Zm-2.3-6.6v4.8H922a2.438,2.438,0,0,0,2.5-2.3,2.474,2.474,0,0,0-2.5-2.5Z" transform="translate(-160.6 -176.6)"/></g></svg>