<?xml version="1.0" encoding="UTF-8"?>
<svg xmlns="http://www.w3.org/2000/svg" width="696.748" height="696.748" viewBox="0 0 696.748 696.748">
  <g id="Group_798" data-name="Group 798" transform="translate(-479.376 -2055.376)" opacity="0.983">
    <path id="Path_190" data-name="Path 190" d="M180.589,128.193A52.187,52.187,0,1,1,128.4,76.008a52.186,52.186,0,0,1,52.185,52.185" transform="translate(699.752 2275.15)" fill="#f4f4f4"/>
    <path id="Path_189" data-name="Path 189" d="M438.28,238.128c0-110.292-89.729-200.018-200.017-200.018S38.233,127.836,38.233,238.128V364.394h73.938V238.128a126.085,126.085,0,0,1,252.171,0c0,69.525-56.753,126.087-126.515,126.087v73.938c110.529,0,200.453-89.729,200.453-200.025" transform="translate(589.926 2165.57)" fill="#f4f4f4"/>
    <path id="Path_188" data-name="Path 188" d="M348.372,73.938V0C156.281,0,0,156.168,0,348.127H73.938c0-151.187,123.11-274.189,274.434-274.189" transform="translate(479.376 2055.376)" fill="#f4f4f4"/>
    <path id="Path_191" data-name="Path 191" d="M437.895,89.444H363.957c0,151.495-123.11,274.741-274.434,274.741v73.938c192.091,0,348.372-156.418,348.372-348.679" transform="translate(738.229 2314)" fill="#f4f4f4"/>
  </g>
</svg>
