<?xml version="1.0" encoding="UTF-8" standalone="no"?>
<svg width="174px" height="73px" viewBox="0 0 174 73" version="1.1" xmlns="http://www.w3.org/2000/svg" xmlns:xlink="http://www.w3.org/1999/xlink" xmlns:sketch="http://www.bohemiancoding.com/sketch/ns">
    <!-- Generator: Sketch 3.3.3 (12081) - http://www.bohemiancoding.com/sketch -->
    <title>Allsop</title>
    <desc>Allsop logo</desc>
    <defs></defs>
    <g id="allsop-logo" stroke="none" stroke-width="1" fill="none" fill-rule="evenodd" sketch:type="MSPage">
        <g id="Logo" sketch:type="MSLayerGroup">
            <path d="M154.132,57.861 C151.878,57.861 150.103,57.463 148.411,56.816 L148.411,72.093 L140.029,72.093 L140.029,20.549 C143.494,19.34 148.086,17.973 154.053,17.973 C166.868,17.973 173.955,25.547 173.955,37.397 C173.956,49.885 165.011,57.861 154.132,57.861 M153.567,25.143 C151.311,25.143 149.784,25.389 148.411,25.786 L148.411,49.886 C150.184,50.607 151.548,51.013 153.727,51.013 C160.981,51.013 165.334,45.857 165.334,37.8 C165.335,29.094 160.017,25.143 153.567,25.143" id="p" fill="#FFFFFF" sketch:type="MSShapeGroup"></path>
            <path d="M130.592,23.371 C133.978,26.834 135.836,31.992 135.836,37.875 C135.836,43.838 133.9,49.076 130.433,52.625 C127.129,55.926 122.616,57.861 117.218,57.861 C111.98,57.861 107.623,56.248 104.482,53.187 C100.776,49.64 98.762,44.244 98.762,38.117 C98.762,32.074 100.776,26.834 104.241,23.291 C107.467,19.904 111.98,17.973 117.219,17.973 C122.779,17.973 127.369,19.904 130.592,23.371 M107.302,37.957 C107.302,45.855 111.092,51.176 117.297,51.176 C123.744,51.176 127.209,45.694 127.209,37.957 C127.209,29.98 123.501,24.74 117.136,24.74 C110.688,24.74 107.302,30.141 107.302,37.957" id="o" fill="#FFFFFF" sketch:type="MSShapeGroup"></path>
            <path d="M80.903,57.861 C76.777,57.861 73.552,57.186 70.947,56.142 L69.867,49.323 C73.408,50.545 76.431,51.476 80.502,51.416 C84.69,51.354 87.51,49.725 87.51,46.822 C87.51,39.168 70.022,42.068 70.022,28.851 C70.022,22.646 74.86,17.972 83.804,17.972 C88.396,17.972 91.62,18.857 94.44,19.986 L94.44,27.078 C91.459,25.787 88.236,24.66 84.129,24.66 C80.659,24.66 78.165,25.787 78.165,28.449 C78.165,35.297 95.974,33.281 95.974,46.176 C95.974,54.557 88.878,57.861 80.903,57.861" id="s" fill="#FFFFFF" sketch:type="MSShapeGroup"></path>
            <path d="M43.656,57.861 C37.93,57.861 35.678,54.396 35.678,49.884 L35.678,0 L44.058,0 L44.058,46.26 C44.058,49.32 44.704,50.287 46.796,50.287 C47.362,50.287 48.167,50.287 49.298,49.965 L50.343,56.17 C47.929,57.463 45.833,57.861 43.656,57.861" id="l" fill="#FFFFFF" sketch:type="MSShapeGroup"></path>
            <path d="M61.119,57.861 C55.4,57.861 53.144,54.396 53.144,49.884 L53.144,0 L61.522,0 L61.522,46.26 C61.522,49.32 62.17,50.287 64.264,50.287 C64.828,50.287 65.632,50.287 66.764,49.965 L67.81,56.17 C65.391,57.463 63.297,57.861 61.119,57.861" id="l" fill="#FFFFFF" sketch:type="MSShapeGroup"></path>
            <path d="M25.059,57.057 L23.451,53.512 C21.034,55.772 17.486,57.862 12.169,57.862 C5.477,57.861 0,53.268 0,45.855 C0,38.041 5.88,33.687 15.792,33.281 L22.885,33.039 L22.885,31.914 C22.885,26.594 19.498,24.66 15.229,24.66 C10.878,24.66 7.653,26.189 5.319,27.722 L2.496,22.323 C7.412,18.932 11.925,17.972 16.924,17.972 C25.627,17.972 31.348,21.597 31.348,31.511 L31.348,45.45 C31.348,52.704 31.512,55.524 32.075,57.055 L25.059,57.055 L25.059,57.057 Z M22.804,39.244 L16.6,39.486 C10.878,39.648 8.379,41.664 8.379,45.209 C8.379,48.596 10.636,51.092 14.986,51.092 C18.934,51.092 21.434,49.321 22.803,48.028 L22.803,39.244 L22.804,39.244 Z" id="a" fill="#FFFFFF" sketch:type="MSShapeGroup"></path>
            <rect id="Underline" fill="#C20068" sketch:type="MSShapeGroup" x="1.622" y="63.701" width="133.045" height="8.381"></rect>
        </g>
    </g>
</svg>