<svg xmlns="http://www.w3.org/2000/svg" width="945.713" height="710.344"><g data-name="Group 834"><g data-name="Group 833" fill="#0af"><path data-name="Line 181" d="M785.741 268.406H576.063v-15h209.678z"/><path data-name="Path 581" d="m768.931 296.95-10.607-10.606 24.628-24.629-24.628-24.624 10.607-10.607 35.234 35.234z"/></g><path data-name="Rectangle 493" fill="none" d="M15.713 0h930v604h-930z"/><path data-name="Line 173" d="M356.753 204.201h-15v-75.6h15z" fill="#e90050"/><path data-name="Line 174" d="M292.549 353.461H10.795v-15h281.754z" fill="#40e0d0"/><path data-name="Line 175" d="M292.547 438.515h-75.6v-15h75.6z" fill="#0af"/><path data-name="Line 176" d="M292.547 268.406h-75.6v-15h75.6z" fill="#8450ce"/><path data-name="Line 177" d="M441.807 563.317h-15v-75.6h15z" fill="#e90050"/><path data-name="Line 178" d="M526.861 563.317h-15v-75.6h15z" fill="#e90050"/><path data-name="Line 179" d="M356.753 692.032h-15V487.718h15z" fill="#8450ce"/><path data-name="Line 180" d="M651.663 353.461h-75.6v-15h75.6z" fill="#e90050"/><path data-name="Line 182" d="M651.663 438.515h-75.6v-15h75.6z" fill="#40e0d0"/><path data-name="Path 579" d="M500.459 457.415H368.154a45.353 45.353 0 0 1-45.3-45.3V279.808a45.353 45.353 0 0 1 45.3-45.3h132.305a45.353 45.353 0 0 1 45.3 45.3v132.305a45.353 45.353 0 0 1-45.3 45.302zM368.154 249.506a30.336 30.336 0 0 0-30.3 30.3v132.307a30.336 30.336 0 0 0 30.3 30.3h132.305a30.336 30.336 0 0 0 30.3-30.3V279.808a30.336 30.336 0 0 0-30.3-30.3z" fill="#e90050"/><path data-name="Line 183" d="M462.655 306.209h-75.6v-15h75.6z" fill="#e90050"/><path data-name="Line 184" d="M424.855 344.01h-37.8v-15h37.8z" fill="#e90050"/><path data-name="Line 185" d="M481.557 400.713h-37.8v-15h37.8z" fill="#e90050"/><path data-name="Path 580" d="m349.33 710.344-35.237-35.234 10.606-10.607 24.629 24.628 24.628-24.628 10.607 10.607z" fill="#8450ce"/><path data-name="Path 582" d="M35.234 380.733 0 345.503l35.234-35.236 10.607 10.606-24.628 24.63 24.628 24.628z" fill="#40e0d0"/><path data-name="Path 583" d="M541.288 131.704h-15a84.482 84.482 0 0 0-168.963 0h-15a99.482 99.482 0 0 1 198.963 0z" fill="#e90050"/><path data-name="Rectangle 497" fill="none" d="M1.808 33.5h800.55v675.036H1.808z"/><path data-name="Path 578" d="M557.162 495.217H311.451a26.431 26.431 0 0 1-26.4-26.4V223.105a26.431 26.431 0 0 1 26.4-26.4h245.711a26.431 26.431 0 0 1 26.4 26.4v245.711a26.431 26.431 0 0 1-26.4 26.401zM311.451 211.704a11.414 11.414 0 0 0-11.4 11.4v245.712a11.414 11.414 0 0 0 11.4 11.4h245.711a11.414 11.414 0 0 0 11.4-11.4V223.105a11.414 11.414 0 0 0-11.4-11.4z" fill="#e90050"/></g></svg>