<svg xmlns="http://www.w3.org/2000/svg" width="594.937" height="594.937"><g data-name="Group 851"><path data-name="Line 186" d="m74.13 529.267-8.475-8.5 190.21-189.742 8.475 8.5z" fill="#fff"/><path data-name="Line 187" d="m405.467 198.198-8.5-8.475L511.932 74.494l8.5 8.475z" fill="#fff"/><path data-name="Line 188" d="m236.338 230.63-161.57-69.254 4.728-11.03 161.57 69.254z" fill="#fff"/><path data-name="Line 189" d="m504.478 358.078-90.292-37.32 4.584-11.09 90.291 37.32z" fill="#fff"/><path data-name="Line 190" d="M336.478 514.051h-12v-149.77h12z" fill="#fff"/><path data-name="Ellipse 205" d="M329.949 158.59A105.847 105.847 0 1 1 224.63 264.964 105.967 105.967 0 0 1 329.95 158.59zm.997 199.691a93.847 93.847 0 1 0-94.315-93.377 93.953 93.953 0 0 0 94.315 93.377z" fill="#fff"/><path data-name="Line 191" d="M391.007 253.71H269.95a4 4 0 0 1-4-4 4 4 0 0 1 4-4h121.057a4 4 0 0 1 4 4 4 4 0 0 1-4 4z" fill="#ffbf00"/><path data-name="Path 584" d="M330.478 337.926a4 4 0 0 1-3.248-1.665l-60.529-84.214a4 4 0 0 1-.007-4.659l26.317-36.847a4 4 0 0 1 3.255-1.675h68.424a4 4 0 0 1 3.259 1.675l26.317 36.846a4 4 0 0 1-.007 4.659l-60.533 84.214a4 4 0 0 1-3.248 1.666zm-55.608-88.221 55.608 77.367 55.608-77.367-23.455-32.839h-64.307z" fill="#ffbf00"/><path data-name="Path 585" d="M330.478 208.866a4 4 0 0 1 3.365 1.837l23.685 36.846a4 4 0 0 1 .486 3.246l-23.685 84.214a4 4 0 0 1-7.7 0l-23.687-84.214a4 4 0 0 1 .486-3.246l23.685-36.846a4 4 0 0 1 3.365-1.837zm19.347 41.5-19.347-30.1-19.348 30.1 19.347 68.791z" fill="#ffbf00"/><path data-name="Line 192" d="M306.791 253.713a4 4 0 0 1-3.844-2.9l-10.527-36.847a4 4 0 0 1 2.746-4.946 4 4 0 0 1 4.946 2.746l10.527 36.847a4 4 0 0 1-3.848 5.1z" fill="#ffbf00"/><path data-name="Line 193" d="M354.163 253.713a4 4 0 0 1-1.1-.155 4 4 0 0 1-2.747-4.945l10.528-36.847a4 4 0 0 1 4.945-2.747 4 4 0 0 1 2.747 4.947l-10.527 36.845a4 4 0 0 1-3.846 2.902z" fill="#ffbf00"/><path data-name="Ellipse 209" d="M330.478 508.051a43.443 43.443 0 1 1-43.443 43.443 43.492 43.492 0 0 1 43.443-43.443zm0 74.885a31.443 31.443 0 1 0-31.443-31.442 31.478 31.478 0 0 0 31.443 31.442z" fill="#8450ce"/><path data-name="Ellipse 208" d="M43.443 508.051A43.443 43.443 0 1 1 0 551.494a43.492 43.492 0 0 1 43.443-43.443zm0 74.885A31.443 31.443 0 1 0 12 551.494a31.478 31.478 0 0 0 31.443 31.442z" fill="#ffbf00"/><path data-name="Ellipse 210" d="M542.677 320.839a43.443 43.443 0 1 1-43.443 43.443 43.492 43.492 0 0 1 43.443-43.443zm0 74.885a31.443 31.443 0 1 0-31.443-31.442 31.478 31.478 0 0 0 31.443 31.442z" fill="#00c3a0"/><path data-name="Ellipse 207" d="M500.396 42.28a43.443 43.443 0 1 1 32.3 52.262 43.492 43.492 0 0 1-32.3-52.262zm72.882 17.206a31.443 31.443 0 1 0-37.825 23.377 31.478 31.478 0 0 0 37.825-23.377z" fill="#0af"/><path data-name="Ellipse 206" d="M43.443 96.184A43.443 43.443 0 1 1 0 139.627a43.492 43.492 0 0 1 43.443-43.443zm0 74.885A31.443 31.443 0 1 0 12 139.627a31.478 31.478 0 0 0 31.443 31.442z" fill="#e8e8e8"/></g></svg>