<svg id="Layer_1" data-name="Layer 1" xmlns="http://www.w3.org/2000/svg" viewBox="0 0 155 55">
  <path d="M86.62,14a10,10,0,0,1,3.52,8.15,10,10,0,0,1-3.52,8.11q-3.53,2.94-9.73,2.94h-9.4V44h-2.4V11.05h11.8Q83.09,11.05,86.62,14Zm-1.7,14.73a8.07,8.07,0,0,0,2.78-6.58,8.13,8.13,0,0,0-2.78-6.6c-1.85-1.55-4.52-2.33-8-2.33h-9.4V31h9.4C80.4,31,83.07,30.26,84.92,28.72Z" style="fill:#fff"/>
  <path d="M106.35,11.05h13a19,19,0,0,1,9.1,2.12A15.43,15.43,0,0,1,134.64,19a16.37,16.37,0,0,1,2.21,8.48A16.35,16.35,0,0,1,134.64,36a15.43,15.43,0,0,1-6.18,5.85,19,19,0,0,1-9.1,2.12h-13Zm12.83,30.74a17.07,17.07,0,0,0,8-1.81,13,13,0,0,0,5.36-5,14.6,14.6,0,0,0,1.88-7.43,14.6,14.6,0,0,0-1.88-7.43A13,13,0,0,0,127.21,15a17.19,17.19,0,0,0-8-1.81H108.74V41.79Z" style="fill:#fff"/>
  <path d="M152.22,11.05h2.39V44h-2.39Z" style="fill:#fff"/>
  <path id="Path_4" data-name="Path 4" d="M23.51,0,.39,13.49V18h39.2l3.81-7.06Z" style="fill:#65abc5"/>
  <path id="Path_5" data-name="Path 5" d="M43.4,10.93,24.19,45.48l4.44,6.64L48.89,41.2V13.49Z" style="fill:#cbc664"/>
  <path id="Path_6" data-name="Path 6" d="M.39,40.83V18H9.1L28.63,52.12,23.52,55Z" style="fill:#c4669e"/>
</svg>
