<svg xmlns="http://www.w3.org/2000/svg" width="123.079" height="51.1"><defs><clipPath id="a"><path data-name="Rectangle 118" fill="none" d="M0 0h123.079v51.1H0z"/></clipPath></defs><g data-name="Group 398"><g data-name="Group 397" clip-path="url(#a)"><path data-name="Path 285" d="M109.064 40.979a11.422 11.422 0 0 1-4.034-.708V51.1h-5.945V14.509a29.407 29.407 0 0 1 9.909-1.84c9.059 0 14.084 5.379 14.084 13.73.071 8.918-6.3 14.58-14.014 14.58m-.354-23.21a12.793 12.793 0 0 0-3.68.425v17.052a9.107 9.107 0 0 0 3.751.779c5.167 0 8.21-3.68 8.21-9.342 0-6.087-3.751-8.918-8.281-8.918" fill="#626466" fill-rule="evenodd"/><path data-name="Path 286" d="M92.433 16.562a14.453 14.453 0 0 1 3.68 10.262 14.757 14.757 0 0 1-3.822 10.475 12.858 12.858 0 0 1-9.342 3.68 12.354 12.354 0 0 1-8.988-3.326c-2.619-2.477-4.034-6.3-4.034-10.687a14.68 14.68 0 0 1 3.893-10.475 13.331 13.331 0 0 1 18.614.071M75.942 26.895c0 5.591 2.689 9.342 7.078 9.342 4.53 0 7.007-3.893 7.007-9.342 0-5.662-2.619-9.342-7.148-9.342-4.53-.071-6.936 3.751-6.936 9.342" fill="#626466" fill-rule="evenodd"/><path data-name="Path 287" d="M57.257 40.979a19.6 19.6 0 0 1-7.078-1.2l-.778-4.816a20.25 20.25 0 0 0 7.5 1.486c2.973-.071 4.954-1.2 4.954-3.256 0-5.45-12.386-3.4-12.386-12.74.074-4.457 3.542-7.713 9.841-7.713a19.367 19.367 0 0 1 7.5 1.416v5.025a17.559 17.559 0 0 0-7.29-1.7c-2.477 0-4.247.779-4.247 2.689 0 4.813 12.6 3.4 12.6 12.527.071 5.945-4.954 8.281-10.616 8.281" fill="#626466" fill-rule="evenodd"/><path data-name="Path 288" d="M30.929 40.979c-4.034 0-5.662-2.477-5.662-5.662V0h5.945v32.769c0 2.194.425 2.831 1.911 2.831a6.152 6.152 0 0 0 1.769-.212l.708 4.388a9.371 9.371 0 0 1-4.671 1.2" fill="#626466" fill-rule="evenodd"/><path data-name="Path 289" d="M43.244 40.979c-4.034 0-5.662-2.477-5.662-5.662V0h5.945v32.769c0 2.194.425 2.831 1.911 2.831a6.152 6.152 0 0 0 1.769-.212l.708 4.388a9.026 9.026 0 0 1-4.671 1.2" fill="#626466" fill-rule="evenodd"/><path data-name="Path 290" d="m17.765 40.413-1.133-2.473a11.125 11.125 0 0 1-8 3.043C3.893 40.979 0 37.724 0 32.486c0-5.591 4.176-8.635 11.182-8.918l5.025-.142v-.779c0-3.751-2.406-5.167-5.45-5.167a11.934 11.934 0 0 0-7.007 2.194l-1.981-3.82a16.707 16.707 0 0 1 10.192-3.114c6.157 0 10.192 2.548 10.192 9.555v9.838c0 5.167.142 7.148.5 8.21zM16.137 27.74l-4.388.142c-4.034.142-5.8 1.557-5.8 4.034 0 2.406 1.628 4.176 4.671 4.176a7.884 7.884 0 0 0 5.52-2.194z" fill="#626466" fill-rule="evenodd"/><path data-name="Rectangle 117" fill="#c9005e" d="M1.132 45.084h94.131v5.945H1.132z"/></g></g></svg>