<svg width="1234.114" height="419.44" xmlns="http://www.w3.org/2000/svg" data-name="RGB Black"><path d="M313.99 10.82c109.58 0 198.414 88.827 198.427 198.404H401.352a87.362 87.362 0 0 0-174.724 0H115.563C115.576 99.647 204.41 10.82 313.99 10.82m85.385 239.748c-7.061 0-19.116 2.757-26.837 2.78H255.44c-7.72-.023-19.772-2.78-26.836-2.78h-108.73q.885 4.162 1.933 8.256h106.9c6.96 0 17.806-2.778 26.733-2.778H372.54c8.927 0 19.775 2.778 26.734 2.778h106.899q1.053-4.098 1.933-8.256h-108.73zm-11.956 22.75c-6.944 0-19.343 3.977-26.785 3.895h-93.29c-7.441.082-19.84-3.896-26.785-3.896H126.136q1.766 5.174 3.802 10.212h110.621c6.944 0 17.268-3.617 26.786-3.617h93.289c9.517 0 19.841 3.617 26.785 3.617h110.622q2.033-5.036 3.801-10.212H387.42zm81.536 59.866q5.537-6.92 10.46-14.324H148.563q4.917 7.398 10.46 14.324h309.931zM182.646 357.98h262.687a199.494 199.494 0 0 0 16.436-16.32H166.21a199.895 199.895 0 0 0 16.436 16.32m45.154 30.045a198.896 198.896 0 0 0 172.38 0H227.8zm140.77-91.913c-8.848 0-22.754 4.728-36.338 4.792h-36.487c-13.581-.064-27.49-4.792-36.336-4.792H135.541q3.06 6.276 6.538 12.29h123.056c8.803-.008 17.029-4.8 30.61-4.8h36.487c13.584 0 21.81 4.792 30.612 4.8h123.054q3.481-6.012 6.538-12.29H368.57zm14.893-67.058h-138.98c-7.934 0-14.669-2.42-19.677-2.364H116.42c.191 2.075.533 5.238.79 7.301h107.554c4.96-.053 11.804-2.239 19.741-2.239H383.44c7.94 0 14.781 2.18 19.742 2.234l107.555.003c.255-2.06.597-5.224.789-7.3H403.14c-5.009-.055-11.741 2.365-19.678 2.365M411.99 381.82a198.918 198.918 0 0 0 25.03-16.885H190.96a198.944 198.944 0 0 0 25.03 16.885h196z" fill="#3434f1"/><g stroke="null" fill="#3434f1"><path d="M563.219 143.582c0-26.748 18.638-46.144 45.043-46.144 19.155 0 34.3 9.506 40.383 27.634L633.5 129.89c-3.363-10.775-11.387-18.128-25.11-18.128-17.083 0-29.38 13.82-29.38 31.947 0 19.015 12.814 31.819 29.769 31.819 13.979 0 21.486-7.609 24.59-16.48l14.888 4.816c-6.342 16.228-19.545 25.86-39.737 25.86-26.274 0-45.301-18.128-45.301-46.143M696.206 165.894v-7.353l-12.814 1.902c-8.027 1.14-11.648 3.803-11.648 9 0 4.817 4.27 8.113 11.39 8.113 6.988 0 13.072-4.057 13.072-11.662m-39.35 4.436c0-9.253 4.919-18.127 25.5-20.918l13.85-1.9v-.762c0-7.224-3.625-11.534-11.91-11.534-8.155 0-11.779 3.802-12.815 10.268l-13.718-3.296c3.495-12.549 11.65-19.142 27.054-19.142 14.365 0 26.92 6.972 26.92 23.45v41.583h-13.072l-1.685-5.704c-2.588 3.549-7.634 7.477-17.99 7.477-12.167 0-22.133-7.477-22.133-19.522M725.976 124.82h12.814l2.2 7.606c4.015-5.197 10.096-9.38 19.676-9.38 14.624 0 23.167 8.24 23.167 26.748v38.283h-15.532V151.82c0-11.153-5.309-14.702-12.556-14.702-7.894 0-14.237 5.449-14.237 16.225v34.734h-15.532V124.82zM834.94 165.894v-7.353l-12.813 1.902c-8.025 1.14-11.648 3.803-11.648 9 0 4.817 4.268 8.113 11.39 8.113 6.988 0 13.07-4.057 13.07-11.662m-39.347 4.436c0-9.253 4.92-18.127 25.499-20.918l13.848-1.9v-.762c0-7.224-3.623-11.534-11.908-11.534-8.153 0-11.779 3.802-12.815 10.268l-13.718-3.296c3.495-12.549 11.65-19.142 27.052-19.142 14.365 0 26.923 6.972 26.923 23.45v41.583h-13.075l-1.681-5.704c-2.59 3.549-7.638 7.477-17.994 7.477-12.165 0-22.131-7.477-22.131-19.522M865.358 99.34h15.53v88.739h-15.53v-88.74zM964.538 147.004h-13.332c-8.671 0-15.92 5.708-15.92 14.58 0 8.875 6.86 14.326 15.012 14.326 7.766 0 14.24-5.451 14.24-14.326v-14.58zm23.038.127h-8.414v14.581c0 16.732-12.943 28.142-28.864 28.142-17.863 0-30.805-11.157-30.805-28.017a25.83 25.3 0 0 1 12.039-21.806 23.583 23.098 0 0 1-7.508-17.238c0-14.834 12.295-25.227 27.828-25.227 14.626 0 23.556 7.731 26.015 18.889l-13.718 3.419c-1.295-5.702-6.343-9.125-12.297-9.125-7.38 0-13.073 4.689-13.073 11.916 0 7.351 5.693 11.917 12.814 11.917h12.945v-7.608h14.624v7.734h8.414v12.423zM602.395 259.607c9.448 0 14.885-5.326 14.885-13.313 0-8.238-5.696-13.183-15.143-13.183h-16.052v26.496h16.31zm-32.1-40.44h33.134c19.027 0 29.511 11.536 29.511 26.367 0 14.2-8.285 22.44-17.733 25.483l21.617 36.89H619.35l-19.803-34.737h-13.462v34.736h-15.79v-88.74zM648.863 244.648h15.532v63.26h-15.532v-63.26zm-1.554-17.621a9.114 8.926 0 0 1 9.061-9 9.19 9 0 1 1 0 18 9.114 8.926 0 0 1-9.06-9M739.64 244.647l-24.466 63.258h-16.31l-24.46-63.258h15.92l16.698 46.019 16.699-46.019h15.919zM773.56 255.425c-10.486 0-16.31 6.97-17.733 14.198h34.43c-.39-5.706-5.566-14.198-16.697-14.198m-17.863 25.86a17.833 17.466 0 0 0 17.863 15.846c9.06 0 14.237-5.323 15.79-9.634l13.073 3.93c-3.756 10.14-13.073 18.253-28.863 18.253-18.509 0-32.748-13.942-32.748-33.468 0-19.14 14.24-33.338 32.617-33.338 18.77 0 30.548 13.309 30.548 32.579v5.832h-48.28zM816.017 244.647h12.812l2.2 7.354a18.574 18.192 0 0 1 16.309-9.128 19.034 18.642 0 0 1 11.133 3.042l-5.566 13.313a12.874 12.61 0 0 0-7.768-2.157c-7.505 0-13.59 5.832-13.59 16.353v34.48h-15.53v-63.257zM902.575 233.491h-26.146V219.17h68.083v14.322h-26.147v74.417h-15.79V233.49zM946.9 244.647h12.812l2.203 7.354a18.568 18.186 0 0 1 16.307-9.128 19.026 18.634 0 0 1 11.131 3.042l-5.565 13.313a12.874 12.61 0 0 0-7.768-2.157c-7.506 0-13.59 5.832-13.59 16.353v34.48H946.9v-63.257zM1053.057 307.907h-12.812l-2.203-7.606c-4.012 5.196-10.095 9.379-19.675 9.379-14.754 0-23.168-8.366-23.168-26.875v-38.157h15.535v36.132c0 11.283 5.304 14.702 12.553 14.702 7.897 0 14.238-5.449 14.238-16.226v-34.608h15.532v63.26zM1065.096 290.793l13.718-4.309c1.554 5.577 4.918 10.521 13.206 10.521 6.986 0 11.518-2.661 11.518-7.227 0-3.168-2.073-5.83-11.909-7.479-13.46-2.408-24.721-6.466-24.721-19.649 0-10.904 9.45-19.776 25.112-19.776 12.943 0 21.873 6.719 24.59 18.127l-13.592 3.802c-1.164-4.561-3.881-9.253-10.998-9.253-7.38 0-10.616 3.17-10.616 6.466 0 4.309 4.66 5.832 12.945 7.353 14.365 2.534 23.815 7.479 23.815 20.155 0 11.283-10.225 20.158-26.144 20.158-14.112 0-23.69-7.1-26.924-18.89M1134.872 290.92v-32.96h-11.132v-13.313h11.132v-16.48h15.532v16.48h16.44v13.313h-16.44v30.802c0 4.691 2.2 6.723 6.084 6.723a8.753 8.573 0 0 0 5.952-2.157l6.472 10.776c-1.81 2.154-6.858 5.577-15.79 5.577-9.967 0-18.25-6.338-18.25-18.762"/></g></svg>