<svg version="1.1" id="Layer_1" xmlns="http://www.w3.org/2000/svg" x="0" y="0" viewBox="0 0 516.7 330.7" style="enable-background:new 0 0 516.7 330.7" xml:space="preserve"><style>.st0{fill:#648e55}</style><path class="st0" d="M260.4 200.7c-1.4 0-2.8.3-4 1l-38.7 22.4c-2.5 1.4-4 4.2-4 7.1v44.6c0 2.9 1.5 5.6 4 7.1l10.1 5.8c4.9 2.4 6.7 2.4 9 2.4 7.3 0 11.4-4.4 11.4-12.1v-44c0-.6-.5-1.1-1.2-1.1h-4.9c-.6 0-1.2.5-1.2 1.1v44c0 3.4-3.5 6.8-9.3 3.9l-10.5-6.2c-.4-.2-.7-.6-.7-1v-44.6c0-.4.3-.9.7-1.1l38.6-22.3c.4-.2.8-.2 1.2 0l38.6 22.3c.4.2.7.6.7 1.1v44.6c0 .4-.2.9-.6 1.1L261 299.2c-.3.2-.8.2-1.2 0l-9.9-5.9c-.3-.2-.7-.2-1 0-2.7 1.6-3.3 1.7-5.8 2.6-.6.2-1.6.6.3 1.6l13 7.7c1.2.7 2.6 1.1 4 1.1s2.8-.3 4-1.1l38.7-22.3c2.5-1.5 4-4.2 4-7.1v-44.6c0-2.9-1.5-5.6-4-7.1l-38.7-22.4c-1.1-.7-2.5-1-4-1zm10.4 31.9c-11 0-17.6 4.7-17.6 12.5 0 8.5 6.5 10.8 17.1 11.8 12.7 1.2 13.6 3.1 13.6 5.6 0 4.3-3.4 6.2-11.6 6.2-10.2 0-12.5-2.6-13.2-7.7-.1-.5-.5-1-1.1-1h-5c-.6 0-1.1.5-1.2 1.2 0 6.5 3.5 14.2 20.5 14.2 12.3 0 19.3-4.8 19.3-13.2 0-8.3-5.7-10.6-17.6-12.2-12-1.6-13.2-2.4-13.2-5.2 0-2.3 1-5.4 9.9-5.4 7.9 0 10.9 1.7 12.1 7.1.1.5.5.9 1.1.9h5c.3 0 .6-.2.8-.4.2-.2.4-.5.3-.8-.7-9.2-6.8-13.6-19.2-13.6z"/><path d="M337.9 35.2c-.4 0-.9.1-1.2.3-.8.4-1.2 1.3-1.2 2.1v62.9c0 .6-.3 1.2-.8 1.5-.5.3-1.2.3-1.7 0l-10.3-5.9c-1.5-.9-3.4-.9-4.9 0l-41 23.7c-1.5.9-2.5 2.6-2.5 4.4v47.4c0 1.8.9 3.4 2.5 4.3l41 23.7c1.5.9 3.4.9 4.9 0l41-23.7c1.5-.9 2.5-2.5 2.5-4.3V53.4c0-1.8-1-3.5-2.5-4.4l-24.4-13.7c-.6-.1-1-.1-1.4-.1zm-264 59.1c-.8 0-1.5.2-2.2.6l-41 23.7c-1.5.9-2.5 2.5-2.5 4.3l.1 63.6c0 .9.5 1.7 1.2 2.1.8.5 1.7.5 2.5 0l24.3-14c1.5-.9 2.5-2.5 2.5-4.3v-29.7c0-1.8.9-3.4 2.5-4.3l10.4-6c.7-.4 1.6-.7 2.5-.7.9 0 1.7.2 2.5.7l10.4 6c1.5.9 2.5 2.5 2.5 4.3v29.7c0 1.8 1 3.4 2.5 4.3l24.3 14c.8.5 1.7.5 2.5 0 .8-.4 1.2-1.3 1.2-2.1l.1-63.6c0-1.8-.9-3.4-2.5-4.3l-41-23.7c-.7-.4-1.4-.5-2.2-.6h-.6zm368.7.6c-.9 0-1.7.2-2.5.7l-41 23.7c-1.5.9-2.5 2.5-2.5 4.3V171c0 1.8 1 3.4 2.5 4.3l40.7 23.2c1.5.9 3.3.9 4.9.1l24.7-13.7c.8-.4 1.3-1.2 1.3-2.1 0-.9-.5-1.7-1.2-2.1L428.2 157c-.8-.4-1.3-1.3-1.3-2.2V140c0-.9.5-1.7 1.3-2.1l12.8-7.4c.8-.4 1.7-.4 2.5 0l12.8 7.4c.8.4 1.2 1.3 1.2 2.1v11.7c0 .9.5 1.7 1.2 2.1.8.4 1.7.4 2.5 0l24.6-14.3c1.5-.9 2.5-2.5 2.5-4.3v-11.4c0-1.8-.9-3.4-2.5-4.3L445 95.8c-.6-.7-1.5-.9-2.4-.9zM320 130.2c.2 0 .5.1.7.2l14.1 8.1c.4.2.7.6.7 1.1v16.3c0 .4-.3.8-.7 1.1l-14.1 8.1c-.4.2-.9.2-1.2 0l-14.1-8.1c-.4-.2-.7-.6-.7-1.1v-16.3c0-.4.3-.8.7-1.1l14.1-8.1c.1-.1.2-.2.5-.2z" style="fill:#404137"/><path class="st0" d="M442.6 136.9c-.2 0-.3 0-.5.1l-7.9 4.6c-.3.2-.5.5-.5.8v9c0 .3.2.7.5.8l7.9 4.5c.3.2.6.2.9 0l7.9-4.5c.3-.2.5-.5.5-.8v-9c0-.3-.2-.7-.5-.8L443 137c-.2-.1-.3-.1-.4-.1z"/><g><linearGradient id="SVGID_1_" gradientUnits="userSpaceOnUse" x1="193.689" y1="106.329" x2="232.757" y2="131.444"><stop offset="0" style="stop-color:#4c9842"/><stop offset="1" style="stop-color:#54a345"/></linearGradient><path d="m241.7 120.2-14.1 25.2-29.2-50.3c.4.1.9.3 1.3.5l40.8 23.6c.5.2.9.6 1.2 1z" style="fill:url(#SVGID_1_)"/><linearGradient id="SVGID_00000164491250621981375460000012959337881863026319_" gradientUnits="userSpaceOnUse" x1="234.351" y1="129.668" x2="241.482" y2="163.31"><stop offset="0" style="stop-color:#3f873f"/><stop offset="1" style="stop-color:#3f8f3b"/></linearGradient><path style="fill:url(#SVGID_00000164491250621981375460000012959337881863026319_)" d="M243 123.5v47.1c0 .4 0 .7-.1 1l-1.7-3-13.5-23.2 14.1-25.2c.7.9 1.2 2 1.2 3.3z"/><linearGradient id="SVGID_00000043458967808784274930000014522729380140733114_" gradientUnits="userSpaceOnUse" x1="161.293" y1="126.578" x2="154.316" y2="169.831"><stop offset="0" style="stop-color:#3f8e3c"/><stop offset="1" style="stop-color:#3daa2e"/></linearGradient><path style="fill:url(#SVGID_00000043458967808784274930000014522729380140733114_)" d="m168.6 145.8-16.2 27.8c-.6-.8-1-1.9-1-3v-47.1c0-1.3.5-2.5 1.3-3.4.3-.4.7-.7 1.2-.9l.1-.1 1.4 2.5 13.2 24.2z"/><linearGradient id="SVGID_00000003805079587941959290000008189690363719331728_" gradientUnits="userSpaceOnUse" x1="160.775" y1="160.014" x2="197.052" y2="182.571"><stop offset="0" style="stop-color:#3f873f"/><stop offset="1" style="stop-color:#3f873f"/></linearGradient><path style="fill:url(#SVGID_00000003805079587941959290000008189690363719331728_)" d="M197.9 199c-1.1.2-2.2 0-3.2-.6l-40.8-23.6c-.6-.3-1.1-.8-1.5-1.3l16.2-27.8 29.3 53.3z"/><linearGradient id="SVGID_00000153681070715613435920000003355290774332840106_" gradientUnits="userSpaceOnUse" x1="153.769" y1="119.461" x2="241.655" y2="174.108"><stop offset="0" style="stop-color:#6abf4b"/><stop offset="1" style="stop-color:#3f873f"/></linearGradient><path style="fill:url(#SVGID_00000153681070715613435920000003355290774332840106_)" d="M242.9 171.6c-.3 1.4-1.1 2.5-2.4 3.3l-40.8 23.6c-.6.3-1.2.5-1.8.6l-29.3-53.3-13.3-24.2-1.4-2.5 40.7-23.5c1.1-.7 2.5-.8 3.7-.5l29.2 50.3 13.5 23.2 1.9 3z"/></g></svg>