<svg xmlns="http://www.w3.org/2000/svg" width="139.805" height="69.582"><defs><clipPath id="a"><path data-name="Rectangle 119" fill="none" d="M0 0h139.805v69.582H0z"/></clipPath></defs><g data-name="Group 400"><g data-name="Group 399" clip-path="url(#a)"><path data-name="Path 291" d="m62.938 35.415-2.889 5.893c-.144.293-.305.579-.43.879-.11.264-.219.269-.456.121a31.218 31.218 0 0 1-2.9-2.024 25.031 25.031 0 0 1-2.259-2.123 20.79 20.79 0 0 1-3.145-4.268 22.091 22.091 0 0 1-2.129-5.145 21.219 21.219 0 0 1-.6-2.965 28.309 28.309 0 0 1-.145-4.6 21 21 0 0 1 .9-5.1 21.393 21.393 0 0 1 1.886-4.479 20.3 20.3 0 0 1 2.15-3.163 24.749 24.749 0 0 1 1.769-1.988 22.922 22.922 0 0 1 5.011-3.7A22.483 22.483 0 0 1 66.855.31c.579-.094 1.16-.157 1.741-.231.072-.009.164.031.195-.079h3.574a8.587 8.587 0 0 0 1.538.223A22.711 22.711 0 0 1 92.11 15.401a22.011 22.011 0 0 1 1 4.4 22.072 22.072 0 0 1 .144 4.382 22.68 22.68 0 0 1-5.073 12.854 22.165 22.165 0 0 1-5.776 5.014c-.221.133-.457.4-.67.343s-.213-.431-.328-.657q-1.041-2.053-2.06-4.118c-.359-.727-.7-1.462-1.052-2.193 0-.044.005-.088.008-.131a14.773 14.773 0 1 0-20.709-5.678 14.292 14.292 0 0 0 5.391 5.683l-.046.111" fill="#1c2040"/><path data-name="Path 292" d="M78.302 35.298c0 .044-.005.088-.008.131a5.021 5.021 0 0 0-1.169.537 14.629 14.629 0 0 1-4.644 1.393 17.569 17.569 0 0 1-3.509.05 11.277 11.277 0 0 1-2.569-.537 14.311 14.311 0 0 1-3.276-1.416.607.607 0 0 0-.187-.041l.046-.112c.015-.037.027-.075.044-.11q3.708-7.566 7.418-15.131c.048-.1.058-.237.21-.266.038.071.078.14.112.21l4.58 9.324q1.471 2.987 2.954 5.967" fill="#4c952c"/><path data-name="Path 293" d="m139.805 69.25-9.2-.108a165.639 165.639 0 0 0 0-16.811h9.012v1.913c-.589-.039-1.189-.086-1.79-.118-1.374-.074-2.748-.14-4.122-.21-.187-.01-.337 0-.339.259-.014 1.747-.038 3.493-.057 5.24a1 1 0 0 0 .064.176l5.693-.246v1.932l-5.733-.213v6.444c.074.032.109.062.143.06q2.931-.139 5.862-.283l.476-.022z" fill="#1c2040"/><path data-name="Path 294" d="M0 52.242a13.093 13.093 0 0 0 3.123.035c.083-.014.234.132.292.237q2.008 3.647 4 7.3c.069.126.151.245.256.415.369-.614.739-1.175 1.054-1.766q1.543-2.885 3.047-5.79c.159-.306.3-.437.683-.38a8.168 8.168 0 0 0 1.452-.018c.182-.007.363-.034.63-.061-.176.274-.311.48-.441.689-1.7 2.741-3.393 5.489-5.114 8.218a3.444 3.444 0 0 0-.474 2.111c.091 1.942.141 3.885.206 5.828a.5.5 0 0 1-.018.119H5.849c.05-1.005.12-2.043.148-3.082.032-1.217.031-2.435.033-3.652a.764.764 0 0 0-.124-.366Q3.045 57.296.174 52.518a1.477 1.477 0 0 0-.174-.2v-.079" fill="#1c2040"/><path data-name="Path 295" d="M83.429 64.595c.094-.162.175-.295.249-.432l6.459-11.978a.758.758 0 0 1 .291-.343c.412-.176.612-.035.663.413q.793 6.98 1.591 13.961c.109.944.25 1.885.374 2.816h-2.752l-1.076-11.55-.114-.009c-.045.076-.092.15-.134.227-1.977 3.607-3.948 7.216-5.605 10.986a.4.4 0 0 1-.406.289c-.255.01-.34-.127-.435-.315q-2.73-5.443-5.467-10.882c-.046-.091-.1-.18-.148-.269h-.12l-1.1 11.526h-2.1a3 3 0 0 1 .018-.325c.541-3.664 1.1-7.325 1.621-10.991.258-1.82.441-3.651.669-5.476.018-.142.129-.39.193-.389.271.005.6-.182.792.22a134.946 134.946 0 0 0 1.949 3.9c1.467 2.8 2.956 5.587 4.437 8.38.037.069.083.133.148.236" fill="#1c2040"/><path data-name="Path 296" d="M23.143 69.582a10.894 10.894 0 0 1-4.7-1.048 7.624 7.624 0 0 1-4.111-4.986 10.164 10.164 0 0 1 .084-5.871 7.431 7.431 0 0 1 4.37-4.852 10.89 10.89 0 0 1 8.833.063 7.627 7.627 0 0 1 4.561 6.077 9.869 9.869 0 0 1-.438 5.238 7.885 7.885 0 0 1-6.241 5.106c-.773.158-1.572.186-2.359.274m6.391-8.846c-.119-.862-.175-1.739-.368-2.585a5.506 5.506 0 0 0-3.816-4.427 8.449 8.449 0 0 0-2.46-.327 5.6 5.6 0 0 0-5.646 4.287 11.2 11.2 0 0 0-.226 5.186c.679 3.788 3.259 5.461 6.678 5.234a5.551 5.551 0 0 0 5.215-3.851 12.428 12.428 0 0 0 .624-3.518" fill="#1c2040"/><path data-name="Path 297" d="M103.81 69.579a11.194 11.194 0 0 1-4.337-.88 7.617 7.617 0 0 1-4.388-4.889 10.071 10.071 0 0 1 .006-6.135 7.547 7.547 0 0 1 4.919-5.078 11.056 11.056 0 0 1 7.884.114 7.687 7.687 0 0 1 4.95 6.215 9.784 9.784 0 0 1-.5 5.463 7.9 7.9 0 0 1-6.211 4.926c-.761.151-1.546.18-2.32.264m-6.422-8.831a29.308 29.308 0 0 0 .558 3.146 5.506 5.506 0 0 0 5.456 4.215 5.73 5.73 0 0 0 6.351-4.411 11.182 11.182 0 0 0 .066-5.652 5.79 5.79 0 0 0-6.249-4.665 5.613 5.613 0 0 0-5.643 4.3c-.272.985-.361 2.021-.539 3.072" fill="#1c2040"/><path data-name="Path 298" d="m58.644 61.07 6.562 8.194c-.249-.013-.468-.034-.688-.035-.83 0-1.661-.018-2.49.007a.513.513 0 0 1-.5-.268 65.57 65.57 0 0 0-5.715-7.365 2.328 2.328 0 0 0-.626-.349l-.165.1c.066 2.62.132 5.241.2 7.823h-2.841a177.7 177.7 0 0 0 0-16.836c.731 0 1.426.008 2.121 0 1.136-.016 2.272-.049 3.408-.066a7.62 7.62 0 0 1 3.111.5 3.57 3.57 0 0 1 2.279 3.643 4.559 4.559 0 0 1-3.17 4.153c-.446.192-.923.314-1.474.5m-3.561-1.229c.385.023.764.063 1.144.066a5.662 5.662 0 0 0 2.905-.66 3.034 3.034 0 0 0 1.5-3.207 2.5 2.5 0 0 0-2.309-2.217 23.183 23.183 0 0 0-2.646-.072c-.4-.015-.52.139-.521.525 0 .966-.055 1.931-.069 2.9-.013.872 0 1.744 0 2.667" fill="#1c2040"/><path data-name="Path 299" d="M47.079 52.32h2.239c-.047.76-.107 1.561-.143 2.363-.086 1.89-.145 3.781-.243 5.669a29.4 29.4 0 0 1-.313 4.143 6.012 6.012 0 0 1-5.913 4.981 15.2 15.2 0 0 1-3.158-.164 5.362 5.362 0 0 1-4.658-4.913 34.465 34.465 0 0 1-.055-4.8c-.011-1.586-.029-3.173-.039-4.759-.005-.856 0-1.713 0-2.524h2.738c-.042.677-.12 1.409-.127 2.142-.031 2.975-.072 5.951-.032 8.926a6.289 6.289 0 0 0 .505 2.065 3.468 3.468 0 0 0 2.242 2.1 6.483 6.483 0 0 0 3.716.141 4.074 4.074 0 0 0 3.045-3.365 12.1 12.1 0 0 0 .315-2.512c.032-2.674 0-5.349-.016-8.023 0-.5-.067-1-.1-1.479" fill="#1c2040"/><path data-name="Path 300" d="M121.047 65.807c.689-1.7 1.41-3.393 2.058-5.11 1.012-2.683 1.979-5.384 2.949-8.083.106-.295.222-.35.536-.323.624.054 1.255.016 1.916.016a2.694 2.694 0 0 1-.1.277q-3.649 8.057-6.814 16.317c-.111.292-.248.348-.558.311a12.47 12.47 0 0 0-1.457-.015l-6.853-16.874h2.917l5.216 13.5.185-.017" fill="#1c2040"/></g></g></svg>