<svg xmlns="http://www.w3.org/2000/svg" width="59.606" height="45.559"><defs><clipPath id="a"><path data-name="Rectangle 567" fill="none" stroke="#e90050" stroke-width="2" d="M0 0h59.606v45.559H0z"/></clipPath></defs><g data-name="Group 766"><g data-name="Group 765" clip-path="url(#a)" fill="#e90050"><path data-name="Path 1113" d="M8.311 30.097h-.047a1 1 0 0 1-.778-.441L.434 19.161a1 1 0 1 1 1.66-1.115l6.3 9.387 7.25-8.682a1 1 0 1 1 1.535 1.282l-8.1 9.705a1 1 0 0 1-.768.359z"/><path data-name="Path 1114" d="M8.283 29.97a1 1 0 0 1-.972-.768 23.337 23.337 0 0 1 2.878-17.778 23.77 23.77 0 0 1 6.126-6.678 22.538 22.538 0 0 1 30.342 3.117 1 1 0 0 1-1.5 1.325 20.469 20.469 0 0 0-20.07-6.37 20.694 20.694 0 0 0-7.584 3.535 21.779 21.779 0 0 0-5.612 6.12 21.35 21.35 0 0 0-2.634 16.265 1 1 0 0 1-.973 1.233z"/><path data-name="Path 1115" d="M58.343 27.955a1 1 0 0 1-.831-.443l-6.302-9.391-7.25 8.682a1 1 0 1 1-1.535-1.282l8.1-9.705a1 1 0 0 1 1.6.084l7.047 10.5a1 1 0 0 1-.829 1.557z"/><path data-name="Path 1116" d="M29.787 45.292a22.474 22.474 0 0 1-16.838-7.6 1.001 1.001 0 0 1 1.5-1.326 20.473 20.473 0 0 0 20.072 6.368 20.715 20.715 0 0 0 7.586-3.539 21.786 21.786 0 0 0 5.613-6.122 21.347 21.347 0 0 0 2.629-16.254 1 1 0 1 1 1.945-.465 23.333 23.333 0 0 1-2.873 17.773 23.777 23.777 0 0 1-6.126 6.681 22.7 22.7 0 0 1-8.314 3.877 22.543 22.543 0 0 1-5.194.607z"/><path data-name="Path 1117" d="M29.803 28.835a6.057 6.057 0 1 1 6.058-6.058 6.06 6.06 0 0 1-6.058 6.058zm0-10.115a4.057 4.057 0 1 0 4.058 4.057 4.071 4.071 0 0 0-4.055-4.057z"/></g></g></svg>