<svg data-name="Group 768" xmlns="http://www.w3.org/2000/svg" width="48.198" height="42.81"><defs><clipPath id="a"><path data-name="Rectangle 569" fill="none" stroke="#e90050" stroke-width="2" d="M0 0h48.198v42.81H0z"/></clipPath></defs><g data-name="Group 767" clip-path="url(#a)"><path data-name="Path 1118" d="M38.156 40.797H25.103a34.045 34.045 0 0 1-8.147-.934c-1.593-.33-3.4-.7-6.052-1.084a1 1 0 0 1-.859-.99v-17.07a1 1 0 0 1 1-1 6.85 6.85 0 0 0 3.559-1.369 18.9 18.9 0 0 0 4.041-3.784 22.323 22.323 0 0 0 3.19-5.252 14.579 14.579 0 0 0 1.268-5.665 3.8 3.8 0 0 1 .951-2.585 3.208 3.208 0 0 1 2.391-1.06 3.813 3.813 0 0 1 2.73 1.235 8.1 8.1 0 0 1 1.911 3.584c.467 1.664.256 4.082-.629 7.188a41.053 41.053 0 0 1-.878 2.688h14.6a4.017 4.017 0 0 1 4.012 4.012 5.931 5.931 0 0 1-1.058 3.2 4.389 4.389 0 0 1-1.683 1.523 4.01 4.01 0 0 1-1.958 6.1 4.01 4.01 0 0 1-2.008 6.025 3.989 3.989 0 0 1 .682 2.236 2.658 2.658 0 0 1-1.408 2.509 5.435 5.435 0 0 1-2.602.493zm-26.111-3.871c2.256.344 3.872.679 5.317.979a32.418 32.418 0 0 0 7.741.893h13.053c2.012 0 2.012-.536 2.012-1.008a2.015 2.015 0 0 0-2.012-2.012 1 1 0 0 1 0-2h2.009a2.013 2.013 0 1 0 0-4.025 1 1 0 0 1 0-2h2.008a2.013 2.013 0 1 0 0-4.025 1 1 0 0 1 0-2h2.008a1.847 1.847 0 0 0 1.3-.949 3.979 3.979 0 0 0 .708-2.067 2.015 2.015 0 0 0-2.012-2.012H28.115a1 1 0 0 1-.919-1.394c.8-1.866 2.709-7.291 1.965-9.941-.696-2.479-1.86-3.361-2.716-3.361A1.467 1.467 0 0 0 25.1 3.649a16.555 16.555 0 0 1-1.427 6.447 24.35 24.35 0 0 1-3.478 5.731 20.918 20.918 0 0 1-4.477 4.186 10.016 10.016 0 0 1-3.673 1.612z" fill="#e90050"/><path data-name="Rectangle 568" d="M1.004 16.707h10.041a1 1 0 0 1 1 1v24.1a1 1 0 0 1-1 1H1.004a1 1 0 0 1-1-1v-24.1a1 1 0 0 1 1-1zm9.041 2H2.004v22.1h8.041z" fill="#e90050"/><path data-name="Path 1119" d="M7.025 36.785a1 1 0 1 0 1 1 1 1 0 0 0-1-1"/><path data-name="Path 1119 - Outline" d="M7.025 39.793a2 2 0 1 1 2-2 2.006 2.006 0 0 1-2 2z" fill="#e90050"/></g></svg>