<svg width="58" height="58" xmlns="http://www.w3.org/2000/svg"><g stroke="#E90050" stroke-width="2" fill="none" fill-rule="evenodd" stroke-linecap="round" stroke-linejoin="round"><path d="M39.691 11.463a28.37 28.37 0 0 0-7.063-2.423V1.183H25.37V9.04a28.387 28.387 0 0 0-7.064 2.423L12.75 5.912l-6.842 6.841 5.555 5.554a28.594 28.594 0 0 0-2.429 7.065h-7.85v7.256h7.852a28.594 28.594 0 0 0 2.429 7.065L5.908 45.25l6.842 6.84 5.557-5.556a28.448 28.448 0 0 0 7.068 2.43v7.853h7.253v-7.853a28.448 28.448 0 0 0 7.063-2.429l5.559 5.555 6.84-6.84-5.555-5.556a28.594 28.594 0 0 0 2.43-7.066h7.852V25.37h-7.853c-.292-1.213-.69-2.784-1.187-4.245"/><path d="M52.03 6.18 29.001 35.042l-7.774-8.57"/></g></svg>