<svg width="63" height="53" xmlns="http://www.w3.org/2000/svg"><g stroke="#E90050" fill="none" fill-rule="evenodd"><g stroke-linejoin="round" stroke-width="2"><path d="M51.16 29.23c3.24 0 5.87 2.63 5.87 5.87s-2.63 5.87-5.87 5.87-5.87-2.63-5.87-5.87 2.63-5.87 5.87-5.87zM61.61 51.42H40.72c0-5.77 4.68-10.45 10.45-10.45s10.45 4.68 10.45 10.45h-.01z"/></g><g stroke-linejoin="round" stroke-width="2"><path d="M11.77 29.23c3.24 0 5.87 2.63 5.87 5.87s-2.63 5.87-5.87 5.87S5.9 38.34 5.9 35.1s2.63-5.87 5.87-5.87zM22.22 51.42H1.33c0-5.77 4.68-10.45 10.45-10.45s10.45 4.68 10.45 10.45h-.01z"/></g><g stroke-linejoin="round" stroke-width="2"><path d="M32.66 1.37c3.24 0 5.87 2.63 5.87 5.87s-2.63 5.87-5.87 5.87-5.87-2.63-5.87-5.87 2.63-5.87 5.87-5.87zM43.11 23.55H22.22c0-5.77 4.68-10.44 10.45-10.44s10.44 4.68 10.44 10.44z"/></g><path d="M24.4 40.19h16.25M32.83 28.42l-.33 9.74" stroke-width="2.5" stroke-linecap="round" stroke-dasharray="0"/></g></svg>