<svg width="58" height="61" xmlns="http://www.w3.org/2000/svg"><path d="M45.573 29.154c0-9.177-7.342-16.641-16.519-16.641s-16.641 7.464-16.641 16.519c0 7.586 5.139 14.194 12.48 16.03v3.303h8.321v-3.304c7.22-1.835 12.359-8.443 12.359-15.907zM30.4 59.5h-2.814H30.4zm2.692-5.506h-8.198 8.198zM28.932 1.5v5.506V1.5zm27.654 27.654h-5.507 5.507zm-55.186 0h5.506H1.4zM7.518 7.618l5.874 5.874-5.874-5.874zm42.95 0-5.874 5.874 5.874-5.874z" stroke="#E90050" stroke-width="2" fill="none" fill-rule="evenodd" stroke-linejoin="round"/></svg>