<svg data-name="Group 859" xmlns="http://www.w3.org/2000/svg" width="116.834" height="116.679"><defs><clipPath id="a"><path data-name="Rectangle 516" fill="none" stroke="#e90050" stroke-width="4" d="M0 0h116.834v116.679H0z"/></clipPath></defs><g data-name="Group 858" clip-path="url(#a)" fill="none" stroke="#e90050" stroke-linejoin="round" stroke-width="4"><path data-name="Line 198" d="M33.469 116.679V98.947"/><path data-name="Line 199" d="M33.469 17.732V0"/><path data-name="Line 200" d="M57.83 116.679V98.947"/><path data-name="Line 201" d="M57.83 17.732V0"/><path data-name="Line 202" d="M17.733 57.924H.001"/><path data-name="Line 203" d="M116.834 57.924H99.102"/><path data-name="Path 618" d="M87.51 76.487a10.644 10.644 0 0 1-10.619 10.615H39.746a10.647 10.647 0 0 1-10.613-10.615V39.34a10.649 10.649 0 0 1 10.613-10.615h37.145A10.646 10.646 0 0 1 87.506 39.34z"/><path data-name="Path 619" d="M98.746 92.952a5.4 5.4 0 0 1-5.391 5.391h-70.07a5.408 5.408 0 0 1-5.391-5.391V22.879a5.408 5.408 0 0 1 5.391-5.391H93.36a5.4 5.4 0 0 1 5.391 5.391z"/><path data-name="Line 204" d="M0 33.358h17.732"/><path data-name="Line 205" d="M99.101 33.358h17.732"/><path data-name="Line 206" d="M82.886 116.679V98.947"/><path data-name="Line 207" d="M82.886 17.732V0"/><path data-name="Line 208" d="M116.834 82.49H99.102"/><path data-name="Line 209" d="M17.733 82.49H.001"/></g></svg>