<svg width="71" height="70" xmlns="http://www.w3.org/2000/svg"><g stroke="#E90050" stroke-width="2" fill="none" fill-rule="evenodd" stroke-linejoin="round"><path d="M49.37 68.81 29.68 29.44l39.37 19.69-15.75 3.94-3.93 15.75z"/><path d="M34.2 57.13c-1.49.24-3 .36-4.51.36-15.48 0-28.03-12.56-28.03-28.05 0-15.48 12.56-28.03 28.05-28.03 15.48 0 28.03 12.56 28.03 28.05 0 1.54-.13 3.08-.38 4.6"/><path d="M29.68 45.67c-8.97 0-16.24-7.27-16.24-16.24 0-8.97 7.27-16.24 16.24-16.24 8.97 0 16.24 7.27 16.24 16.24"/></g></svg>