<svg width="43" height="58" xmlns="http://www.w3.org/2000/svg"><g stroke="#E90050" stroke-width="2" fill="none" fill-rule="evenodd"><rect x="6.851" y="6.015" width="27.254" height="24.746" rx="7" transform="translate(1 20.224)"/><g transform="translate(18.552 32.761)"><path d="M2.925 6.269v6.268" stroke-linecap="round" stroke-linejoin="round"/><circle cx="2.925" cy="2.925" r="2.925"/></g><path d="M7.687 20.224V14.79C7.687 7.174 13.86 1 21.477 1 29.095 1 35.27 7.174 35.27 14.791v5.433h3.35a2.5 2.5 0 0 1 2.5 2.5V54.5a2.5 2.5 0 0 1-2.5 2.5H4.336a2.5 2.5 0 0 1-2.5-2.5V22.724a2.5 2.5 0 0 1 2.5-2.5h3.35z" stroke-linejoin="round"/><path d="M6.85 20.224h29.254" stroke-linecap="square"/></g></svg>