<svg width="59" height="60" xmlns="http://www.w3.org/2000/svg"><g stroke="#E90050" stroke-width="2" fill="none" fill-rule="evenodd" stroke-linejoin="round"><path d="M24.28 37.36s-3.67-1.22-3.67-7.34c-2.02 0-2.02-4.89 0-4.89 0-.82-3.67-9.79 2.45-8.57 1.22-4.89 14.68-4.89 15.91 0 .85 3.4-1.22 7.96-1.22 8.57 2.02 0 2.02 4.89 0 4.89 0 6.12-3.67 7.34-3.67 7.34v6.12c6.06 2.28 12.06 4.15 15.14 6.3 10.92-11.06 10.79-28.88-.27-39.8C37.89-.94 20.07-.81 9.15 10.25c-10.82 10.97-10.81 28.6.03 39.56 3.25-2.25 9.67-4.27 15.11-6.33v-6.12h-.01z"/><path d="M9.16 49.81c10.92 11.05 28.73 11.15 39.78.23.09-.08.17-.17.25-.25"/></g></svg>