<svg width="56" height="56" xmlns="http://www.w3.org/2000/svg" xmlns:xlink="http://www.w3.org/1999/xlink"><defs><path id="a" d="M0 0h56v56H0z"/><path id="c" d="M0 0h56v56H0z"/><path id="e" d="M0 0h56v56H0z"/></defs><g fill="none" fill-rule="evenodd"><mask id="b" fill="#fff"><use xlink:href="#a"/></mask><g mask="url(#b)" stroke="#E90050" stroke-linecap="round" stroke-linejoin="round" stroke-width="2"><path d="m37.633 52.924-8.232 2.358 2.358-8.232L49.396 29.4l5.88 5.88z"/></g><path d="m44.692 34.104 5.88 5.88" stroke="#E90050" stroke-width="2" stroke-linejoin="round"/><mask id="d" fill="#fff"><use xlink:href="#c"/></mask><g mask="url(#d)" stroke="#E90050" stroke-linecap="round" stroke-linejoin="round" stroke-width="2"><path d="m31.753 47.044 5.88 5.88"/></g><path stroke="#E90050" stroke-width="2" stroke-linecap="round" stroke-linejoin="round" d="M8.232 17.641h11.76v7.056H8.232zM8.232 29.401h11.76v7.056H8.232zM8.232 41.161h11.76v7.056H8.232z"/><g><mask id="f" fill="#fff"><use xlink:href="#e"/></mask><g mask="url(#f)" stroke="#E90050" stroke-linecap="round" stroke-linejoin="round" stroke-width="2"><path d="M23.521 55.275H1.176V1.176h25.873l14.114 14.113v15.288"/><path d="M27.05 1.176v14.113h14.113"/></g></g><path stroke="#E90050" stroke-width="2" stroke-linecap="round" stroke-linejoin="round" d="M19.993 19.993h7.056v23.522h-7.056M27.05 30.947h5.88"/></g></svg>