<svg width="70" height="58" xmlns="http://www.w3.org/2000/svg"><g transform="translate(0 1)" stroke="#E90050" stroke-width="2" fill="none" fill-rule="evenodd" stroke-linejoin="round"><path d="m69.22 30.14-6.88-7.67-5.44 8.76M.92 31.14l7.76 6.78 4.34-9.36"/><path d="M62.52 23.41c2.68 14.16-7.3 28.03-20.9 31.25a27.289 27.289 0 0 1-25.47-7.14M8.06 36.06c-4.22-15.68 6.33-31.07 21-34.53a27.28 27.28 0 0 1 26.73 8.48"/><circle cx="34.31" cy="18.33" r="7.95"/><path d="M48.45 40.42H20.16c0-7.81 6.33-14.14 14.14-14.14 7.81 0 14.14 6.33 14.14 14.14h.01z"/></g></svg>