<svg xmlns="http://www.w3.org/2000/svg" width="55" height="74"><defs><clipPath id="a"><path data-name="Rectangle 116" fill="none" stroke="#ea0050" stroke-width="2" d="M.427-.098h55v74h-55z"/></clipPath></defs><g data-name="Group 721"><g data-name="Group 390" transform="translate(-.427 .099)" clip-path="url(#a)" fill="none" stroke="#ea0050" stroke-width="2"><path data-name="Path 277" d="M23.094 48.044v4.3l-9.238 2.238a4.45 4.45 0 0 0-3.079 3.923v1.539" stroke-linejoin="round"/><path data-name="Path 278" d="M32.332 48.044v4.3l9.238 2.232a4.321 4.321 0 0 1 3.079 3.923v1.545" stroke-linejoin="round"/><path data-name="Path 279" d="M36.952 39.325c0 5.564-4.139 10.075-9.238 10.075s-9.238-4.511-9.238-10.075 4.135-10.07 9.238-10.07 9.238 4.509 9.238 10.07z" stroke-linejoin="round"/><path data-name="Path 280" d="M36.819 37.603c-1.54 1.54-5.906 1.42-7.566-1.669-3.079 3.079-8.083 3.079-10.574 1.321" stroke-linejoin="round"/><path data-name="Path 281" d="M35.412 13.856h18.475v58.506H1.54V13.856h18.476" stroke-linejoin="round"/><path data-name="Path 282" d="M35.415 23.094h-15.4V9.239a7.7 7.7 0 1 1 15.4 0z" stroke-linejoin="round"/><path data-name="Line 43" stroke-linejoin="round" d="M1.54 60.045h52.347"/><path data-name="Path 284" d="M33.872 66.204h12.317"/><circle data-name="Ellipse 58" cx="1.54" cy="1.54" r="1.54" transform="translate(26.174 7.683)" stroke-linejoin="round"/></g></g></svg>