<svg width="81" height="57" xmlns="http://www.w3.org/2000/svg"><g transform="translate(1 1)" stroke="#E90050" stroke-width="2" fill="none" fill-rule="evenodd"><path d="M21.503 45H9a9 9 0 0 1 0-18c1.055 0 2.068-.045 3.008-.02-.005-.16-.008-.32-.008-.48C12 19.044 18.044 13 25.5 13c1.912 0 3.732.398 5.38 1.115C33.393 5.94 41.003 0 50 0c11.046 0 20 8.954 20 20 0 2.47-.448 4.837-1.267 7.021.414-.015.837-.021 1.267-.021a9 9 0 0 1 0 18c-.129 0-7.257 0-7.384-.002"/><path stroke-linecap="round" stroke-linejoin="round" d="M49.29 35 38.572 45 35 41.428"/><circle stroke-linejoin="round" cx="42" cy="40" r="15"/></g></svg>