<svg xmlns="http://www.w3.org/2000/svg" width="62.28" height="52.054"><g data-name="Group 710" stroke="#e90050" stroke-linecap="round"><g data-name="Group 433" fill="#f4f4f4" stroke-linejoin="round" stroke-width="2"><path data-name="Path 330" d="M50.831 28.868a5.869 5.869 0 1 1-5.87 5.87 5.87 5.87 0 0 1 5.87-5.87z"/><path data-name="Path 331" d="M61.28 51.054H40.386a10.447 10.447 0 0 1 20.894 0z"/></g><g data-name="Group 432" fill="#f4f4f4" stroke-linejoin="round" stroke-width="2"><path data-name="Path 332" d="M11.445 28.868a5.869 5.869 0 1 1-5.87 5.87 5.87 5.87 0 0 1 5.87-5.87z"/><path data-name="Path 333" d="M21.894 51.054H1a10.447 10.447 0 0 1 20.894 0z"/></g><g data-name="Group 431" fill="#f4f4f4" stroke-linejoin="round" stroke-width="2"><path data-name="Path 334" d="M32.338 1a5.869 5.869 0 1 1-5.87 5.87A5.87 5.87 0 0 1 32.338 1z"/><path data-name="Path 335" d="M42.787 23.186H21.893a10.447 10.447 0 0 1 20.894 0z"/></g><path data-name="Line 46" fill="none" stroke-width="2.5" stroke-dasharray="0 5" d="M24.073 39.825h16.255"/><path data-name="Line 47" fill="none" stroke-width="2.5" stroke-dasharray="0 5" d="m32.507 28.056-.333 9.739"/></g></svg>