<svg width="55" height="73" xmlns="http://www.w3.org/2000/svg"><g transform="translate(1 1)" stroke="#E90050" stroke-width="2" fill="none" fill-rule="evenodd" stroke-linejoin="round"><path d="M21.68 46.64v4.3l-9.24 2.24a4.46 4.46 0 0 0-3.08 3.92v1.54M30.92 46.64v4.3l9.24 2.23c1.75.52 2.99 2.1 3.08 3.92v1.54"/><path d="M35.54 37.92C35.54 43.48 31.4 48 26.3 48c-5.1 0-9.24-4.51-9.24-10.08s4.14-10.07 9.24-10.07c5.1 0 9.24 4.51 9.24 10.07z"/><path d="M35.4 36.2c-1.54 1.54-5.91 1.42-7.57-1.67-3.08 3.08-8.08 3.08-10.57 1.32"/><path d="M34 12.45h18.47v58.51H.13V12.45h18.48"/><path d="M34 21.69H18.6V7.83c0-4.25 3.45-7.7 7.7-7.7S34 3.58 34 7.83v13.86zM.13 58.64h52.34M32.46 64.8h12.32"/><circle cx="26.3" cy="7.82" r="1.54"/></g></svg>