<svg width="60" height="59" xmlns="http://www.w3.org/2000/svg"><g stroke="#E90050" stroke-width="2" fill="none" fill-rule="evenodd" stroke-linejoin="round"><path d="m40.52 48.4 5.69 5.69 7.01-7.01-5.69-5.69c1.14-2.29 1.98-4.73 2.49-7.24h8.04v-7.43h-8.04c-.51-2.51-1.34-4.94-2.48-7.24l5.69-5.68-7.01-7.01-5.69 5.69A28.903 28.903 0 0 0 33.3 10V1.95h-7.43V10c-2.51.51-4.94 1.34-7.24 2.48l-5.69-5.69-7.01 7.01 5.69 5.69a29.265 29.265 0 0 0-2.49 7.24H1.09v7.43h8.04c.51 2.51 1.35 4.94 2.49 7.24l-5.69 5.69 7.01 7.01 5.69-5.69M25.85 51.5h7.43M25.85 56.45h7.43M29.57 56.45v2.48"/><path d="M44.11 30.55c0-7.58-6.51-13.73-14.54-13.73s-14.54 6.15-14.54 13.73c0 6.25 4.76 11.53 10.82 13.18v2.81h7.43v-2.81c6.06-1.65 10.82-6.93 10.82-13.18h.01z"/></g></svg>