<svg width="81" height="57" xmlns="http://www.w3.org/2000/svg"><g stroke="#E90050" stroke-width="2" fill="none" fill-rule="evenodd"><path d="M22.503 46H10a9 9 0 0 1 0-18c1.055 0 2.068-.045 3.008-.02-.005-.16-.008-.32-.008-.48C13 20.044 19.044 14 26.5 14c1.912 0 3.732.398 5.38 1.115C34.393 6.94 42.003 1 51 1c11.046 0 20 8.954 20 20 0 2.47-.448 4.837-1.267 7.021.414-.015.837-.021 1.267-.021a9 9 0 0 1 0 18c-.129 0-7.257 0-7.384-.002"/><path d="M33.696 45.502a16.068 16.068 0 0 1-1.32-3.881H28v-4.136h4.375c.273-1.349.72-2.65 1.325-3.878l-3.066-3.066 3.815-3.907 3.096 3.096a16.066 16.066 0 0 1 3.94-1.35V24h4.043v4.38c1.366.273 2.688.73 3.935 1.35l3.096-3.096 3.815 3.815-3.068 3.149a16.068 16.068 0 0 1 1.32 3.881h4.376v4.136h-4.375a15.922 15.922 0 0 1-1.325 3.878l3.066 3.066-3.815 3.907-3.096-3.096a16.066 16.066 0 0 1-3.94 1.35v4.38h-4.043v-4.38a15.728 15.728 0 0 1-3.934-1.35l-3.097 3.096-3.815-3.815 3.068-3.149z" stroke-linejoin="round"/></g></svg>