<svg xmlns="http://www.w3.org/2000/svg" width="116.834" height="116.679"><g data-name="Group 1276"><path data-name="Line 198" fill="none" stroke="#e90050" stroke-linejoin="round" stroke-width="4" d="M33.469 116.679V98.947"/><path data-name="Line 199" fill="none" stroke="#e90050" stroke-linejoin="round" stroke-width="4" d="M33.469 17.732V0"/><path data-name="Line 200" fill="none" stroke="#e90050" stroke-linejoin="round" stroke-width="4" d="M57.83 116.679V98.947"/><path data-name="Line 201" fill="none" stroke="#e90050" stroke-linejoin="round" stroke-width="4" d="M57.83 17.732V0"/><path data-name="Line 202" fill="none" stroke="#e90050" stroke-linejoin="round" stroke-width="4" d="M17.733 57.924H.001"/><path data-name="Line 203" fill="none" stroke="#e90050" stroke-linejoin="round" stroke-width="4" d="M116.834 57.924H99.102"/><path data-name="Path 618" d="M87.51 76.487a10.644 10.644 0 0 1-10.619 10.615H39.746a10.647 10.647 0 0 1-10.613-10.615V39.34a10.649 10.649 0 0 1 10.613-10.615h37.145A10.646 10.646 0 0 1 87.506 39.34z" fill="none" stroke="#e90050" stroke-linejoin="round" stroke-width="4"/><path data-name="Path 619" d="M98.746 92.953a5.4 5.4 0 0 1-5.391 5.391h-70.07a5.408 5.408 0 0 1-5.391-5.391V22.88a5.408 5.408 0 0 1 5.391-5.391H93.36a5.4 5.4 0 0 1 5.391 5.391z" fill="none" stroke="#e90050" stroke-linejoin="round" stroke-width="4"/><path data-name="Line 204" fill="none" stroke="#e90050" stroke-linejoin="round" stroke-width="4" d="M0 33.358h17.732"/><path data-name="Line 205" fill="none" stroke="#e90050" stroke-linejoin="round" stroke-width="4" d="M99.101 33.358h17.732"/><path data-name="Line 206" fill="none" stroke="#e90050" stroke-linejoin="round" stroke-width="4" d="M82.886 116.679V98.947"/><path data-name="Line 207" fill="none" stroke="#e90050" stroke-linejoin="round" stroke-width="4" d="M82.886 17.732V0"/><path data-name="Line 208" fill="none" stroke="#e90050" stroke-linejoin="round" stroke-width="4" d="M116.834 82.49H99.102"/><path data-name="Line 209" fill="none" stroke="#e90050" stroke-linejoin="round" stroke-width="4" d="M17.733 82.49H.001"/><g data-name="Group 1247"><g data-name="Group 1224"><path data-name="Path 1045" d="M55.624 50.871a2.789 2.789 0 0 1 2.774-2.76 2.768 2.768 0 0 1 2.774 2.76v11.042l8.176 2.758c1.831.587 2.434 2.737 2 4.6l-1.852 10.125H54.699l-7.4-11.041c-.841-1.274-.925-3.68.925-3.68s3.7.771 7.4 6.441z" fill="none" stroke="#e90050" stroke-linejoin="round" stroke-width="4"/></g><g data-name="Group 1225"><path data-name="Path 1046" d="M72.253 50.524h-5.535m1.843-9.455-3.688 3.78m-5.534-7.563v5.674m-11.067-1.891 3.689 3.78m-7.379 5.674h5.535" fill="none" stroke="#e90050" stroke-linecap="round" stroke-linejoin="round" stroke-width="4"/></g></g></g></svg>