<svg xmlns="http://www.w3.org/2000/svg" width="47.432" height="47.432"><defs><clipPath id="a"><path data-name="Rectangle 193" fill="none" stroke="#e90050" stroke-width="2" d="M0 0h47.432v47.432H0z"/></clipPath></defs><g data-name="Group 604"><g data-name="Group 596" clip-path="url(#a)" fill="none" stroke="#e90050" stroke-linejoin="round" stroke-width="2"><path data-name="Path 452" d="M19.357 29.243s-2.9-.968-2.9-5.807c-1.6 0-1.6-3.871 0-3.871 0-.648-2.9-7.743 1.936-6.775.968-3.871 11.614-3.871 12.582 0 .672 2.687-.968 6.3-.968 6.775 1.6 0 1.6 3.871 0 3.871 0 4.839-2.9 5.807-2.9 5.807v4.839c4.795 1.8 9.543 3.285 11.974 4.984a22.259 22.259 0 1 0-31.669.023c2.574-1.781 7.65-3.38 11.953-5.008z"/><path data-name="Path 453" d="M7.404 39.091a22.25 22.25 0 0 0 31.667-.023"/></g></g></svg>