<svg width="180" height="180" xmlns="http://www.w3.org/2000/svg"><g fill="#FFF" fill-rule="nonzero"><path d="M103.037 89.986c0-7.404-6.005-13.41-13.41-13.41-7.407 0-13.411 6.006-13.411 13.41 0 7.407 6.004 13.411 13.411 13.411 7.405 0 13.41-6.004 13.41-13.411"/><path d="M89.522 141.478v-19c17.927 0 32.512-14.535 32.512-32.401 0-17.865-14.534-32.4-32.4-32.4s-32.402 14.535-32.402 32.4v32.437h-19V90.077c0-28.342 23.059-51.4 51.402-51.4 28.342 0 51.4 23.058 51.4 51.4 0 28.343-23.108 51.401-51.512 51.401"/><path d="M19 90.027H0C0 40.699 40.16.568 89.522.568v19C50.636 19.568 19 51.176 19 90.027M89.522 179.613v-19c38.887 0 70.523-31.671 70.523-70.601h19c0 49.407-40.16 89.601-89.523 89.601"/></g></svg>