<svg xmlns="http://www.w3.org/2000/svg" width="123.662" height="138.844"><g data-name="Group 1206" opacity=".196" fill="#fff"><path data-name="Path 190" d="M71.167 70.495a9.332 9.332 0 1 1-8.125-10.399 9.332 9.332 0 0 1 8.125 10.399"/><path data-name="Path 189" d="M97.404 73.781a35.767 35.767 0 0 0-71.002-8.718l-2.752 22.41 13.123 1.612 2.752-22.41a22.546 22.546 0 1 1 19.553 25.117l-1.611 13.122a35.846 35.846 0 0 0 39.937-31.133"/><path data-name="Path 188" d="m67.804 20.714 1.612-13.122A62.343 62.343 0 0 0 0 61.786l13.122 1.611a49.107 49.107 0 0 1 54.682-42.683"/><path data-name="Path 191" d="m123.661 76.96-13.122-1.612a49.156 49.156 0 0 1-54.695 42.782l-1.61 13.122A62.393 62.393 0 0 0 123.66 76.96"/></g></svg>