<svg xmlns="http://www.w3.org/2000/svg" width="696.748" height="696.748"><g data-name="Group 798" opacity=".983" fill="#f4f4f4"><path data-name="Path 190" d="M400.965 347.967a52.187 52.187 0 1 1-52.189-52.185 52.186 52.186 0 0 1 52.185 52.185"/><path data-name="Path 189" d="M548.83 348.322c0-110.292-89.729-200.018-200.017-200.018s-200.03 89.726-200.03 200.018v126.266h73.938V348.322a126.085 126.085 0 0 1 252.171 0c0 69.525-56.753 126.087-126.515 126.087v73.938c110.529 0 200.453-89.729 200.453-200.025"/><path data-name="Path 188" d="M348.372 73.938V0C156.281 0 0 156.168 0 348.127h73.938c0-151.187 123.11-274.189 274.434-274.189"/><path data-name="Path 191" d="M696.748 348.068H622.81c0 151.495-123.11 274.741-274.434 274.741v73.938c192.091 0 348.372-156.418 348.372-348.679"/></g></svg>