<svg xmlns="http://www.w3.org/2000/svg" width="45" height="45"><defs><clipPath id="a"><path data-name="Rectangle 566" fill="none" stroke="#e90050" stroke-width="2" d="M0-.439h45v45H0z"/></clipPath></defs><g data-name="Group 764"><g data-name="Group 763" transform="translate(0 .439)" clip-path="url(#a)"><path data-name="Path 1112" d="M44.075 44.621H.938a1 1 0 0 1-1-1 19.9 19.9 0 0 1 1.981-8.056c1.387-2.777 6.1-4.509 12.617-6.906q1.113-.409 2.282-.843V23.37a8.048 8.048 0 0 1-2.791-5.5 3.438 3.438 0 0 1-.955-1.82 5.227 5.227 0 0 1-.041-2.306 3.148 3.148 0 0 1 .843-1.584l-.083-.275a24.415 24.415 0 0 1-.912-3.839 5.922 5.922 0 0 1 .733-4.412 3.586 3.586 0 0 1 2.587-1.4 5.048 5.048 0 0 1 2.722-2 14.822 14.822 0 0 1 4.874-.749 15.521 15.521 0 0 1 5.62.966c1.959.787 3.152 1.991 3.45 3.482.532 2.665-.81 6.049-1.532 7.867l-.157.4a3.168 3.168 0 0 1 .805 1.547 5.227 5.227 0 0 1-.041 2.306 3.438 3.438 0 0 1-.955 1.82 8.048 8.048 0 0 1-2.791 5.5v4.446q1.165.434 2.279.841c6.52 2.4 11.231 4.13 12.62 6.907a19.9 19.9 0 0 1 1.981 8.056 1 1 0 0 1-.999.998zm-42.077-2h41.015a18.085 18.085 0 0 0-1.708-6.162c-1.034-2.069-5.894-3.856-11.521-5.925q-1.424-.524-2.94-1.088a1 1 0 0 1-.649-.936v-5.625a.981.981 0 0 1 .443-.83 5.714 5.714 0 0 0 1.207-1.235 5.909 5.909 0 0 0 1.163-3.561 1 1 0 0 1 .715-.959 3.272 3.272 0 0 0 .335-1.965 1.083 1.083 0 0 0-.5-.871 1 1 0 0 1-.553-.894 4.607 4.607 0 0 1 .466-1.507c.645-1.626 1.845-4.652 1.429-6.737-.2-1.007-1.326-1.653-2.234-2.018a13.5 13.5 0 0 0-4.871-.823c-3.416 0-5.705.991-5.945 1.948a1 1 0 0 1-.97.757c-1.191 0-1.545.478-1.662.634a4.279 4.279 0 0 0-.356 2.961 22.736 22.736 0 0 0 .843 3.52 4.926 4.926 0 0 1 .3 1.265 1 1 0 0 1-.553.894 1.083 1.083 0 0 0-.5.871 3.272 3.272 0 0 0 .335 1.965 1 1 0 0 1 .715.959 6.011 6.011 0 0 0 2.368 4.795 1 1 0 0 1 .445.832v5.627a1 1 0 0 1-.649.936q-1.515.568-2.943 1.089C9.6 32.604 4.738 34.391 3.708 36.459a18.013 18.013 0 0 0-1.709 6.162z" fill="#e90050"/></g></g></svg>