<svg xmlns="http://www.w3.org/2000/svg" width="99" height="99"><defs><clipPath id="a"><path data-name="Rectangle 554" fill="none" stroke="#e90050" stroke-width="2" d="M0 0h99v99H0z"/></clipPath></defs><g data-name="Group 745"><g data-name="Group 744" clip-path="url(#a)" fill="#e90050"><path data-name="Rectangle 552" d="M19.997 17.914h59.785a2 2 0 0 1 2 2v59.785a2 2 0 0 1-2 2H19.997a2 2 0 0 1-2-2V19.914a2 2 0 0 1 2-2zm59.785 61.785V19.914H19.997v59.785z"/><path data-name="Line 194" d="M47.83 19.914a1 1 0 0 1-1-1V2.438a1 1 0 0 1 1-1 1 1 0 0 1 1 1v16.476a1 1 0 0 1-1 1z"/><path data-name="Line 195" d="M31.354 19.914a1 1 0 0 1-1-1V2.438a1 1 0 0 1 1-1 1 1 0 0 1 1 1v16.476a1 1 0 0 1-1 1z"/><path data-name="Line 196" d="M68.425 19.914a1 1 0 0 1-1-1V2.438a1 1 0 0 1 1-1 1 1 0 0 1 1 1v16.476a1 1 0 0 1-1 1z"/><path data-name="Line 197" d="M18.997 52.866H2.521a1 1 0 0 1-1-1 1 1 0 0 1 1-1h16.476a1 1 0 0 1 1 1 1 1 0 0 1-1 1z"/><path data-name="Line 198" d="M18.997 69.342H2.521a1 1 0 0 1-1-1 1 1 0 0 1 1-1h16.476a1 1 0 0 1 1 1 1 1 0 0 1-1 1z"/><path data-name="Line 199" d="M18.997 32.271H2.521a1 1 0 0 1-1-1 1 1 0 0 1 1-1h16.476a1 1 0 0 1 1 1 1 1 0 0 1-1 1z"/><path data-name="Line 200" d="M51.949 98.175a1 1 0 0 1-1-1V80.699a1 1 0 0 1 1-1 1 1 0 0 1 1 1v16.476a1 1 0 0 1-1 1z"/><path data-name="Line 201" d="M68.425 98.175a1 1 0 0 1-1-1V80.699a1 1 0 0 1 1-1 1 1 0 0 1 1 1v16.476a1 1 0 0 1-1 1z"/><path data-name="Line 202" d="M31.354 98.175a1 1 0 0 1-1-1V80.699a1 1 0 0 1 1-1 1 1 0 0 1 1 1v16.476a1 1 0 0 1-1 1z"/><path data-name="Line 203" d="M97.258 48.747H80.782a1 1 0 0 1-1-1 1 1 0 0 1 1-1h16.476a1 1 0 0 1 1 1 1 1 0 0 1-1 1z"/><path data-name="Line 204" d="M97.258 32.271H80.782a1 1 0 0 1-1-1 1 1 0 0 1 1-1h16.476a1 1 0 0 1 1 1 1 1 0 0 1-1 1z"/><path data-name="Line 205" d="M97.258 69.342H80.782a1 1 0 0 1-1-1 1 1 0 0 1 1-1h16.476a1 1 0 0 1 1 1 1 1 0 0 1-1 1z"/><path data-name="Rectangle 553" d="M29.235 26.152h41.309a3 3 0 0 1 3 3v41.309a3 3 0 0 1-3 3H29.235a3 3 0 0 1-3-3V29.152a3 3 0 0 1 3-3zm41.309 45.309a1 1 0 0 0 1-1V29.152a1 1 0 0 0-1-1H29.235a1 1 0 0 0-1 1v41.309a1 1 0 0 0 1 1z"/><path data-name="Line 206" d="M56.068 40.509H39.592a1 1 0 0 1-1-1 1 1 0 0 1 1-1h16.476a1 1 0 0 1 1 1 1 1 0 0 1-1 1z"/><path data-name="Line 207" d="M47.83 48.747h-8.238a1 1 0 0 1-1-1 1 1 0 0 1 1-1h8.238a1 1 0 0 1 1 1 1 1 0 0 1-1 1z"/><path data-name="Line 208" d="M60.187 61.104h-8.238a1 1 0 0 1-1-1 1 1 0 0 1 1-1h8.238a1 1 0 0 1 1 1 1 1 0 0 1-1 1z"/></g></g></svg>