<svg data-name="Group 707" xmlns="http://www.w3.org/2000/svg" width="99.498" height="100.17"><defs><clipPath id="a"><path data-name="Rectangle 159" fill="none" stroke="#e90050" stroke-width="2" d="M0 0h99.498v100.17H0z"/></clipPath></defs><g data-name="Group 427" clip-path="url(#a)" fill="#e90050"><path data-name="Path 314" d="M23.728 99.083h-.094a1 1 0 0 1-.846-.654l-5.287-14.535-15.247 2.578a1 1 0 0 1-1.033-1.486l15.485-26.771 1.731 1L4.018 84.148l13.969-2.365a1 1 0 0 1 1.106.644l4.854 13.333 12.628-21.212 1.718 1.023-13.706 23.023a1 1 0 0 1-.859.489z"/><path data-name="Path 315" d="M75.761 99.082a1 1 0 0 1-.858-.487L61.225 75.706l1.717-1.026 12.6 21.084 4.856-13.334a1 1 0 0 1 1.106-.644l13.973 2.362-14.237-24.56 1.73-1 15.305 26.4a1 1 0 0 1-1.032 1.488l-15.251-2.583-5.291 14.531a1 1 0 0 1-.845.653.756.756 0 0 1-.095.005z"/><path data-name="Ellipse 61" d="M50.085 1.087a38.574 38.574 0 0 1 15.011 74.1A38.575 38.575 0 0 1 35.074 4.118a38.323 38.323 0 0 1 15.011-3.031zm0 75.128A36.574 36.574 0 0 0 64.321 5.96a36.574 36.574 0 0 0-28.468 67.382 36.334 36.334 0 0 0 14.232 2.873z"/><path data-name="Path 316" d="M50.085 17.782a1 1 0 0 1 .894.553l5.984 11.968h11.9a1 1 0 0 1 .707 1.707L59.556 42.029l4.012 14.042a1 1 0 0 1-1.492 1.123l-11.991-7.5-11.991 7.5a1 1 0 0 1-1.491-1.123l4.012-14.042L30.596 32.01a1 1 0 0 1 .707-1.707h11.9l5.988-11.968a1 1 0 0 1 .894-.553zm16.368 14.521H56.346a1 1 0 0 1-.894-.553l-5.367-10.732-5.366 10.732a1 1 0 0 1-.894.553H33.717l8.727 8.727a1 1 0 0 1 .254.982L39.24 54.118l10.315-6.45a1 1 0 0 1 1.06 0l10.315 6.45-3.459-12.106a1 1 0 0 1 .254-.982z"/></g></svg>