<svg data-name="Group 739" xmlns="http://www.w3.org/2000/svg" width="100" height="100"><defs><clipPath id="a"><path data-name="Rectangle 551" fill="none" stroke="#e90050" stroke-width="2" d="M0 0h100v100H0z"/></clipPath></defs><g data-name="Group 738" clip-path="url(#a)" fill="#e90050"><path data-name="Ellipse 83" d="M50.259 13.556a15.556 15.556 0 0 1 11 26.556 15.556 15.556 0 1 1-22-22 15.454 15.454 0 0 1 11-4.556zm0 29.112a13.556 13.556 0 0 0 9.586-23.141 13.556 13.556 0 1 0-19.171 19.171 13.467 13.467 0 0 0 9.585 3.97z"/><path data-name="Path 1107" d="M50.26 1.079a29.491 29.491 0 0 1 29.509 29.514c0 3.728-1.526 9.193-4.535 16.244a212.678 212.678 0 0 1-9.847 19.612c-7.063 12.647-14.221 23.51-14.293 23.618a1 1 0 0 1-1.669 0c-.071-.108-7.231-10.971-14.3-23.619a212.668 212.668 0 0 1-9.843-19.612c-3.01-7.05-4.536-12.516-4.536-16.244A29.487 29.487 0 0 1 50.26 1.079zm0 86.6c2.087-3.228 7.767-12.157 13.387-22.221 9.239-16.544 14.122-28.6 14.122-34.87a27.519 27.519 0 0 0-52.867-10.704 27.346 27.346 0 0 0-2.156 10.709c0 6.268 4.884 18.326 14.124 34.87 5.621 10.064 11.302 18.992 13.39 22.216z"/><path data-name="Path 1108" d="M50.26 98.735a208.8 208.8 0 0 1-33.99-2.45 52.407 52.407 0 0 1-10.459-2.7c-2.947-1.216-4.379-2.578-4.379-4.168 0-1.184.826-2.27 2.454-3.226a24.489 24.489 0 0 1 5.749-2.2 116.19 116.19 0 0 1 19.57-3.047 1 1 0 1 1 .17 1.993 114.259 114.259 0 0 0-19.213 2.982 22.613 22.613 0 0 0-5.263 2c-.919.539-1.467 1.1-1.467 1.5 0 .494.825 1.362 3.139 2.314a50.534 50.534 0 0 0 10.041 2.581 206.787 206.787 0 0 0 33.647 2.421 206.789 206.789 0 0 0 33.649-2.421 50.52 50.52 0 0 0 10.041-2.586c2.314-.952 3.138-1.819 3.138-2.314 0-.4-.553-.966-1.478-1.507a22.8 22.8 0 0 0-5.3-2 114.932 114.932 0 0 0-19.339-2.979 1 1 0 1 1 .168-1.993 116.863 116.863 0 0 1 19.7 3.047 24.675 24.675 0 0 1 5.785 2.206c1.638.958 2.468 2.046 2.468 3.234 0 1.59-1.432 2.952-4.378 4.163a52.394 52.394 0 0 1-10.458 2.7 208.8 208.8 0 0 1-33.995 2.45z"/></g></svg>