<?xml version="1.0" encoding="UTF-8"?><svg id="Layer_1" xmlns="http://www.w3.org/2000/svg" xmlns:xlink="http://www.w3.org/1999/xlink" viewBox="0 0 595.28 841.89"><defs><style>.cls-1,.cls-2,.cls-3,.cls-4,.cls-5,.cls-6,.cls-7,.cls-8,.cls-9,.cls-10{fill:none;}.cls-11{letter-spacing:-.02em;}.cls-2{stroke-width:.75px;}.cls-2,.cls-3,.cls-5,.cls-6,.cls-7,.cls-8,.cls-9,.cls-10{stroke:#fff;}.cls-2,.cls-5,.cls-7{stroke-linecap:round;}.cls-2,.cls-7,.cls-9{stroke-linejoin:round;}.cls-12{clip-path:url(#clippath);}.cls-13{fill:#fff;}.cls-14{fill:#e90050;}.cls-3,.cls-6{stroke-width:2px;}.cls-15{fill:#242135;font-family:ProximaNova-Light, 'Proxima Nova';font-size:8px;font-weight:300;}.cls-16{clip-path:url(#clippath-1);}.cls-17{clip-path:url(#clippath-4);}.cls-18{clip-path:url(#clippath-3);}.cls-19{clip-path:url(#clippath-2);}.cls-20{clip-path:url(#clippath-7);}.cls-21{clip-path:url(#clippath-8);}.cls-22{clip-path:url(#clippath-6);}.cls-23{clip-path:url(#clippath-5);}.cls-24{clip-path:url(#clippath-9);}.cls-4{stroke:#e90050;}.cls-4,.cls-5,.cls-7,.cls-9,.cls-10{stroke-width:.5px;}.cls-5,.cls-6,.cls-10{stroke-miterlimit:10;}.cls-25{clip-path:url(#clippath-20);}.cls-26{clip-path:url(#clippath-21);}.cls-27{clip-path:url(#clippath-24);}.cls-28{clip-path:url(#clippath-23);}.cls-29{clip-path:url(#clippath-22);}.cls-30{clip-path:url(#clippath-25);}.cls-31{clip-path:url(#clippath-44);}.cls-32{clip-path:url(#clippath-45);}.cls-33{clip-path:url(#clippath-40);}.cls-34{clip-path:url(#clippath-42);}.cls-35{clip-path:url(#clippath-41);}.cls-36{clip-path:url(#clippath-47);}.cls-37{clip-path:url(#clippath-43);}.cls-38{clip-path:url(#clippath-46);}.cls-39{clip-path:url(#clippath-27);}.cls-40{clip-path:url(#clippath-28);}.cls-41{clip-path:url(#clippath-26);}.cls-42{clip-path:url(#clippath-29);}.cls-43{clip-path:url(#clippath-34);}.cls-44{clip-path:url(#clippath-35);}.cls-45{clip-path:url(#clippath-36);}.cls-46{clip-path:url(#clippath-37);}.cls-47{clip-path:url(#clippath-39);}.cls-48{clip-path:url(#clippath-33);}.cls-49{clip-path:url(#clippath-32);}.cls-50{clip-path:url(#clippath-30);}.cls-51{clip-path:url(#clippath-38);}.cls-52{clip-path:url(#clippath-31);}.cls-53{clip-path:url(#clippath-14);}.cls-54{clip-path:url(#clippath-13);}.cls-55{clip-path:url(#clippath-12);}.cls-56{clip-path:url(#clippath-10);}.cls-57{clip-path:url(#clippath-15);}.cls-58{clip-path:url(#clippath-17);}.cls-59{clip-path:url(#clippath-16);}.cls-60{clip-path:url(#clippath-19);}.cls-61{clip-path:url(#clippath-11);}.cls-62{clip-path:url(#clippath-18);}</style><clipPath id="clippath"><rect class="cls-1" width="595.28" height="841.89"/></clipPath><clipPath id="clippath-1"><rect class="cls-1" width="595.28" height="841.89"/></clipPath><clipPath id="clippath-2"><rect class="cls-1" x="25.51" y="25.51" width="126.94" height="42.16"/></clipPath><clipPath id="clippath-3"><rect class="cls-1" width="595.28" height="841.89"/></clipPath><clipPath id="clippath-4"><rect class="cls-1" width="595.28" height="841.89"/></clipPath><clipPath id="clippath-5"><rect class="cls-1" width="595.28" height="841.89"/></clipPath><clipPath id="clippath-6"><rect class="cls-1" width="595.28" height="841.89"/></clipPath><clipPath id="clippath-7"><rect class="cls-1" width="595.28" height="841.89"/></clipPath><clipPath id="clippath-8"><rect class="cls-1" width="595.28" height="841.89"/></clipPath><clipPath id="clippath-9"><rect class="cls-1" width="595.28" height="841.89"/></clipPath><clipPath id="clippath-10"><rect class="cls-1" width="595.28" height="841.89"/></clipPath><clipPath id="clippath-11"><rect class="cls-1" width="595.28" height="841.89"/></clipPath><clipPath id="clippath-12"><rect class="cls-1" width="595.28" height="841.89"/></clipPath><clipPath id="clippath-13"><rect class="cls-1" width="595.28" height="841.89"/></clipPath><clipPath id="clippath-14"><rect class="cls-1" width="595.28" height="841.89"/></clipPath><clipPath id="clippath-15"><rect class="cls-1" width="595.28" height="841.89"/></clipPath><clipPath id="clippath-16"><rect class="cls-1" width="595.28" height="841.89"/></clipPath><clipPath id="clippath-17"><rect class="cls-1" width="595.28" height="841.89"/></clipPath><clipPath id="clippath-18"><rect class="cls-1" width="595.28" height="841.89"/></clipPath><clipPath id="clippath-19"><rect class="cls-1" width="595.28" height="841.89"/></clipPath><clipPath id="clippath-20"><rect class="cls-1" width="595.28" height="841.89"/></clipPath><clipPath id="clippath-21"><rect class="cls-1" width="595.28" height="841.89"/></clipPath><clipPath id="clippath-22"><rect class="cls-1" width="595.28" height="841.89"/></clipPath><clipPath id="clippath-23"><rect class="cls-1" width="595.28" height="841.89"/></clipPath><clipPath id="clippath-24"><rect class="cls-1" width="595.28" height="841.89"/></clipPath><clipPath id="clippath-25"><rect class="cls-1" width="595.28" height="841.89"/></clipPath><clipPath id="clippath-26"><rect class="cls-1" width="595.28" height="841.89"/></clipPath><clipPath id="clippath-27"><rect class="cls-1" width="595.28" height="841.89"/></clipPath><clipPath id="clippath-28"><rect class="cls-1" width="595.28" height="841.89"/></clipPath><clipPath id="clippath-29"><rect class="cls-1" width="595.28" height="841.89"/></clipPath><clipPath id="clippath-30"><rect class="cls-1" width="595.28" height="841.89"/></clipPath><clipPath id="clippath-31"><rect class="cls-1" width="595.28" height="841.89"/></clipPath><clipPath id="clippath-32"><rect class="cls-1" width="595.28" height="841.89"/></clipPath><clipPath id="clippath-33"><rect class="cls-1" width="595.28" height="841.89"/></clipPath><clipPath id="clippath-34"><rect class="cls-1" width="595.28" height="841.89"/></clipPath><clipPath id="clippath-35"><rect class="cls-1" width="595.28" height="841.89"/></clipPath><clipPath id="clippath-36"><rect class="cls-1" width="595.28" height="841.89"/></clipPath><clipPath id="clippath-37"><rect class="cls-1" width="595.28" height="841.89"/></clipPath><clipPath id="clippath-38"><rect class="cls-1" width="595.28" height="841.89"/></clipPath><clipPath id="clippath-39"><rect class="cls-1" width="595.28" height="841.89"/></clipPath><clipPath id="clippath-40"><rect class="cls-1" width="595.28" height="841.89"/></clipPath><clipPath id="clippath-41"><rect class="cls-1" width="595.28" height="841.89"/></clipPath><clipPath id="clippath-42"><rect class="cls-1" width="595.28" height="841.89"/></clipPath><clipPath id="clippath-43"><rect class="cls-1" width="595.28" height="841.89"/></clipPath><clipPath id="clippath-44"><rect class="cls-1" width="595.28" height="841.89"/></clipPath><clipPath id="clippath-45"><rect class="cls-1" width="595.28" height="841.89"/></clipPath><clipPath id="clippath-46"><rect class="cls-1" width="595.28" height="841.89"/></clipPath><clipPath id="clippath-47"><rect class="cls-1" width="595.28" height="841.89"/></clipPath></defs><g class="cls-12"><line class="cls-4" x1="28.35" y1="813.54" x2="510.24" y2="813.54"/><text class="cls-15" transform="translate(27.64 824.12)"><tspan x="0" y="0">Supercharge your technology value proposition</tspan></text></g><text class="cls-15" transform="translate(488.74 824.12)"><tspan class="cls-11" x="0" y="0">P</tspan><tspan x="4.41" y="0">age 1</tspan></text><rect class="cls-14" width="595.28" height="841.89"/><g class="cls-16"><rect class="cls-14" x="277.34" y="360.31" width="270.25" height="435.01" rx="12" ry="12"/><rect class="cls-6" x="277.34" y="360.31" width="270.25" height="435.01" rx="12" ry="12"/></g><g><path class="cls-13" d="m29.08,206.53c1.85,2.15,4.86,4.17,8.94,4.17,5.89,0,7.57-3.27,7.57-5.72,0-4.04-3.83-5.16-7.87-6.23-4.51-1.25-9.33-2.54-9.33-7.82,0-4.69,4.21-7.65,9.41-7.65,4.3,0,7.48,1.5,9.71,4.04l-1.63,1.81c-2.06-2.49-4.99-3.61-8.21-3.61-3.83,0-6.71,2.19-6.71,5.29,0,3.4,3.57,4.38,7.48,5.42,4.64,1.33,9.71,2.79,9.71,8.6,0,3.7-2.45,8.12-10.19,8.12-4.73,0-8.3-1.89-10.49-4.56l1.59-1.85Z"/><path class="cls-13" d="m67.98,209.37c-1.72,1.89-4.47,3.57-7.48,3.57-4.26,0-6.53-1.98-6.53-6.66v-14.61h2.23v14.1c0,4.04,2.02,5.16,5.03,5.16,2.67,0,5.37-1.59,6.75-3.44v-15.82h2.23v20.76h-2.23v-3.05Z"/><path class="cls-13" d="m77.17,220.33v-28.67h2.23v3.27c1.46-2.11,4.13-3.78,7.22-3.78,5.54,0,9.28,4.21,9.28,10.87s-3.74,10.92-9.28,10.92c-2.92,0-5.54-1.5-7.22-3.87v11.26h-2.23Zm9.07-27.17c-2.88,0-5.63,1.72-6.83,3.7v10.27c1.2,1.98,3.95,3.78,6.83,3.78,4.64,0,7.26-3.87,7.26-8.9s-2.62-8.85-7.26-8.85Z"/><path class="cls-13" d="m110.48,191.15c6.32,0,9.8,5.03,9.8,11v.6h-17.37c.22,4.51,3.22,8.25,8.12,8.25,2.62,0,5.03-.99,6.79-2.88l1.16,1.46c-2.06,2.15-4.69,3.35-8.12,3.35-6.06,0-10.4-4.51-10.4-10.92,0-6.02,4.26-10.87,10.02-10.87Zm-7.57,9.84h15.09c-.04-3.52-2.36-7.91-7.56-7.91-4.9,0-7.35,4.3-7.52,7.91Z"/><path class="cls-13" d="m126.03,191.66h2.23v3.57c1.76-2.32,4.13-4,7.01-4v2.45c-.39-.09-.69-.09-1.12-.09-2.11,0-4.94,1.89-5.89,3.7v15.13h-2.23v-20.76Z"/><path class="cls-13" d="m148.55,191.15c3.61,0,5.67,1.42,7.35,3.52l-1.55,1.38c-1.5-2.06-3.4-2.88-5.67-2.88-4.86,0-7.82,3.87-7.82,8.85s2.97,8.9,7.82,8.9c2.28,0,4.17-.86,5.67-2.92l1.55,1.38c-1.68,2.15-3.74,3.57-7.35,3.57-6.1,0-10.1-4.86-10.1-10.92s4-10.87,10.1-10.87Z"/><path class="cls-13" d="m174.9,198.28c0-4-2.02-5.12-5.03-5.12-2.67,0-5.42,1.68-6.75,3.57v15.69h-2.23v-28.67h2.23v11.05c1.5-1.81,4.47-3.65,7.48-3.65,4.21,0,6.53,1.98,6.53,6.66v14.61h-2.23v-14.14Z"/><path class="cls-13" d="m197.29,209.97c-1.85,2.02-4.17,2.97-7.05,2.97-3.57,0-7.26-2.45-7.26-6.92s3.65-6.88,7.26-6.88c2.88,0,5.24.95,7.05,2.97v-4.21c0-3.09-2.49-4.77-5.59-4.77-2.58,0-4.6.9-6.49,3.05l-1.25-1.55c2.15-2.32,4.56-3.48,8-3.48,4.21,0,7.57,2.02,7.57,6.66v14.61h-2.24v-2.45Zm0-6.19c-1.46-1.89-3.78-2.88-6.28-2.88-3.44,0-5.67,2.19-5.67,5.16s2.24,5.12,5.67,5.12c2.49,0,4.81-.95,6.28-2.84v-4.56Z"/><path class="cls-13" d="m206.48,191.66h2.23v3.57c1.76-2.32,4.13-4,7.01-4v2.45c-.39-.09-.69-.09-1.12-.09-2.11,0-4.94,1.89-5.89,3.7v15.13h-2.23v-20.76Z"/><path class="cls-13" d="m221.44,215.99c1.81,2.15,3.78,2.92,6.88,2.92,3.78,0,7.09-1.89,7.09-6.66v-3.27c-1.46,2.11-4.13,3.87-7.22,3.87-5.5,0-9.28-4.17-9.28-10.83s3.78-10.87,9.28-10.87c2.97,0,5.54,1.5,7.22,3.87v-3.35h2.28v20.55c0,6.36-4.3,8.64-9.37,8.64-3.48,0-5.72-.64-8.17-3.14l1.29-1.72Zm13.97-19.04c-1.2-2.02-3.95-3.78-6.83-3.78-4.6,0-7.26,3.83-7.26,8.85s2.67,8.81,7.26,8.81c2.88,0,5.63-1.76,6.83-3.78v-10.1Z"/><path class="cls-13" d="m253.42,191.15c6.32,0,9.8,5.03,9.8,11v.6h-17.37c.22,4.51,3.22,8.25,8.12,8.25,2.62,0,5.03-.99,6.79-2.88l1.16,1.46c-2.06,2.15-4.69,3.35-8.12,3.35-6.06,0-10.4-4.51-10.4-10.92,0-6.02,4.26-10.87,10.02-10.87Zm-7.57,9.84h15.09c-.04-3.52-2.36-7.91-7.56-7.91-4.9,0-7.35,4.3-7.52,7.91Z"/><path class="cls-13" d="m280.92,218.83c1.38,0,2.32-.56,3.14-2.54l1.63-3.7-8.77-20.93h2.49l7.57,18.14,7.48-18.14h2.54l-10.75,25.32c-1.12,2.62-2.88,3.87-5.33,3.87-.69,0-1.63-.13-2.19-.3l.39-2.06c.47.22,1.29.34,1.81.34Z"/><path class="cls-13" d="m299.57,202.02c0-6.06,3.91-10.87,9.97-10.87s10.02,4.81,10.02,10.87-3.87,10.92-10.02,10.92-9.97-4.86-9.97-10.92Zm17.58,0c0-4.6-2.71-8.85-7.61-8.85s-7.56,4.26-7.56,8.85,2.75,8.9,7.56,8.9,7.61-4.26,7.61-8.9Z"/><path class="cls-13" d="m339.33,209.37c-1.72,1.89-4.47,3.57-7.48,3.57-4.26,0-6.53-1.98-6.53-6.66v-14.61h2.24v14.1c0,4.04,2.02,5.16,5.03,5.16,2.67,0,5.37-1.59,6.75-3.44v-15.82h2.24v20.76h-2.24v-3.05Z"/><path class="cls-13" d="m348.52,191.66h2.24v3.57c1.76-2.32,4.13-4,7.01-4v2.45c-.39-.09-.69-.09-1.12-.09-2.11,0-4.94,1.89-5.89,3.7v15.13h-2.24v-20.76Z"/></g><g><path class="cls-13" d="m29.42,260v-14.79h-3.44v-1.98h3.44v-5.67h2.28v5.67h4.21v1.98h-4.21v14.44c0,1.68.69,2.84,2.15,2.84.99,0,1.85-.47,2.32-.99l.86,1.72c-.82.77-1.81,1.29-3.52,1.29-2.75,0-4.08-1.68-4.08-4.51Z"/><path class="cls-13" d="m49.62,242.72c6.32,0,9.8,5.03,9.8,11v.6h-17.37c.22,4.51,3.22,8.25,8.12,8.25,2.62,0,5.03-.99,6.79-2.88l1.16,1.46c-2.06,2.15-4.69,3.35-8.12,3.35-6.06,0-10.4-4.51-10.4-10.92,0-6.02,4.26-10.87,10.02-10.87Zm-7.57,9.84h15.09c-.04-3.52-2.36-7.91-7.56-7.91-4.9,0-7.35,4.3-7.52,7.91Z"/><path class="cls-13" d="m74.08,242.72c3.61,0,5.67,1.42,7.35,3.52l-1.55,1.38c-1.5-2.06-3.4-2.88-5.67-2.88-4.86,0-7.82,3.87-7.82,8.85s2.97,8.9,7.82,8.9c2.28,0,4.17-.86,5.67-2.92l1.55,1.38c-1.68,2.15-3.74,3.57-7.35,3.57-6.1,0-10.1-4.86-10.1-10.92s4-10.87,10.1-10.87Z"/><path class="cls-13" d="m100.42,249.85c0-4-2.02-5.12-5.03-5.12-2.67,0-5.42,1.68-6.75,3.57v15.69h-2.23v-28.67h2.23v11.05c1.5-1.81,4.47-3.65,7.48-3.65,4.21,0,6.53,1.98,6.53,6.66v14.61h-2.23v-14.14Z"/><path class="cls-13" d="m123.63,249.94c0-4-2.02-5.2-5.03-5.2-2.67,0-5.42,1.68-6.75,3.57v15.69h-2.23v-20.76h2.23v3.14c1.5-1.81,4.47-3.65,7.48-3.65,4.21,0,6.53,2.06,6.53,6.75v14.53h-2.23v-14.06Z"/><path class="cls-13" d="m131.62,253.59c0-6.06,3.91-10.87,9.97-10.87s10.02,4.81,10.02,10.87-3.87,10.92-10.02,10.92-9.97-4.86-9.97-10.92Zm17.58,0c0-4.6-2.71-8.85-7.61-8.85s-7.57,4.26-7.57,8.85,2.75,8.9,7.57,8.9,7.61-4.26,7.61-8.9Z"/><path class="cls-13" d="m157.36,235.32h2.23v28.67h-2.23v-28.67Z"/><path class="cls-13" d="m165.36,253.59c0-6.06,3.91-10.87,9.97-10.87s10.02,4.81,10.02,10.87-3.87,10.92-10.02,10.92-9.97-4.86-9.97-10.92Zm17.58,0c0-4.6-2.71-8.85-7.61-8.85s-7.57,4.26-7.57,8.85,2.75,8.9,7.57,8.9,7.61-4.26,7.61-8.9Z"/><path class="cls-13" d="m192.43,267.56c1.81,2.15,3.78,2.92,6.88,2.92,3.78,0,7.09-1.89,7.09-6.66v-3.27c-1.46,2.11-4.13,3.87-7.22,3.87-5.5,0-9.28-4.17-9.28-10.83s3.78-10.87,9.28-10.87c2.97,0,5.54,1.5,7.22,3.87v-3.35h2.28v20.55c0,6.36-4.3,8.64-9.37,8.64-3.48,0-5.72-.64-8.17-3.14l1.29-1.72Zm13.97-19.04c-1.2-2.02-3.95-3.78-6.83-3.78-4.6,0-7.26,3.83-7.26,8.85s2.67,8.81,7.26,8.81c2.88,0,5.63-1.76,6.83-3.78v-10.1Z"/><path class="cls-13" d="m216.41,270.4c1.38,0,2.32-.56,3.14-2.54l1.63-3.7-8.77-20.93h2.49l7.57,18.14,7.48-18.14h2.54l-10.75,25.32c-1.12,2.62-2.88,3.87-5.33,3.87-.69,0-1.63-.13-2.19-.3l.39-2.06c.47.22,1.29.34,1.81.34Z"/><path class="cls-13" d="m244.22,243.23h2.49l7.57,18.14,7.48-18.14h2.54l-8.77,20.76h-2.54l-8.77-20.76Z"/><path class="cls-13" d="m281.27,261.54c-1.85,2.02-4.17,2.97-7.05,2.97-3.57,0-7.26-2.45-7.26-6.92s3.65-6.88,7.26-6.88c2.88,0,5.24.95,7.05,2.97v-4.21c0-3.09-2.49-4.77-5.59-4.77-2.58,0-4.6.9-6.49,3.05l-1.25-1.55c2.15-2.32,4.56-3.48,8-3.48,4.21,0,7.57,2.02,7.57,6.66v14.61h-2.24v-2.45Zm0-6.19c-1.46-1.89-3.78-2.88-6.28-2.88-3.44,0-5.67,2.19-5.67,5.16s2.24,5.12,5.67,5.12c2.49,0,4.81-.95,6.28-2.84v-4.56Z"/><path class="cls-13" d="m290.46,235.32h2.23v28.67h-2.23v-28.67Z"/><path class="cls-13" d="m313.67,260.94c-1.72,1.89-4.47,3.57-7.48,3.57-4.25,0-6.53-1.98-6.53-6.66v-14.61h2.24v14.1c0,4.04,2.02,5.16,5.03,5.16,2.67,0,5.37-1.59,6.75-3.44v-15.82h2.24v20.76h-2.24v-3.05Z"/><path class="cls-13" d="m331.67,242.72c6.32,0,9.8,5.03,9.8,11v.6h-17.37c.21,4.51,3.22,8.25,8.12,8.25,2.62,0,5.03-.99,6.79-2.88l1.16,1.46c-2.06,2.15-4.69,3.35-8.12,3.35-6.06,0-10.4-4.51-10.4-10.92,0-6.02,4.25-10.87,10.01-10.87Zm-7.56,9.84h15.09c-.04-3.52-2.36-7.91-7.57-7.91-4.9,0-7.35,4.3-7.52,7.91Z"/></g><g><path class="cls-13" d="m28.99,323.48v-28.67h2.23v3.27c1.46-2.11,4.13-3.78,7.22-3.78,5.54,0,9.28,4.21,9.28,10.87s-3.74,10.92-9.28,10.92c-2.92,0-5.54-1.5-7.22-3.87v11.26h-2.23Zm9.07-27.17c-2.88,0-5.63,1.72-6.83,3.7v10.27c1.2,1.98,3.95,3.78,6.83,3.78,4.64,0,7.26-3.87,7.26-8.9s-2.62-8.85-7.26-8.85Z"/><path class="cls-13" d="m53.49,294.81h2.23v3.57c1.76-2.32,4.13-4,7.01-4v2.45c-.39-.09-.69-.09-1.12-.09-2.11,0-4.94,1.89-5.89,3.7v15.13h-2.23v-20.76Z"/><path class="cls-13" d="m65.91,305.16c0-6.06,3.91-10.87,9.97-10.87s10.02,4.81,10.02,10.87-3.87,10.92-10.02,10.92-9.97-4.86-9.97-10.92Zm17.58,0c0-4.6-2.71-8.85-7.61-8.85s-7.57,4.26-7.57,8.85,2.75,8.9,7.57,8.9,7.61-4.26,7.61-8.9Z"/><path class="cls-13" d="m91.65,323.48v-28.67h2.23v3.27c1.46-2.11,4.13-3.78,7.22-3.78,5.54,0,9.28,4.21,9.28,10.87s-3.74,10.92-9.28,10.92c-2.92,0-5.54-1.5-7.22-3.87v11.26h-2.23Zm9.07-27.17c-2.88,0-5.63,1.72-6.83,3.7v10.27c1.2,1.98,3.95,3.78,6.83,3.78,4.64,0,7.26-3.87,7.26-8.9s-2.62-8.85-7.26-8.85Z"/><path class="cls-13" d="m114.95,305.16c0-6.06,3.91-10.87,9.97-10.87s10.02,4.81,10.02,10.87-3.87,10.92-10.02,10.92-9.97-4.86-9.97-10.92Zm17.58,0c0-4.6-2.71-8.85-7.61-8.85s-7.57,4.26-7.57,8.85,2.75,8.9,7.57,8.9,7.61-4.26,7.61-8.9Z"/><path class="cls-13" d="m140.22,311.14c1.33,1.68,3.78,3.05,6.71,3.05,3.48,0,5.54-1.72,5.54-4.13,0-2.67-2.84-3.44-5.8-4.21-3.48-.86-7.31-1.76-7.31-5.8,0-3.18,2.71-5.76,7.39-5.76,3.57,0,5.93,1.38,7.44,3.05l-1.25,1.59c-1.2-1.63-3.44-2.75-6.19-2.75-3.22,0-5.2,1.59-5.2,3.74,0,2.36,2.67,3.01,5.54,3.74,3.57.9,7.57,1.89,7.57,6.32,0,3.35-2.58,6.1-7.78,6.1-3.35,0-5.93-.99-8-3.27l1.33-1.68Z"/><path class="cls-13" d="m159.81,289.56c0-.95.82-1.72,1.72-1.72s1.72.77,1.72,1.72-.77,1.72-1.72,1.72-1.72-.77-1.72-1.72Zm.6,5.24h2.23v20.76h-2.23v-20.76Z"/><path class="cls-13" d="m170.04,311.57v-14.79h-3.44v-1.98h3.44v-5.67h2.28v5.67h4.21v1.98h-4.21v14.44c0,1.68.69,2.84,2.15,2.84.99,0,1.85-.47,2.32-.99l.86,1.72c-.82.77-1.81,1.29-3.52,1.29-2.75,0-4.08-1.68-4.08-4.51Z"/><path class="cls-13" d="m180.83,289.56c0-.95.82-1.72,1.72-1.72s1.72.77,1.72,1.72-.77,1.72-1.72,1.72-1.72-.77-1.72-1.72Zm.6,5.24h2.23v20.76h-2.23v-20.76Z"/><path class="cls-13" d="m189.42,305.16c0-6.06,3.91-10.87,9.97-10.87s10.02,4.81,10.02,10.87-3.87,10.92-10.02,10.92-9.97-4.86-9.97-10.92Zm17.58,0c0-4.6-2.71-8.85-7.61-8.85s-7.57,4.26-7.57,8.85,2.75,8.9,7.57,8.9,7.61-4.26,7.61-8.9Z"/><path class="cls-13" d="m229.18,301.51c0-4-2.02-5.2-5.03-5.2-2.67,0-5.42,1.68-6.75,3.57v15.69h-2.23v-20.76h2.23v3.14c1.5-1.81,4.47-3.65,7.48-3.65,4.21,0,6.53,2.06,6.53,6.75v14.53h-2.23v-14.06Z"/></g><g><path class="cls-13" d="m32.43,385.34h-4.43l-.69,1.79h-1.79l3.67-9.34h2.04l3.67,9.34h-1.79l-.69-1.79Zm-3.96-1.44h3.5l-1.75-4.72-1.75,4.72Z"/><path class="cls-13" d="m40.09,387.81c.55.63,1.25.87,2.14.87.97,0,2-.45,2-1.83v-.81c-.52.67-1.29,1.12-2.17,1.12-1.72,0-3-1.25-3-3.47s1.26-3.47,3-3.47c.85,0,1.62.39,2.17,1.11v-.94h1.47v6.42c0,2.44-1.81,3.1-3.47,3.1-1.15,0-2-.25-2.83-1.01l.69-1.06Zm4.15-5.39c-.32-.5-1.05-.91-1.74-.91-1.16,0-1.91.87-1.91,2.17s.74,2.17,1.91,2.17c.69,0,1.41-.41,1.74-.91v-2.52Z"/><path class="cls-13" d="m52.17,386.24c-.49.55-1.33,1.06-2.4,1.06-1.46,0-2.17-.76-2.17-2.14v-4.79h1.47v4.26c0,1.05.53,1.37,1.36,1.37.74,0,1.39-.42,1.74-.88v-4.75h1.47v6.77h-1.47v-.9Z"/><path class="cls-13" d="m55.36,378.34c0-.5.42-.91.91-.91s.91.41.91.91-.41.91-.91.91-.91-.41-.91-.91Zm.18,2.03h1.47v6.77h-1.47v-6.77Z"/><path class="cls-13" d="m63.68,386.21c-.52.67-1.3,1.09-2.17,1.09-1.74,0-3.01-1.32-3.01-3.54s1.26-3.56,3.01-3.56c.84,0,1.62.39,2.17,1.11v-3.52h1.47v9.34h-1.47v-.92Zm0-3.8c-.34-.5-1.05-.91-1.75-.91-1.16,0-1.91.94-1.91,2.25s.74,2.24,1.91,2.24c.7,0,1.41-.39,1.75-.9v-2.69Z"/><path class="cls-13" d="m70.06,380.2c2.03,0,3.33,1.55,3.33,3.68v.35h-5.22c.11,1.02.88,1.86,2.16,1.86.66,0,1.44-.27,1.92-.74l.67.97c-.67.64-1.67.98-2.75.98-2.03,0-3.54-1.41-3.54-3.56,0-1.96,1.43-3.54,3.43-3.54Zm-1.91,3h3.81c-.03-.8-.57-1.79-1.9-1.79-1.26,0-1.84.97-1.91,1.79Z"/><path class="cls-13" d="m78.74,385.57v-3.91h-1.12v-1.29h1.12v-1.85h1.47v1.85h1.37v1.29h-1.37v3.54c0,.46.22.8.64.8.28,0,.55-.11.66-.24l.35,1.11c-.27.25-.7.43-1.39.43-1.13,0-1.74-.62-1.74-1.74Z"/><path class="cls-13" d="m82.49,383.75c0-1.93,1.33-3.54,3.47-3.54s3.49,1.61,3.49,3.54-1.32,3.56-3.49,3.56-3.47-1.61-3.47-3.56Zm5.44,0c0-1.19-.7-2.24-1.96-2.24s-1.95,1.05-1.95,2.24.7,2.25,1.95,2.25,1.96-1.05,1.96-2.25Z"/><path class="cls-13" d="m97.61,380.2c1.32,0,2.12.56,2.59,1.2l-.97.9c-.38-.53-.9-.8-1.56-.8-1.23,0-2.04.92-2.04,2.24s.81,2.25,2.04,2.25c.66,0,1.18-.28,1.56-.8l.97.9c-.48.64-1.27,1.2-2.59,1.2-2.06,0-3.5-1.5-3.5-3.56s1.44-3.54,3.5-3.54Z"/><path class="cls-13" d="m101.49,380.37h1.47v.99c.5-.64,1.32-1.15,2.2-1.15v1.46c-.13-.03-.28-.04-.46-.04-.62,0-1.44.42-1.74.9v4.61h-1.47v-6.77Z"/><path class="cls-13" d="m109.36,380.2c2.03,0,3.33,1.55,3.33,3.68v.35h-5.22c.11,1.02.88,1.86,2.16,1.86.66,0,1.44-.27,1.92-.74l.67.97c-.67.64-1.67.98-2.75.98-2.03,0-3.54-1.41-3.54-3.56,0-1.96,1.43-3.54,3.43-3.54Zm-1.91,3h3.81c-.03-.8-.57-1.79-1.9-1.79-1.26,0-1.83.97-1.91,1.79Z"/><path class="cls-13" d="m118.28,386.41c-.5.57-1.29.9-2.19.9-1.11,0-2.35-.74-2.35-2.24s1.25-2.2,2.35-2.2c.91,0,1.69.29,2.19.87v-1.01c0-.78-.64-1.26-1.58-1.26-.76,0-1.42.28-2,.85l-.6-1.02c.78-.74,1.77-1.09,2.84-1.09,1.5,0,2.82.63,2.82,2.45v4.48h-1.47v-.73Zm0-1.83c-.34-.46-.97-.7-1.61-.7-.83,0-1.44.48-1.44,1.22s.62,1.2,1.44,1.2c.64,0,1.27-.24,1.61-.7v-1.02Z"/><path class="cls-13" d="m121.94,385.57v-3.91h-1.12v-1.29h1.12v-1.85h1.47v1.85h1.37v1.29h-1.37v3.54c0,.46.22.8.64.8.28,0,.55-.11.66-.24l.35,1.11c-.27.25-.7.43-1.39.43-1.13,0-1.74-.62-1.74-1.74Z"/><path class="cls-13" d="m125.93,378.34c0-.5.42-.91.91-.91s.91.41.91.91-.41.91-.91.91-.91-.41-.91-.91Zm.18,2.03h1.47v6.77h-1.47v-6.77Z"/><path class="cls-13" d="m134.05,382.91c0-1.05-.53-1.4-1.36-1.4-.76,0-1.4.45-1.74.91v4.72h-1.47v-6.77h1.47v.92c.45-.53,1.32-1.09,2.38-1.09,1.46,0,2.19.78,2.19,2.17v4.76h-1.47v-4.23Z"/><path class="cls-13" d="m138.03,387.81c.55.63,1.25.87,2.14.87.97,0,2-.45,2-1.83v-.81c-.52.67-1.29,1.12-2.17,1.12-1.72,0-3-1.25-3-3.47s1.26-3.47,3-3.47c.85,0,1.62.39,2.17,1.11v-.94h1.47v6.42c0,2.44-1.81,3.1-3.47,3.1-1.15,0-2-.25-2.83-1.01l.69-1.06Zm4.15-5.39c-.32-.5-1.05-.91-1.74-.91-1.16,0-1.91.87-1.91,2.17s.74,2.17,1.91,2.17c.69,0,1.41-.41,1.74-.91v-2.52Z"/><path class="cls-13" d="m148.16,380.37h1.57l1.98,5.07,1.97-5.07h1.58l-2.76,6.77h-1.58l-2.76-6.77Z"/><path class="cls-13" d="m160.32,386.41c-.5.57-1.29.9-2.19.9-1.11,0-2.35-.74-2.35-2.24s1.25-2.2,2.35-2.2c.91,0,1.69.29,2.19.87v-1.01c0-.78-.64-1.26-1.58-1.26-.76,0-1.42.28-2,.85l-.6-1.02c.78-.74,1.77-1.09,2.84-1.09,1.5,0,2.82.63,2.82,2.45v4.48h-1.47v-.73Zm0-1.83c-.34-.46-.97-.7-1.61-.7-.83,0-1.44.48-1.44,1.22s.62,1.2,1.44,1.2c.64,0,1.27-.24,1.61-.7v-1.02Z"/><path class="cls-13" d="m163.69,377.79h1.47v9.34h-1.47v-9.34Z"/><path class="cls-13" d="m171.63,386.24c-.49.55-1.33,1.06-2.4,1.06-1.46,0-2.17-.76-2.17-2.14v-4.79h1.47v4.26c0,1.05.53,1.37,1.36,1.37.74,0,1.39-.42,1.74-.88v-4.75h1.47v6.77h-1.47v-.9Z"/><path class="cls-13" d="m178.01,380.2c2.03,0,3.33,1.55,3.33,3.68v.35h-5.22c.11,1.02.88,1.86,2.16,1.86.66,0,1.44-.27,1.92-.74l.67.97c-.67.64-1.67.98-2.75.98-2.03,0-3.54-1.41-3.54-3.56,0-1.96,1.43-3.54,3.43-3.54Zm-1.91,3h3.81c-.03-.8-.57-1.79-1.9-1.79-1.26,0-1.83.97-1.91,1.79Z"/><path class="cls-13" d="m190.53,386.41c-.5.57-1.29.9-2.19.9-1.11,0-2.35-.74-2.35-2.24s1.25-2.2,2.35-2.2c.91,0,1.7.29,2.19.87v-1.01c0-.78-.64-1.26-1.58-1.26-.76,0-1.42.28-2,.85l-.6-1.02c.78-.74,1.77-1.09,2.84-1.09,1.5,0,2.82.63,2.82,2.45v4.48h-1.47v-.73Zm0-1.83c-.34-.46-.97-.7-1.61-.7-.83,0-1.44.48-1.44,1.22s.62,1.2,1.44,1.2c.64,0,1.27-.24,1.61-.7v-1.02Z"/><path class="cls-13" d="m198.47,382.91c0-1.05-.53-1.4-1.36-1.4-.76,0-1.4.45-1.74.91v4.72h-1.47v-6.77h1.47v.92c.45-.53,1.32-1.09,2.38-1.09,1.46,0,2.19.78,2.19,2.17v4.76h-1.47v-4.23Z"/><path class="cls-13" d="m206.6,386.21c-.52.67-1.3,1.09-2.17,1.09-1.74,0-3.01-1.32-3.01-3.54s1.26-3.56,3.01-3.56c.84,0,1.62.39,2.17,1.11v-3.52h1.47v9.34h-1.47v-.92Zm0-3.8c-.34-.5-1.05-.91-1.75-.91-1.16,0-1.91.94-1.91,2.25s.74,2.24,1.91,2.24c.7,0,1.41-.39,1.75-.9v-2.69Z"/></g><g><path class="cls-13" d="m29.48,397c2.03,0,3.33,1.55,3.33,3.68v.35h-5.22c.11,1.02.88,1.86,2.16,1.86.66,0,1.44-.27,1.92-.74l.67.97c-.67.64-1.67.98-2.75.98-2.03,0-3.54-1.41-3.54-3.56,0-1.96,1.43-3.54,3.43-3.54Zm-1.91,3h3.81c-.03-.8-.57-1.79-1.9-1.79-1.26,0-1.84.97-1.91,1.79Z"/><path class="cls-13" d="m42.55,399.52c0-.73-.32-1.22-1.11-1.22-.66,0-1.27.46-1.57.9v4.73h-1.47v-4.41c0-.73-.32-1.22-1.12-1.22-.64,0-1.25.46-1.55.91v4.72h-1.47v-6.77h1.47v.92c.28-.42,1.18-1.09,2.2-1.09s1.62.5,1.85,1.25c.39-.62,1.29-1.25,2.3-1.25,1.25,0,1.95.67,1.95,2.04v4.89h-1.47v-4.41Z"/><path class="cls-13" d="m45.92,406.52v-9.34h1.47v.92c.5-.67,1.29-1.09,2.17-1.09,1.75,0,3,1.32,3,3.54s-1.25,3.56-3,3.56c-.85,0-1.62-.38-2.17-1.11v3.52h-1.47Zm3.21-8.21c-.69,0-1.41.41-1.74.91v2.68c.32.49,1.05.91,1.74.91,1.16,0,1.91-.94,1.91-2.25s-.74-2.24-1.91-2.24Z"/><path class="cls-13" d="m53.62,400.55c0-1.93,1.33-3.54,3.47-3.54s3.49,1.61,3.49,3.54-1.32,3.56-3.49,3.56-3.47-1.61-3.47-3.56Zm5.44,0c0-1.19-.7-2.24-1.96-2.24s-1.95,1.05-1.95,2.24.7,2.25,1.95,2.25,1.96-1.05,1.96-2.25Z"/><path class="cls-13" d="m66.39,398.98l-1.57,4.96h-1.54l-2.1-6.77h1.53l1.43,4.92,1.61-4.92h1.29l1.61,4.92,1.43-4.92h1.53l-2.1,6.77h-1.54l-1.57-4.96Z"/><path class="cls-13" d="m75.63,397c2.03,0,3.33,1.55,3.33,3.68v.35h-5.22c.11,1.02.88,1.86,2.16,1.86.66,0,1.44-.27,1.92-.74l.67.97c-.67.64-1.67.98-2.75.98-2.03,0-3.54-1.41-3.54-3.56,0-1.96,1.43-3.54,3.43-3.54Zm-1.91,3h3.81c-.03-.8-.57-1.79-1.9-1.79-1.26,0-1.83.97-1.91,1.79Z"/><path class="cls-13" d="m80.42,397.17h1.47v.99c.5-.64,1.32-1.15,2.2-1.15v1.46c-.13-.03-.28-.04-.46-.04-.62,0-1.44.42-1.74.9v4.61h-1.47v-6.77Z"/><path class="cls-13" d="m85.1,395.14c0-.5.42-.91.91-.91s.91.41.91.91-.41.91-.91.91-.91-.41-.91-.91Zm.18,2.03h1.47v6.77h-1.47v-6.77Z"/><path class="cls-13" d="m93.22,399.71c0-1.05-.53-1.4-1.36-1.4-.76,0-1.4.45-1.74.91v4.72h-1.47v-6.77h1.47v.92c.45-.53,1.32-1.09,2.38-1.09,1.46,0,2.19.78,2.19,2.17v4.76h-1.47v-4.23Z"/><path class="cls-13" d="m97.19,404.61c.55.63,1.25.87,2.14.87.97,0,2-.45,2-1.83v-.81c-.52.67-1.29,1.12-2.17,1.12-1.72,0-3-1.25-3-3.47s1.26-3.47,3-3.47c.85,0,1.62.39,2.17,1.11v-.94h1.47v6.42c0,2.44-1.81,3.1-3.47,3.1-1.15,0-2-.25-2.83-1.01l.69-1.06Zm4.15-5.39c-.32-.5-1.05-.91-1.74-.91-1.16,0-1.91.87-1.91,2.17s.74,2.17,1.91,2.17c.69,0,1.41-.41,1.74-.91v-2.52Z"/><path class="cls-13" d="m108.8,405.38c.46,0,.77-.14.97-.59l.34-.77-2.77-6.85h1.57l1.98,5.07,1.98-5.07h1.58l-3.26,7.98c-.46,1.15-1.27,1.51-2.33,1.53-.21,0-.62-.04-.83-.1l.22-1.32c.15.07.39.11.56.11Z"/><path class="cls-13" d="m114.93,400.55c0-1.93,1.33-3.54,3.47-3.54s3.49,1.61,3.49,3.54-1.32,3.56-3.49,3.56-3.47-1.61-3.47-3.56Zm5.44,0c0-1.19-.7-2.24-1.96-2.24s-1.95,1.05-1.95,2.24.7,2.25,1.95,2.25,1.96-1.05,1.96-2.25Z"/><path class="cls-13" d="m127.94,403.04c-.49.55-1.33,1.06-2.4,1.06-1.46,0-2.17-.76-2.17-2.14v-4.79h1.47v4.26c0,1.05.53,1.37,1.36,1.37.74,0,1.39-.42,1.74-.88v-4.75h1.47v6.77h-1.47v-.9Z"/><path class="cls-13" d="m131.31,397.17h1.47v.99c.5-.64,1.32-1.15,2.2-1.15v1.46c-.13-.03-.28-.04-.46-.04-.62,0-1.44.42-1.74.9v4.61h-1.47v-6.77Z"/><path class="cls-13" d="m139.76,394.59h1.47v3.52c.53-.71,1.32-1.11,2.17-1.11,1.74,0,3,1.37,3,3.56s-1.27,3.54-3,3.54c-.88,0-1.65-.42-2.17-1.09v.92h-1.47v-9.34Zm3.21,8.21c1.18,0,1.92-.92,1.92-2.24s-.74-2.25-1.92-2.25c-.69,0-1.41.42-1.74.92v2.68c.32.5,1.05.9,1.74.9Z"/><path class="cls-13" d="m152.46,403.04c-.49.55-1.33,1.06-2.4,1.06-1.46,0-2.17-.76-2.17-2.14v-4.79h1.47v4.26c0,1.05.53,1.37,1.36,1.37.74,0,1.39-.42,1.74-.88v-4.75h1.47v6.77h-1.47v-.9Z"/><path class="cls-13" d="m155.92,401.99c.48.49,1.41.95,2.3.95s1.33-.32,1.33-.83c0-.59-.71-.8-1.54-.98-1.16-.25-2.55-.56-2.55-2.07,0-1.11.95-2.06,2.66-2.06,1.15,0,2.02.41,2.63.95l-.62,1.04c-.41-.46-1.16-.81-2-.81-.77,0-1.26.28-1.26.76,0,.52.67.7,1.47.88,1.18.25,2.62.59,2.62,2.19,0,1.19-.99,2.1-2.82,2.1-1.15,0-2.2-.36-2.9-1.05l.67-1.06Z"/><path class="cls-13" d="m162.26,395.14c0-.5.42-.91.91-.91s.91.41.91.91-.41.91-.91.91-.91-.41-.91-.91Zm.18,2.03h1.47v6.77h-1.47v-6.77Z"/><path class="cls-13" d="m170.38,399.71c0-1.05-.53-1.4-1.36-1.4-.76,0-1.4.45-1.74.91v4.72h-1.47v-6.77h1.47v.92c.45-.53,1.32-1.09,2.38-1.09,1.46,0,2.19.78,2.19,2.17v4.76h-1.47v-4.23Z"/><path class="cls-13" d="m176.77,397c2.03,0,3.33,1.55,3.33,3.68v.35h-5.22c.11,1.02.88,1.86,2.16,1.86.66,0,1.44-.27,1.92-.74l.67.97c-.67.64-1.67.98-2.75.98-2.03,0-3.54-1.41-3.54-3.56,0-1.96,1.43-3.54,3.43-3.54Zm-1.91,3h3.81c-.03-.8-.57-1.79-1.9-1.79-1.26,0-1.84.97-1.91,1.79Z"/><path class="cls-13" d="m181.64,401.99c.48.49,1.41.95,2.3.95s1.33-.32,1.33-.83c0-.59-.71-.8-1.54-.98-1.16-.25-2.55-.56-2.55-2.07,0-1.11.95-2.06,2.66-2.06,1.15,0,2.02.41,2.63.95l-.62,1.04c-.41-.46-1.16-.81-2-.81-.77,0-1.26.28-1.26.76,0,.52.67.7,1.47.88,1.18.25,2.62.59,2.62,2.19,0,1.19-.99,2.1-2.82,2.1-1.15,0-2.2-.36-2.9-1.05l.67-1.06Z"/><path class="cls-13" d="m188.25,401.99c.48.49,1.41.95,2.3.95s1.33-.32,1.33-.83c0-.59-.71-.8-1.54-.98-1.16-.25-2.55-.56-2.55-2.07,0-1.11.95-2.06,2.66-2.06,1.15,0,2.02.41,2.63.95l-.62,1.04c-.41-.46-1.16-.81-2-.81-.77,0-1.26.28-1.26.76,0,.52.67.7,1.47.88,1.18.25,2.62.59,2.62,2.19,0,1.19-.99,2.1-2.82,2.1-1.15,0-2.2-.36-2.9-1.05l.67-1.06Z"/></g><g class="cls-19"><path class="cls-13" d="m42.45,40.21c0-1.22-.99-2.2-2.2-2.2s-2.2.99-2.2,2.2.99,2.21,2.2,2.21,2.2-.99,2.2-2.21"/><path class="cls-13" d="m40.23,48.68v-3.12c2.95,0,5.34-2.39,5.34-5.33s-2.39-5.33-5.33-5.33-5.33,2.39-5.33,5.33v5.33h-3.12v-5.33c0-4.66,3.79-8.45,8.45-8.45s8.45,3.79,8.45,8.45-3.8,8.45-8.47,8.45"/><path class="cls-13" d="m28.64,40.22h-3.12c0-8.11,6.6-14.71,14.72-14.71v3.12c-6.39,0-11.59,5.2-11.59,11.58"/><path class="cls-13" d="m40.23,54.95v-3.12c6.39,0,11.59-5.21,11.59-11.61h3.12c0,8.12-6.6,14.73-14.72,14.73"/><path class="cls-13" d="m71.58,32.37c1.96,0,3.63.74,5.01,2.22,1.39,1.48,2.08,3.3,2.08,5.45s-.69,3.97-2.08,5.45c-1.39,1.48-3.06,2.22-5.01,2.22s-3.6-.71-4.71-2.12v7.48l-3.75.05v-20.35h3.75v1.72c1.1-1.41,2.67-2.12,4.71-2.12m-3.57,10.62c.76.77,1.71,1.15,2.88,1.15s2.13-.38,2.89-1.15c.77-.76,1.15-1.75,1.15-2.95s-.38-2.18-1.15-2.95c-.76-.77-1.73-1.15-2.89-1.15s-2.12.38-2.88,1.15c-.76.77-1.13,1.75-1.13,2.95s.38,2.18,1.13,2.95"/><path class="cls-13" d="m85.07,35.28c.35-.93.92-1.63,1.73-2.09.8-.47,1.7-.7,2.69-.7v4.18c-1.14-.14-2.17.1-3.07.7-.9.6-1.35,1.6-1.35,2.99v6.95h-3.75v-14.53h3.75v2.5Z"/><path class="cls-13" d="m103.5,45.5c-1.49,1.48-3.31,2.22-5.46,2.22s-3.97-.74-5.45-2.22c-1.48-1.48-2.22-3.3-2.22-5.45s.74-3.97,2.22-5.45c1.48-1.48,3.3-2.22,5.45-2.22s3.97.74,5.46,2.22c1.49,1.48,2.24,3.3,2.24,5.45s-.75,3.97-2.24,5.45m-8.27-2.57c.75.76,1.68,1.13,2.8,1.13s2.06-.38,2.82-1.13c.76-.76,1.13-1.71,1.13-2.88s-.38-2.12-1.13-2.88c-.76-.76-1.7-1.13-2.82-1.13s-2.06.38-2.8,1.13c-.75.76-1.12,1.71-1.12,2.88s.37,2.12,1.12,2.88"/><path class="cls-13" d="m116.84,32.37c1.96,0,3.63.74,5.01,2.22,1.39,1.48,2.08,3.3,2.08,5.45s-.69,3.97-2.08,5.45c-1.39,1.48-3.06,2.22-5.01,2.22s-3.6-.71-4.71-2.12v7.48l-3.75.05v-20.35h3.75v1.72c1.1-1.41,2.67-2.12,4.71-2.12m-3.57,10.62c.76.77,1.71,1.15,2.88,1.15s2.13-.38,2.89-1.15c.77-.76,1.15-1.75,1.15-2.95s-.38-2.18-1.15-2.95c-.76-.77-1.73-1.15-2.89-1.15s-2.12.38-2.88,1.15c-.76.77-1.13,1.75-1.13,2.95s.38,2.18,1.13,2.95"/><path class="cls-13" d="m129.74,41.59c.5,1.82,1.87,2.73,4.1,2.73,1.43,0,2.52-.48,3.26-1.45l3.02,1.74c-1.43,2.07-3.55,3.11-6.34,3.11-2.4,0-4.33-.73-5.78-2.18-1.45-1.45-2.18-3.29-2.18-5.49s.72-4.02,2.15-5.48c1.43-1.46,3.27-2.19,5.52-2.19,2.13,0,3.89.74,5.27,2.21,1.38,1.47,2.08,3.29,2.08,5.46,0,.48-.05,1-.15,1.54h-10.96Zm-.06-2.91h7.41c-.21-.99-.65-1.72-1.32-2.21-.67-.48-1.43-.73-2.28-.73-1.01,0-1.84.26-2.5.77-.66.51-1.1,1.23-1.31,2.16"/><polygon class="cls-13" points="147.21 26.09 143.46 26.14 143.46 47.31 147.21 47.31 147.21 26.09"/><polygon class="cls-13" points="65.15 60.3 63.15 60.3 63.15 59.46 68.1 59.46 68.1 60.3 66.11 60.3 66.11 65.89 65.15 65.89 65.15 60.3"/><path class="cls-13" d="m70.07,61.11c1.4,0,2.27,1.09,2.27,2.52v.21h-3.69c.07.79.65,1.45,1.58,1.45.49,0,1.03-.19,1.38-.55l.41.57c-.46.45-1.12.69-1.87.69-1.39,0-2.41-.98-2.41-2.45,0-1.35.97-2.44,2.33-2.44m-1.43,2.1h2.85c-.02-.62-.43-1.39-1.42-1.39s-1.38.75-1.43,1.39"/><path class="cls-13" d="m75.51,61.11c.88,0,1.41.37,1.75.82l-.58.53c-.28-.4-.66-.58-1.13-.58-.92,0-1.51.7-1.51,1.67s.59,1.68,1.51,1.68c.47,0,.85-.19,1.13-.58l.58.53c-.34.45-.87.82-1.75.82-1.41,0-2.37-1.05-2.37-2.45s.96-2.44,2.37-2.44"/><path class="cls-13" d="m81.36,62.89c0-.77-.4-1-.99-1-.54,0-1.03.33-1.28.68v3.33h-.87v-6.44h.87v2.43c.31-.38.94-.77,1.65-.77.99,0,1.5.5,1.5,1.49v3.29h-.87v-3Z"/><path class="cls-13" d="m91.77,62.78c0-.54-.24-.9-.81-.9-.47,0-.94.33-1.16.66v3.34h-.87v-3.11c0-.54-.23-.9-.82-.9-.45,0-.91.34-1.14.67v3.33h-.87v-4.66h.87v.66c.19-.29.81-.77,1.51-.77s1.12.37,1.26.87c.27-.43.89-.87,1.57-.87.86,0,1.32.47,1.32,1.41v3.37h-.87v-3.11Z"/><path class="cls-13" d="m96.89,65.38c-.37.4-.9.63-1.53.63-.77,0-1.62-.52-1.62-1.54s.84-1.53,1.62-1.53c.63,0,1.17.2,1.53.62v-.77c0-.58-.47-.93-1.14-.93-.53,0-.98.2-1.4.62l-.38-.6c.52-.51,1.16-.76,1.91-.76,1.01,0,1.87.44,1.87,1.63v3.15h-.87v-.51Zm0-1.3c-.26-.35-.71-.53-1.2-.53-.63,0-1.07.38-1.07.93s.44.93,1.07.93c.48,0,.94-.18,1.2-.53v-.79Z"/><path class="cls-13" d="m102.47,65.23c-.35.46-.91.78-1.53.78-1.22,0-2.08-.92-2.08-2.44s.87-2.45,2.08-2.45c.6,0,1.15.29,1.53.79v-2.45h.87v6.44h-.87v-.67Zm0-2.65c-.24-.38-.76-.68-1.29-.68-.87,0-1.41.7-1.41,1.68s.54,1.67,1.41,1.67c.53,0,1.05-.3,1.29-.67v-1.99Z"/><path class="cls-13" d="m106.77,61.11c1.4,0,2.27,1.09,2.27,2.52v.21h-3.69c.07.79.65,1.45,1.58,1.45.49,0,1.03-.19,1.38-.55l.41.57c-.46.45-1.12.69-1.87.69-1.39,0-2.41-.98-2.41-2.45,0-1.35.97-2.44,2.33-2.44m-1.43,2.1h2.85c-.02-.62-.43-1.39-1.42-1.39s-1.38.75-1.43,1.39"/><path class="cls-13" d="m112.62,67.67v-6.44h.87v.67c.34-.46.9-.78,1.53-.78,1.22,0,2.07.92,2.07,2.44s-.86,2.45-2.07,2.45c-.61,0-1.15-.28-1.53-.79v2.45h-.87Zm2.16-5.78c-.53,0-1.06.31-1.29.69v1.98c.23.37.76.68,1.29.68.87,0,1.4-.7,1.4-1.68s-.53-1.67-1.4-1.67"/><path class="cls-13" d="m117.9,63.56c0-1.34.91-2.44,2.35-2.44s2.36,1.1,2.36,2.44-.9,2.45-2.36,2.45-2.35-1.1-2.35-2.45m3.8,0c0-.88-.51-1.67-1.45-1.67s-1.45.79-1.45,1.67.52,1.68,1.45,1.68,1.45-.79,1.45-1.68"/><path class="cls-13" d="m123.72,64.65c.32.35.94.67,1.56.67s1-.27,1-.67c0-.46-.53-.62-1.13-.75-.79-.18-1.72-.39-1.72-1.4,0-.74.64-1.38,1.78-1.38.8,0,1.38.29,1.78.67l-.39.61c-.27-.33-.79-.57-1.38-.57s-.96.23-.96.61c0,.41.5.54,1.08.68.81.18,1.78.4,1.78,1.48,0,.8-.66,1.43-1.88,1.43-.78,0-1.47-.24-1.94-.72l.42-.64Z"/><path class="cls-13" d="m128.24,64.65c.32.35.94.67,1.56.67s1-.27,1-.67c0-.46-.53-.62-1.13-.75-.79-.18-1.72-.39-1.72-1.4,0-.74.64-1.38,1.78-1.38.8,0,1.38.29,1.78.67l-.39.61c-.27-.33-.79-.57-1.38-.57s-.96.23-.96.61c0,.41.5.54,1.08.68.81.18,1.77.4,1.77,1.48,0,.8-.66,1.43-1.88,1.43-.78,0-1.47-.24-1.94-.72l.42-.64Z"/><path class="cls-13" d="m132.61,59.9c0-.31.26-.56.56-.56s.56.25.56.56-.25.55-.56.55-.56-.24-.56-.55m.13,1.33h.87v4.66h-.87v-4.66Z"/><path class="cls-13" d="m134.99,59.46h.87v2.45c.37-.5.92-.79,1.53-.79,1.22,0,2.07.96,2.07,2.45s-.87,2.44-2.07,2.44c-.63,0-1.18-.32-1.53-.78v.67h-.87v-6.44Zm2.16,5.78c.87,0,1.41-.69,1.41-1.67s-.54-1.68-1.41-1.68c-.53,0-1.06.32-1.29.69v1.98c.23.38.76.67,1.29.67"/><rect class="cls-13" x="140.57" y="59.46" width=".87" height="6.44"/><path class="cls-13" d="m144.86,61.11c1.4,0,2.27,1.09,2.27,2.52v.21h-3.69c.07.79.65,1.45,1.58,1.45.49,0,1.03-.19,1.38-.55l.41.57c-.46.45-1.12.69-1.87.69-1.39,0-2.41-.98-2.41-2.45,0-1.35.98-2.44,2.34-2.44m-1.43,2.1h2.85c-.02-.62-.43-1.39-1.42-1.39s-1.38.75-1.43,1.39"/><path class="cls-13" d="m148.55,28c0-1.09.87-1.95,1.95-1.95s1.95.86,1.95,1.95-.86,1.95-1.95,1.95-1.95-.87-1.95-1.95m.29,0c0,.91.74,1.65,1.65,1.65s1.65-.74,1.65-1.65-.74-1.66-1.65-1.66-1.65.74-1.65,1.66m1.61.24h-.39v.88h-.31v-2.23h.91c.4,0,.73.27.73.68,0,.5-.44.66-.57.66l.6.89h-.39l-.58-.88Zm-.39-1.08v.79h.6c.21,0,.4-.16.4-.39,0-.25-.19-.41-.4-.41h-.6Z"/></g><rect class="cls-10" x="287.33" y="714.67" width="252.47" height="68.98"/><rect class="cls-10" x="287.33" y="632.03" width="252.47" height="68.98"/><rect class="cls-10" x="287.33" y="549.39" width="252.47" height="69.33"/><rect class="cls-10" x="287.33" y="466.75" width="252.47" height="68.98"/><rect class="cls-10" x="287.33" y="384.11" width="252.47" height="68.98"/><g class="cls-18"><path class="cls-7" d="m392.65,521.66l-2.9-2.08s-.54-2.55-1.01-4.23c-.29-1.05-1.46-2.18-3.4-1.55-2.2.72-4.53,5.42-4.53,5.42-.32.51-.46.97-.56,1.6l-.27,4.81s-3.01,2.54-3.91,3.31c-.7.59-.93,1.54-.4,2.18.21.26.46.42.74.5.46.12.98,0,1.49-.32,1.08-.69,3.63-2.28,4.73-3.12.55-.42.73-.9.88-1.47.21-.86,1.17-4.12,1.17-4.12l1.78-2.89.33,1.14c.13.39.4.72.76.93l3.88,2.05c.8.43,1.47.2,1.76-.39.38-.76.15-1.35-.52-1.76Z"/><path class="cls-7" d="m387.43,507.66c-1.17,1.07-1.25,2.87-.18,4.04,1.07,1.17,2.87,1.25,4.04.18,1.17-1.07,1.25-2.87.18-4.04-1.07-1.17-2.87-1.25-4.04-.18Z"/></g><rect class="cls-14" x="364.2" y="498.03" width="20.89" height="37.97"/><rect class="cls-7" x="364.2" y="498.03" width="20.89" height="37.97"/><rect class="cls-7" x="514.95" y="770.89" width="12.18" height="12.2"/><line class="cls-7" x1="517.55" y1="780.69" x2="524.29" y2="780.69"/><line class="cls-7" x1="518.66" y1="777.92" x2="518.66" y2="773.01"/><polyline class="cls-7" points="517.07 774.6 518.66 773.01 520.25 774.6"/><line class="cls-7" x1="523.43" y1="777.92" x2="523.43" y2="773.01"/><polyline class="cls-7" points="521.84 774.6 523.43 773.01 525.01 774.6"/><rect class="cls-7" x="500.6" y="770.89" width="12.18" height="12.2"/><line class="cls-7" x1="503.2" y1="780.69" x2="509.94" y2="780.69"/><line class="cls-7" x1="504.31" y1="777.92" x2="504.31" y2="773.01"/><polyline class="cls-7" points="502.72 774.6 504.31 773.01 505.9 774.6"/><line class="cls-7" x1="509.08" y1="777.92" x2="509.08" y2="773.01"/><polyline class="cls-7" points="507.49 774.6 509.08 773.01 510.67 774.6"/><rect class="cls-7" x="507.63" y="757.1" width="12.18" height="12.2"/><line class="cls-7" x1="510.23" y1="766.91" x2="516.97" y2="766.91"/><line class="cls-7" x1="511.34" y1="764.14" x2="511.34" y2="759.22"/><polyline class="cls-7" points="509.75 760.81 511.34 759.22 512.93 760.81"/><line class="cls-7" x1="516.11" y1="764.14" x2="516.11" y2="759.22"/><polyline class="cls-7" points="514.52 760.81 516.11 759.22 517.7 760.81"/><g class="cls-17"><path class="cls-7" d="m409.11,777.48c0,3.49-2.83,6.32-6.31,6.32s-6.31-2.83-6.31-6.32,2.83-6.32,6.31-6.32,6.31,2.83,6.31,6.32Z"/><path class="cls-7" d="m432.77,777.48c0,3.49-2.83,6.32-6.31,6.32s-6.31-2.83-6.31-6.32,2.83-6.32,6.31-6.32,6.31,2.83,6.31,6.32Z"/></g><polyline class="cls-7" points="413.05 777.48 422.52 768 409.11 768 402.8 777.48 413.05 777.48 406.65 762.18"/><g class="cls-23"><path class="cls-7" d="m426.46,777.48l-1.49-.51-3.7-13.71,4.97.58c.86.13,1.46.93,1.34,1.79-.12.86-.92,1.46-1.79,1.34"/></g><line class="cls-7" x1="405.17" y1="761.69" x2="409.9" y2="763.27"/><line class="cls-2" x1="517.72" y1="279.84" x2="523.29" y2="279.84"/><line class="cls-2" x1="517.72" y1="279.84" x2="514.93" y2="275"/><line class="cls-2" x1="517.72" y1="279.84" x2="514.93" y2="284.67"/><g class="cls-22"><path class="cls-2" d="m511.38,278h-22.31c-8.01,0-14.5,6.7-14.5,12.29,0,3.9,1.11,7.82,4.05,7.82h14.92c6.68-2.23,7.79-13.4,7.79-13.4l10.04-2.23"/></g><line class="cls-2" x1="494.65" y1="284.7" x2="496.88" y2="284.7"/><rect class="cls-2" x="490.19" y="273.53" width="4.46" height="4.47"/><line class="cls-2" x1="492.42" y1="273.53" x2="492.42" y2="266.83"/><line class="cls-2" x1="472.34" y1="269.07" x2="512.5" y2="269.07"/><line class="cls-2" x1="479.04" y1="298.1" x2="477.92" y2="302.57"/><line class="cls-2" x1="493.55" y1="298.1" x2="494.65" y2="302.57"/><g class="cls-20"><path class="cls-2" d="m472.34,301.45c0,.62.5,1.12,1.11,1.12h25.65"/><path class="cls-2" d="m485.73,289.17h-6.69c0-3.7,3-6.7,6.69-6.7v6.7Z"/></g><line class="cls-7" x1="508.98" y1="532.43" x2="508.98" y2="529.37"/><g class="cls-21"><path class="cls-9" d="m506.06,525.8s-2.15-6.04-2.14-6.9c0-2.15,1.99-4.06,4.24-4.27.29-.03.58-.04.9-.04s.61.02.9.04c2.26.21,4.24,2.11,4.24,4.27,0,.86-2.14,6.9-2.14,6.9m2.14,2.59c0,.48-.38.86-.86.86h-8.57c-.47,0-.86-.39-.86-.86v-1.29c0-.47.38-.86.86-.86,2.95-.57,5.81-.57,8.57,0,.47,0,.86.39.86.86v1.29Z"/><path class="cls-7" d="m463.3,532.26v-2.94m41.32,3.51s1.31-1.68,4.36-1.68,4.36,1.68,4.36,1.68m-7.84.84c0-.46-.39-.84-.87-.84s-.87.38-.87.84.39.84.87.84.87-.38.87-.84Zm8.72,0c0-.46-.39-.84-.87-.84s-.87.38-.87.84.39.84.87.84.87-.38.87-.84Zm-4.36,0c0-.46-.39-.84-.87-.84s-.87.38-.87.84.39.84.87.84.87-.38.87-.84Z"/><path class="cls-9" d="m460.19,525.65s-2.15-6.04-2.14-6.9c0-2.15,1.99-4.06,4.24-4.27.29-.03.58-.04.9-.04s.61.02.9.04c2.26.21,4.24,2.11,4.24,4.27,0,.86-2.14,6.9-2.14,6.9m2.14,2.59c0,.48-.38.86-.86.86h-8.57c-.47,0-.86-.39-.86-.86v-1.29c0-.47.38-.86.86-.86,2.95-.57,5.81-.57,8.57,0,.47,0,.86.39.86.86v1.29Z"/><path class="cls-7" d="m458.9,532.71s1.29-1.64,4.28-1.64,4.28,1.64,4.28,1.64m-7.71.82c0-.45-.38-.82-.86-.82s-.86.37-.86.82.38.82.86.82.86-.37.86-.82Zm8.57,0c0-.45-.38-.82-.86-.82s-.86.37-.86.82.38.82.86.82.86-.37.86-.82Zm-4.28,0c0-.45-.38-.82-.86-.82s-.86.37-.86.82.38.82.86.82.86-.37.86-.82Z"/></g><rect class="cls-9" x="311.3" y="488.53" width="34.23" height="2.65"/><line class="cls-7" x1="311.36" y1="513.17" x2="345.47" y2="513.17"/><path class="cls-9" d="m328.41,513.18v4.57m13.96-26.37h-27.92v21.8h27.92v-21.8Z"/><g class="cls-24"><path class="cls-9" d="m329.71,518.91c0,.72-.58,1.3-1.3,1.3s-1.3-.58-1.3-1.3.58-1.3,1.3-1.3,1.3.58,1.3,1.3Z"/><path class="cls-7" d="m334.63,502.22h4.55m-4.55-3.07h4.55m-4.55-3.07h4.55m-15.41,6.14l1.02,6.06m-4.09-11.39l3.07,5.33h6.19m0,0c0,3.39-2.77,6.14-6.19,6.14s-6.19-2.75-6.19-6.14,2.77-6.14,6.19-6.14,6.19,2.75,6.19,6.14Z"/></g><rect class="cls-9" x="298.43" y="601.51" width="13.45" height="15.28"/><path class="cls-7" d="m298.43,605.06h13.52m-11.72,9.91h9.92v-2.7h-9.92v2.7Zm0-5.4h9.92v-2.7h-9.92v2.7Zm-1.8-8.11l8.11-4.45m5.41,18.01l6.03-4.5m-6.03-1.86l6.03-4.5"/><g class="cls-56"><path class="cls-13" d="m300.14,602.77c-.25,0-.46.2-.46.46s.21.46.46.46.46-.2.46-.46-.21-.46-.46-.46"/><path class="cls-10" d="m300.14,602.77c-.25,0-.46.2-.46.46s.21.46.46.46.46-.2.46-.46-.21-.46-.46-.46Z"/></g><line class="cls-7" x1="299.34" y1="617.8" x2="299.34" y2="616.89"/><line class="cls-7" x1="311.18" y1="617.8" x2="311.18" y2="616.89"/><g class="cls-61"><circle class="cls-7" cx="387.37" cy="657.41" r="5.38"/></g><polyline class="cls-7" points="387.14 654.84 387.14 657.41 389.95 659.99"/><g class="cls-55"><path class="cls-7" d="m398.39,661.54c-2.28-1.91-2.57-5.3-.67-7.58,1.91-2.28,5.3-2.57,7.58-.66,2.28,1.91,2.58,5.3.67,7.58-1.91,2.28-5.3,2.57-7.58.66Z"/></g><polyline class="cls-7" points="403.32 655.29 401.67 657.26 402.16 661.04"/><g class="cls-54"><circle class="cls-7" cx="416.93" cy="657.41" r="5.38" transform="translate(-1.26 .8) rotate(-.11)"/></g><polyline class="cls-7" points="414.35 657.65 416.93 657.65 419.5 654.84"/><rect class="cls-7" x="349.84" y="746.28" width="26.62" height="37.41"/><line class="cls-7" x1="363.51" y1="746.4" x2="363.51" y2="783.79"/><rect class="cls-7" x="381.74" y="763.62" width="3.72" height="6.46"/><g class="cls-53"><path class="cls-7" d="m383.87,765.29c0,.15-.12.27-.27.27s-.27-.12-.27-.27.12-.27.27-.27.27.12.27.27Z"/><path class="cls-7" d="m383.87,768.17c0,.15-.12.27-.27.27s-.27-.12-.27-.27.12-.27.27-.27.27.12.27.27Z"/></g><rect class="cls-7" x="484.75" y="663.61" width="26.62" height="37.41"/><line class="cls-7" x1="498.43" y1="663.72" x2="498.43" y2="701.12"/><rect class="cls-7" x="516.65" y="680.95" width="3.72" height="6.46"/><g class="cls-57"><path class="cls-7" d="m518.78,682.62c0,.15-.12.27-.27.27s-.27-.12-.27-.27.12-.27.27-.27.27.12.27.27Z"/><path class="cls-7" d="m518.78,685.5c0,.15-.12.27-.27.27s-.27-.12-.27-.27.12-.27.27-.27.27.12.27.27Z"/></g><rect class="cls-7" x="334.69" y="581.22" width="26.62" height="37.41"/><line class="cls-7" x1="348.36" y1="581.33" x2="348.36" y2="618.73"/><rect class="cls-7" x="366.59" y="598.55" width="3.72" height="6.46"/><g class="cls-59"><path class="cls-7" d="m368.72,600.22c0,.15-.12.27-.27.27s-.27-.12-.27-.27.12-.27.27-.27.27.12.27.27Z"/><path class="cls-7" d="m368.72,603.1c0,.15-.12.27-.27.27s-.27-.12-.27-.27.12-.27.27-.27.27.12.27.27Z"/></g><rect class="cls-7" x="381.33" y="415.53" width="26.62" height="37.41"/><line class="cls-7" x1="395.01" y1="415.64" x2="395.01" y2="453.04"/><rect class="cls-7" x="413.23" y="433.42" width="3.72" height="6.46"/><g class="cls-58"><path class="cls-7" d="m415.37,435.09c0,.15-.12.27-.27.27s-.27-.12-.27-.27.12-.27.27-.27.27.12.27.27Z"/><path class="cls-7" d="m415.37,437.97c0,.15-.12.27-.27.27s-.27-.12-.27-.27.12-.27.27-.27.27.12.27.27Z"/><path class="cls-7" d="m330.46,675.54v14.29m21.53-3.57c0-1.48-1.21-2.68-2.69-2.68s-2.69,1.2-2.69,2.68m-35.88,0c0-1.48,1.2-2.68,2.69-2.68s2.69,1.2,2.69,2.68m32.29-2.57v-1c0-3.95-3.21-7.15-7.18-7.15h-19.73c-3.96,0-7.18,3.2-7.18,7.15v1.03m32.29,2.54v1.79c0,.99-.8,1.79-1.79,1.79h-26.91c-.99,0-1.79-.8-1.79-1.79v-1.79m-5.38,0v7.15c0,1.97,1.61,3.57,3.59,3.57h34.09c1.98,0,3.59-1.6,3.59-3.57v-7.15m-3.59,10.72v3.57m-34.09-3.57v3.57"/><path class="cls-7" d="m428.55,673.63c0,.35-.29.64-.64.64s-.64-.29-.64-.64.29-.64.64-.64.64.29.64.64Zm1.39-.63c-.16-.5-.75-.73-1.22-.46.11-.53-.29-1.01-.82-1.01s-.93.48-.82,1.01c-.47-.27-1.06-.04-1.22.46-.16.5.18,1.03.71,1.09-.4.36-.36.99.07,1.29.43.31,1.04.15,1.26-.34.22.49.83.65,1.26.34.43-.31.47-.94.07-1.29.54-.06.88-.58.71-1.09Zm-135.09,21.8h1.4m-3.93-6.95l.92.84m1.95-.84l-.78.86m-.61-1.21v1.04m8.74,0h-1.53m-5.11-2.43l1.05,1.39m4.54-1.39l-1.05,1.39m-2.1-2.43v1.74m4.19,4.86l.78.77m2.37.62h-1.05m.7-1.39l-.77.77m-.63-1.46v1.04m-7.69,4.87v-4.17h-2.45s-1.05,0-1.05-1.04v-2.08s0-1.04,1.05-1.04,1.05,1.04,1.05,1.04v1.04c0,.35.35.7.7.7h.7v-2.09c0-.35.35-2.43,2.45-2.43s2.45,2.08,2.45,2.43v4.17h1.4c1.05,0,.35-1.39,1.4-1.39.7,0,.7.7.7,1.04v.7c0,.35-.35,1.04-1.05,1.04h-2.45v2.08m.7,4.17h-6.29l-.7-4.17h7.69l-.7,4.17Z"/></g><polygon class="cls-9" points="429.41 679.78 426.25 679.78 425.55 677.06 430.12 677.06 429.41 679.78"/><g class="cls-62"><path class="cls-7" d="m427.74,676.83s-.04-.79.17-1.77"/></g><path class="cls-9" d="m332.3,755.72h-8.48v27.9h8.48v-27.9Zm-8.48,0h-8.48v27.9h8.48v-27.9Zm-8.48,0h-8.48v27.9h8.48v-27.9Z"/><path class="cls-7" d="m318.47,779.95h2.22m-2.22-2.42h2.22m-2.22-14.52h2.22m-2.22-2.42h2.22m-2.22-2.42h2.22"/><g class="cls-60"><path class="cls-13" d="m317.74,767.23c-.34,0-.61.27-.61.61s.27.61.61.61.61-.27.61-.61-.27-.61-.61-.61m0,.52s.09.04.09.09-.04.09-.09.09-.09-.04-.09-.09.04-.09.09-.09"/><path class="cls-10" d="m317.74,767.23c-.34,0-.61.27-.61.61s.27.61.61.61.61-.27.61-.61-.27-.61-.61-.61Zm0,.52s.09.04.09.09-.04.09-.09.09-.09-.04-.09-.09.04-.09.09-.09"/></g><path class="cls-7" d="m327.03,779.95h2.22m-2.22-2.42h2.22m-2.22-14.52h2.22m-2.22-2.42h2.22m-2.22-2.42h2.22"/><g class="cls-25"><path class="cls-13" d="m326.3,767.23c-.34,0-.61.27-.61.61s.27.61.61.61.61-.27.61-.61-.27-.61-.61-.61m0,.52s.09.04.09.09-.04.09-.09.09-.09-.04-.09-.09.04-.09.09-.09"/><path class="cls-10" d="m326.3,767.23c-.34,0-.61.27-.61.61s.27.61.61.61.61-.27.61-.61-.27-.61-.61-.61Zm0,.52s.09.04.09.09-.04.09-.09.09-.09-.04-.09-.09.04-.09.09-.09"/></g><path class="cls-7" d="m309.91,779.95h2.22m-2.22-2.42h2.22m-2.22-14.52h2.22m-2.22-2.42h2.22m-2.22-2.42h2.22"/><g class="cls-26"><path class="cls-13" d="m309.19,767.23c-.34,0-.61.27-.61.61s.27.61.61.61.61-.27.61-.61-.27-.61-.61-.61m0,.52s.09.04.09.09-.04.09-.09.09-.09-.04-.09-.09.04-.09.09-.09"/><path class="cls-10" d="m309.19,767.23c-.34,0-.61.27-.61.61s.27.61.61.61.61-.27.61-.61-.27-.61-.61-.61Zm0,.52s.09.04.09.09-.04.09-.09.09-.09-.04-.09-.09.04-.09.09-.09"/></g><path class="cls-7" d="m502.69,604.93v1.76m-3.11,0h6.22m24.96,11.8h-33.54v-11.58h33.54v11.58Z"/><line class="cls-9" x1="497.24" y1="602.1" x2="507.98" y2="602.1"/><g class="cls-29"><path class="cls-7" d="m428.18,604.85v1.77m-3.12,0h6.25m25.07,11.87h-33.68v-11.64h33.68v11.64Zm50.15-20.72c.74,0,1.34.6,1.34,1.33v4.35c0,.78-.6,1.41-1.34,1.41h-8.04c-.74,0-1.34-.63-1.34-1.41v-4.35c0-.73.6-1.33,1.34-1.33h8.04Z"/></g><line class="cls-9" x1="422.72" y1="602.1" x2="433.46" y2="602.1"/><g class="cls-28"><path class="cls-7" d="m384.9,604.85v1.77m-3.12,0h6.24m25.03,11.87h-33.63v-11.64h33.63v11.64Zm18.96-20.72c.74,0,1.34.6,1.34,1.33v4.35c0,.78-.6,1.41-1.34,1.41h-8.02c-.74,0-1.34-.63-1.34-1.41v-4.35c0-.73.6-1.33,1.34-1.33h8.02Z"/></g><line class="cls-9" x1="379.44" y1="602.1" x2="390.18" y2="602.1"/><g class="cls-27"><path class="cls-7" d="m493.21,452.75h5.28m-10.56-13.21h15.85m-7.92,12.55v-12.55m17.66,3.96l1.98,9.25m0-20.47l-1.98,11.23h-7.26v9.25m-22.94-9.25l-1.98,9.25m0-20.47l1.98,11.23h7.26v9.25m-57.35,0h5.28m-10.56-13.21h15.85m-7.92,12.55v-12.55m12.54,3.96l1.98,9.25m0-20.47l-1.98,11.23h-7.26v9.25m-17.83-9.25l-1.98,9.25m0-20.47l1.98,11.23h7.26v9.25m-47.03,65.66c0,.64-.52,1.16-1.16,1.16s-1.16-.52-1.16-1.16.52-1.16,1.16-1.16,1.16.52,1.16,1.16Zm85.57,17.23s2.77-5.99,9.24-5.99,9.24,5.99,9.24,5.99m-9.24.13v-12.12m-89.44,73.89c.74,0,1.34.6,1.34,1.34v4.39c0,.79-.6,1.42-1.34,1.42h-8.04c-.74,0-1.34-.63-1.34-1.42v-4.39c0-.74.6-1.34,1.34-1.34h8.04Z"/></g><line class="cls-7" x1="444.84" y1="532.16" x2="444.84" y2="529.32"/><g class="cls-30"><path class="cls-14" d="m450,528.28c0,.45-.38.82-.86.82h-8.57c-.47,0-.86-.36-.86-.82v-1.23c0-.45.38-.82.86-.82,2.95-.55,5.81-.55,8.57,0,.47,0,.86.37.86.82v1.23Z"/><path class="cls-9" d="m450,528.28c0,.45-.38.82-.86.82h-8.57c-.47,0-.86-.36-.86-.82v-1.23c0-.45.38-.82.86-.82,2.95-.55,5.81-.55,8.57,0,.47,0,.86.37.86.82v1.23Z"/><path class="cls-7" d="m445.63,533.59c0-.42-.34-.76-.76-.76s-.76.34-.76.76.34.76.76.76.76-.34.76-.76Z"/><path class="cls-7" d="m450,533.59c0-.42-.34-.76-.76-.76s-.76.34-.76.76.34.76.76.76.76-.34.76-.76Z"/><path class="cls-7" d="m441.25,533.59c0-.42-.34-.76-.76-.76s-.76.34-.76.76.34.76.76.76.76-.34.76-.76Z"/><path class="cls-7" d="m440.6,532.6s1.28-1.53,4.26-1.53,4.27,1.53,4.27,1.53"/></g><line class="cls-7" x1="430.49" y1="532.16" x2="430.49" y2="529.32"/><g class="cls-41"><path class="cls-14" d="m424.86,525.63s-2.21-7.78-2.33-8.63c-.15-1.11-.55-2.83,1-2.9.09,0,3.13,13.23,3.13,13.23l-1.27.38-.52-2.07Z"/><path class="cls-9" d="m424.86,525.63s-2.21-7.78-2.33-8.63c-.15-1.11-.55-2.83,1-2.9.09,0,3.13,13.23,3.13,13.23l-1.27.38-.52-2.07Z"/><path class="cls-7" d="m431.27,533.59c0-.42-.34-.76-.76-.76s-.76.34-.76.76.34.76.76.76.76-.34.76-.76Z"/><path class="cls-7" d="m435.64,533.59c0-.42-.34-.76-.76-.76s-.76.34-.76.76.34.76.76.76.76-.34.76-.76Z"/><path class="cls-7" d="m426.89,533.59c0-.42-.34-.76-.76-.76s-.76.34-.76.76.34.76.76.76.76-.34.76-.76Z"/><path class="cls-7" d="m426.24,532.6s1.28-1.53,4.26-1.53,4.27,1.53,4.27,1.53"/><path class="cls-14" d="m435.64,528.28c0,.45-.38.82-.86.82h-8.57c-.47,0-.86-.36-.86-.82v-1.23c0-.45.38-.82.86-.82,2.95-.55,5.81-.55,8.57,0,.47,0,.86.37.86.82v1.23Z"/><path class="cls-9" d="m435.64,528.28c0,.45-.38.82-.86.82h-8.57c-.47,0-.86-.36-.86-.82v-1.23c0-.45.38-.82.86-.82,2.95-.55,5.81-.55,8.57,0,.47,0,.86.37.86.82v1.23Z"/></g><line class="cls-7" x1="526.05" y1="533.47" x2="526.05" y2="530.63"/><g class="cls-39"><path class="cls-9" d="m531.79,526.94s2.21-7.78,2.33-8.63c.15-1.11.55-2.83-1-2.9-.09,0-3.13,13.23-3.13,13.23l1.27.38.52-2.07Z"/><path class="cls-14" d="m525.39,534.9c0-.42.34-.76.76-.76s.76.34.76.76-.34.76-.76.76-.76-.34-.76-.76"/><path class="cls-7" d="m525.39,534.9c0-.42.34-.76.76-.76s.76.34.76.76-.34.76-.76.76-.76-.34-.76-.76Z"/><path class="cls-14" d="m521.01,534.9c0-.42.34-.76.76-.76s.76.34.76.76-.34.76-.76.76-.76-.34-.76-.76"/><path class="cls-7" d="m521.01,534.9c0-.42.34-.76.76-.76s.76.34.76.76-.34.76-.76.76-.76-.34-.76-.76Z"/><path class="cls-14" d="m529.76,534.9c0-.42.34-.76.76-.76s.76.34.76.76-.34.76-.76.76-.76-.34-.76-.76"/><path class="cls-7" d="m529.76,534.9c0-.42.34-.76.76-.76s.76.34.76.76-.34.76-.76.76-.76-.34-.76-.76Z"/><path class="cls-7" d="m530.41,533.91s-1.28-1.53-4.27-1.53-4.27,1.53-4.27,1.53"/><path class="cls-14" d="m521.01,529.59c0,.45.38.82.86.82h8.57c.47,0,.86-.36.86-.82v-1.23c0-.45-.38-.82-.86-.82-2.95-.55-5.81-.55-8.57,0-.47,0-.86.37-.86.82v1.23Z"/><path class="cls-9" d="m521.01,529.59c0,.45.38.82.86.82h8.57c.47,0,.86-.36.86-.82v-1.23c0-.45-.38-.82-.86-.82-2.95-.55-5.81-.55-8.57,0-.47,0-.86.37-.86.82v1.23Z"/></g><line class="cls-7" x1="493.82" y1="532.16" x2="493.82" y2="529.32"/><g class="cls-40"><path class="cls-9" d="m499.03,528.28c0,.45-.38.82-.86.82h-8.57c-.47,0-.86-.36-.86-.82v-1.23c0-.45.38-.82.86-.82,2.95-.55,5.81-.55,8.57,0,.47,0,.86.37.86.82v1.23Z"/><path class="cls-14" d="m494.65,533.59c0-.42-.34-.76-.76-.76s-.76.34-.76.76.34.76.76.76.76-.34.76-.76"/><path class="cls-7" d="m494.65,533.59c0-.42-.34-.76-.76-.76s-.76.34-.76.76.34.76.76.76.76-.34.76-.76Z"/><path class="cls-14" d="m499.03,533.59c0-.42-.34-.76-.76-.76s-.76.34-.76.76.34.76.76.76.76-.34.76-.76"/><path class="cls-7" d="m499.03,533.59c0-.42-.34-.76-.76-.76s-.76.34-.76.76.34.76.76.76.76-.34.76-.76Z"/><path class="cls-14" d="m490.27,533.59c0-.42-.34-.76-.76-.76s-.76.34-.76.76.34.76.76.76.76-.34.76-.76"/><path class="cls-7" d="m490.27,533.59c0-.42-.34-.76-.76-.76s-.76.34-.76.76.34.76.76.76.76-.34.76-.76Z"/><path class="cls-7" d="m488.05,780.66c0,1.09-.88,1.98-1.96,1.98s-1.96-.88-1.96-1.98.88-1.97,1.96-1.97,1.96.88,1.96,1.97Zm-6.38-15.35l4.51,13.39m-13.21-7.48l3.51,4.27c.24.25.42.71.47,1.02,0,0,.22,3.04.29,4.15.07,1.15-.37,1.55-1.14,1.64-.83.1-1.43-.39-1.55-1.29l-.4-3.8-1.28-1.47m7.55-7.35l-3.36-1.26s-1.2-2.34-2.1-3.86c-.56-.95-2-1.74-3.71-.6-1.94,1.29-2.96,6.5-2.96,6.5-.18.58-.19,1.07-.12,1.71l1.01,4.76s-2.24,3.28-2.92,4.27c-.52.76-.49,1.75.18,2.23.27.2.56.29.85.29.48,0,.95-.26,1.36-.71.87-.97,2.92-3.19,3.76-4.31.42-.56.48-1.07.46-1.67-.02-.89.04-4.34.04-4.34l.97-3.29.62,1.03c.23.35.58.6.98.71l4.3.97c.89.21,1.48-.19,1.6-.85.17-.85-.21-1.35-.97-1.58Zm9.03-235.57s1.3-1.75,4.35-1.75,4.35,1.75,4.35,1.75"/><path class="cls-9" d="m481.73,766.01c-.95.31-1.46,1.32-1.16,2.27l.11.33m.63,1.93l.07.21c.31.95,1.32,1.47,2.27,1.16m.96,1.85l6.53-2.2-2.04-6.07-6.53,2.2,2.04,6.07Zm3.04-1.04l.53,1.58,1.93-.66-.53-1.57m-1.41,8.83l7-2.36-2.53-7.5-8.07,2.72,1.66,4.96"/><path class="cls-10" d="m473.38,757.22c.17-1.55,1.41-3.04,3.35-2.83,1.91.21,2.42,1.88,2.25,3.44"/></g><path class="cls-5" d="m476.76,754.34l.03-.21m-3.66,3.02l7.96.79"/><g class="cls-42"><path class="cls-9" d="m484.75,766.74l.53,1.58,1.93-.66-.53-1.57m-7.55-8.21c.01.12.02.25.02.37,0,1.66-1.34,3-2.99,3s-2.99-1.34-2.99-3c0-.34.06-.67.16-.97"/><path class="cls-7" d="m467.28,441.08l-3.76,4.57c-.26.27-.45.75-.5,1.09,0,0-.24,3.25-.32,4.44-.08,1.22.39,1.65,1.23,1.75.89.1,1.53-.41,1.66-1.38l.42-4.06,1.37-1.57m-8.09-7.86l3.6-1.34s1.29-2.5,2.25-4.12c.6-1.01,2.14-1.86,3.98-.65,2.08,1.37,3.17,6.95,3.17,6.95.19.62.21,1.14.13,1.83l-1.08,5.09s2.41,3.51,3.13,4.56c.56.82.53,1.87-.2,2.38-.3.21-.6.31-.91.31-.51,0-1.02-.27-1.46-.76-.93-1.03-3.13-3.41-4.03-4.6-.45-.6-.51-1.14-.5-1.78.02-.96-.05-4.63-.05-4.63l-1.04-3.52-.66,1.1c-.25.37-.62.64-1.06.75l-4.61,1.04c-.95.22-1.58-.21-1.72-.91-.18-.9.23-1.45,1.04-1.69Z"/><path class="cls-7" d="m462.14,426.86c0,1.71,1.38,3.09,3.09,3.09s3.09-1.38,3.09-3.09-1.38-3.09-3.09-3.09-3.09,1.38-3.09,3.09Z"/><path class="cls-7" d="m368.55,441.74l-3.48,4.23c-.24.25-.42.7-.47,1.01,0,0-.22,3.01-.29,4.11-.07,1.13.36,1.53,1.14,1.62.82.1,1.42-.38,1.54-1.28l.39-3.76,1.27-1.45m-7.49-7.28l3.34-1.25s1.19-2.32,2.09-3.82c.56-.94,1.98-1.73,3.68-.6,1.93,1.27,2.94,6.43,2.94,6.43.18.57.19,1.06.12,1.69l-1,4.72s2.23,3.25,2.9,4.23c.52.76.49,1.73-.18,2.21-.27.2-.56.29-.84.29-.48,0-.95-.25-1.35-.71-.86-.96-2.9-3.16-3.73-4.26-.42-.55-.47-1.06-.46-1.65.02-.88-.04-4.29-.04-4.29l-.96-3.26-.61,1.02c-.23.34-.58.59-.98.7l-4.27.96c-.88.2-1.46-.19-1.59-.84-.17-.84.21-1.34.97-1.56Z"/><path class="cls-7" d="m363.79,428.57c0,1.58,1.28,2.86,2.86,2.86s2.86-1.28,2.86-2.86-1.28-2.86-2.86-2.86-2.86,1.28-2.86,2.86Z"/><path class="cls-14" d="m323.35,604.42l3.34-1.25s1.19-2.32,2.09-3.82c.56-.94,1.98-1.73,3.68-.6,1.93,1.27,2.94,6.43,2.94,6.43.18.57.19,1.06.12,1.69l-1,4.72s2.23,3.25,2.9,4.23c.52.76.49,1.73-.18,2.21-.27.2-.56.29-.84.29-.48,0-.95-.25-1.35-.71-.86-.96-2.9-3.16-3.73-4.26-.42-.55-.47-1.06-.46-1.65.02-.88-.04-4.29-.04-4.29l-.96-3.26-.61,1.02c-.23.34-.58.59-.98.7l-4.27.96c-.88.2-1.46-.19-1.59-.84-.17-.84.21-1.34.97-1.56"/><path class="cls-7" d="m323.35,604.42l3.34-1.25s1.19-2.32,2.09-3.82c.56-.94,1.98-1.73,3.68-.6,1.93,1.27,2.94,6.43,2.94,6.43.18.57.19,1.06.12,1.69l-1,4.72s2.23,3.25,2.9,4.23c.52.76.49,1.73-.18,2.21-.27.2-.56.29-.84.29-.48,0-.95-.25-1.35-.71-.86-.96-2.9-3.16-3.73-4.26-.42-.55-.47-1.06-.46-1.65.02-.88-.04-4.29-.04-4.29l-.96-3.26-.61,1.02c-.23.34-.58.59-.98.7l-4.27.96c-.88.2-1.46-.19-1.59-.84-.17-.84.21-1.34.97-1.56Z"/><path class="cls-14" d="m330.65,607.32l-3.35,4.19c-.23.25-.4.69-.45,1,0,0-.21,2.99-.28,4.07-.07,1.12.35,1.52,1.1,1.6.79.1,1.36-.38,1.48-1.27l.38-3.72,1.22-1.44"/><path class="cls-7" d="m330.65,607.32l-3.35,4.19c-.23.25-.4.69-.45,1,0,0-.21,2.99-.28,4.07-.07,1.12.35,1.52,1.1,1.6.79.1,1.36-.38,1.48-1.27l.38-3.72,1.22-1.44"/><path class="cls-14" d="m325.99,594.04c0,1.58,1.28,2.86,2.86,2.86s2.86-1.28,2.86-2.86-1.28-2.86-2.86-2.86-2.86,1.28-2.86,2.86"/><path class="cls-7" d="m325.99,594.04c0,1.58,1.28,2.86,2.86,2.86s2.86-1.28,2.86-2.86-1.28-2.86-2.86-2.86-2.86,1.28-2.86,2.86Z"/><path class="cls-14" d="m467.31,585.33l3.41-1.03s1.34-2.23,2.32-3.68c.62-.9,2.09-1.59,3.71-.36,1.84,1.39,2.52,6.61,2.52,6.61.14.58.12,1.07,0,1.69l-1.3,4.64s2.02,3.39,2.62,4.4c.47.79.38,1.76-.32,2.19-.29.18-.58.25-.86.23-.47-.03-.93-.31-1.3-.79-.8-1.01-2.69-3.34-3.45-4.5-.38-.58-.4-1.09-.35-1.68.08-.88.23-4.29.23-4.29l-.75-3.31-.68.98c-.25.33-.61.55-1.02.63l-4.32.68c-.89.15-1.45-.29-1.53-.94-.11-.85.3-1.32,1.07-1.5"/><path class="cls-7" d="m467.31,585.33l3.41-1.03s1.34-2.23,2.32-3.68c.62-.9,2.09-1.59,3.71-.36,1.84,1.39,2.52,6.61,2.52,6.61.14.58.12,1.07,0,1.69l-1.3,4.64s2.02,3.39,2.62,4.4c.47.79.38,1.76-.32,2.19-.29.18-.58.25-.86.23-.47-.03-.93-.31-1.3-.79-.8-1.01-2.69-3.34-3.45-4.5-.38-.58-.4-1.09-.35-1.68.08-.88.23-4.29.23-4.29l-.75-3.31-.68.98c-.25.33-.61.55-1.02.63l-4.32.68c-.89.15-1.45-.29-1.53-.94-.11-.85.3-1.32,1.07-1.5Z"/><path class="cls-14" d="m474.41,588.7l-3.63,3.96c-.25.23-.45.66-.51.97,0,0-.4,2.96-.54,4.04-.14,1.12.26,1.54,1,1.67.79.15,1.39-.29,1.57-1.16l.61-3.69,1.32-1.35"/><path class="cls-7" d="m474.41,588.7l-3.63,3.96c-.25.23-.45.66-.51.97,0,0-.4,2.96-.54,4.04-.14,1.12.26,1.54,1,1.67.79.15,1.39-.29,1.57-1.16l.61-3.69,1.32-1.35"/><path class="cls-14" d="m470.6,575.15c-.1,1.58,1.09,2.94,2.67,3.04,1.58.1,2.94-1.09,3.04-2.67.1-1.58-1.1-2.94-2.67-3.04-1.58-.1-2.94,1.09-3.04,2.67"/><path class="cls-7" d="m470.6,575.15c-.1,1.58,1.09,2.94,2.67,3.04,1.58.1,2.94-1.09,3.04-2.67.1-1.58-1.1-2.94-2.67-3.04-1.58-.1-2.94,1.09-3.04,2.67Z"/><path class="cls-7" d="m309.19,441.74l3.48,4.23c.24.25.42.7.47,1.01,0,0,.22,3.01.29,4.11.07,1.13-.36,1.53-1.14,1.62-.82.1-1.42-.38-1.54-1.28l-.39-3.76-1.27-1.45m7.49-7.28l-3.34-1.25s-1.19-2.32-2.09-3.82c-.56-.94-1.98-1.73-3.68-.6-1.93,1.27-2.94,6.43-2.94,6.43-.18.57-.19,1.06-.12,1.69l1,4.72s-2.23,3.25-2.9,4.23c-.52.76-.49,1.73.18,2.21.27.2.56.29.84.29.48,0,.95-.25,1.35-.71.86-.96,2.9-3.16,3.73-4.26.42-.55.47-1.06.46-1.65-.02-.88.04-4.29.04-4.29l.96-3.26.61,1.02c.23.34.58.59.98.7l4.27.96c.88.2,1.46-.19,1.59-.84.17-.84-.21-1.34-.97-1.56Z"/><path class="cls-7" d="m313.95,428.57c0,1.58-1.28,2.86-2.86,2.86s-2.86-1.28-2.86-2.86,1.28-2.86,2.86-2.86,2.86,1.28,2.86,2.86Z"/></g><path class="cls-7" d="m340.02,448.03l2.7,4.68m-5.79.31l3.09-4.99v-10.67m16.3,3.38h-34.6"/><g class="cls-50"><path class="cls-7" d="m320.14,438.73l-1.74-2.42m-.76,2.85l1.13-.73c.69.5,1.75.67,2.5.17.94-.62,1.18-1.87.53-2.77-.65-.91-1.94-1.13-2.88-.51-.75.5-.96,1.56-.72,2.36l-1.52,1.01m44.79-2.81l-2.81,1.16m2.89,1.51l-.61-1.44c.65-.55.98-1.52.62-2.33-.45-1.01-1.66-1.48-2.71-1.05s-1.54,1.6-1.09,2.61c.36.81,1.37,1.19,2.24,1.12l.65,1.45"/><path class="cls-7" d="m344.32,434.31c0,.28-.23.51-.51.51s-.51-.23-.51-.51.23-.51.51-.51.51.23.51.51Z"/><path class="cls-7" d="m440.07,436.29c.31,0,.61.25.61.57s-.23.57-.54.57m-.02-2.73l-.79-1.14m3.66,1.14h-3.38v.68h3.38v-.68Zm-.51,4.09h-2.25l-.23-3.41h2.7l-.22,3.41Z"/><path class="cls-7" d="m498.17,433.87l-.5-.51m-.25.51h2.25m0,4.6h-2.25l-.37-.38v-3.45l.75-.77h1.5l.75.77v3.45l-.38.38Zm-1.37-.89v.38m-.5-1.02v1.02m0-2.3h1.5m0,0c0,.42-.34.77-.75.77s-.75-.34-.75-.77.33-.77.75-.77.75.34.75.77Z"/><path class="cls-13" d="m499.21,432.62c-.07,0-.13.06-.13.13s.06.13.13.13.13-.06.13-.13-.06-.13-.13-.13"/><path class="cls-10" d="m499.21,432.62c-.07,0-.13.06-.13.13s.06.13.13.13.13-.06.13-.13-.06-.13-.13-.13Z"/><path class="cls-13" d="m498.94,433.15c-.07,0-.13.06-.13.13s.06.13.13.13.13-.06.13-.13-.06-.13-.13-.13"/><path class="cls-10" d="m498.94,433.15c-.07,0-.13.06-.13.13s.06.13.13.13.13-.06.13-.13-.06-.13-.13-.13Z"/><path class="cls-13" d="m498.68,432.35c-.07,0-.13.06-.13.13s.06.13.13.13.13-.06.13-.13-.06-.13-.13-.13"/><path class="cls-10" d="m498.68,432.35c-.07,0-.13.06-.13.13s.06.13.13.13.13-.06.13-.13-.06-.13-.13-.13Z"/></g><polyline class="cls-7" points="539.29 582.96 489.62 582.96 489.62 591.64 480.9 591.64 480.9 600.32 472.18 600.32 472.18 609 463.46 609 463.46 617.68"/><g class="cls-52"><path class="cls-9" d="m530.58,565.68c0-.16-.13-.3-.3-.3h-5.92c-.16,0-.3.13-.3.3v1.18c0,.16.13.3.3.3h1.2c.26,0,.48.16.56.4l.03.08c.08.24.31.4.56.4h1.22c.26,0,.48-.16.56-.4l.03-.08c.08-.24.31-.4.56-.4h1.2c.16,0,.3-.13.3-.3v-1.18Zm-5.04.59c0,.16-.13.29-.3.29s-.3-.13-.3-.29.13-.3.3-.3.3.13.3.3Zm2.22.59c0,.24-.2.44-.45.44s-.44-.2-.44-.44.2-.44.44-.44.45.2.45.44Zm2.22.3v1.18m0,.59v2.07h-5.33v-3.84"/><path class="cls-13" d="m528.98,566.08c-.08,0-.15.07-.15.15s.07.15.15.15.15-.07.15-.15-.07-.15-.15-.15"/><path class="cls-10" d="m528.98,566.08c-.08,0-.15.07-.15.15s.07.15.15.15.15-.07.15-.15-.07-.15-.15-.15Z"/><path class="cls-13" d="m529.59,566.08c-.08,0-.15.07-.15.15s.07.15.15.15.15-.07.15-.15-.07-.15-.15-.15"/><path class="cls-10" d="m529.59,566.08c-.08,0-.15.07-.15.15s.07.15.15.15.15-.07.15-.15-.07-.15-.15-.15Z"/><path class="cls-9" d="m527.92,568.11h-1.18v.88h1.18v-.88Zm.45,1.9c0,.57-.47,1.02-1.04,1.02s-1.04-.46-1.04-1.02v-.15h2.07v.15Zm2.22,1.9c0,.16-.13.29-.3.29h-5.92c-.16,0-.3-.13-.3-.29v-.59c0-.16.13-.29.3-.29h5.92c.16,0,.3.13.3.29v.59Z"/></g><path class="cls-7" d="m530.58,568.93h-1.31v-.52h1.31v.52Zm-2.61-.26h1.31m-1.89.26v.26"/><g class="cls-49"><path class="cls-9" d="m528.38,569.92h.34c.19,0,.35.14.35.31s-.16.31-.35.31h-.07"/></g><rect class="cls-7" x="506.3" y="572.67" width="26.33" height="9.91"/><g class="cls-48"><path class="cls-7" d="m465.04,586.79h.37c.28,0,.45-.25.45-.52s-.17-.52-.45-.52h-.37m0,1.12v-1.26h-2.24v1.26c0,.62.5,1.12,1.12,1.12s1.12-.5,1.12-1.12Zm55.46-15.72h.37c.28,0,.45-.25.45-.52s-.17-.52-.45-.52h-.37m0,1.12v-1.26h-2.25v1.26c0,.62.5,1.12,1.12,1.12s1.12-.5,1.12-1.12Z"/><path class="cls-9" d="m436.75,438.37h-1.68v.46h1.68v-.46Zm1.44-1.86h-4.55c.14,1.06,1.07,1.86,2.17,1.86h.21c1.1,0,2.04-.8,2.17-1.86Z"/><path class="cls-7" d="m433.35,433.29l4.38,1.22m-4.45-.27l4.51.59m-2.52,1.52c.43-.63-.53-1.11.03-1.77l.06-.07m.42.07c-.56.66.41,1.14-.03,1.77m.46-1.71c-.45.63.43,1.11.02,1.71m.42-1.64c-.34.59.47,1.05.06,1.64"/><path class="cls-7" d="m421.76,427.21c0,1.59,1.29,2.88,2.88,2.88s2.88-1.29,2.88-2.88-1.29-2.88-2.88-2.88-2.88,1.29-2.88,2.88Z"/><path class="cls-14" d="m422.72,435.87l.8,4.44c.21.71.63,2.1,1.8,2.35l5.3.61,2.25,6.33s.51.63,1.41.13c.5-.28.88-.81.67-1.32l-2.62-8c-.12-.26-.45-.48-.74-.5l-3.98-.56-.39-3.18.93.73c.16.12.42.22.63.16,1.44-.41,3.74-1.3,5.03-1.76.39-.14.71-.68.57-1.23-.18-.73-.72-.85-1.02-.81-.99.12-4.36.73-4.36.73,0,0-2.01-1.84-2.82-2.54-.99-.86-3.04-.61-3.7.21-.48.6-.36,1.29-.36,1.29l.57,2.92Z"/><path class="cls-9" d="m422.72,435.87l.8,4.44c.21.71.63,2.1,1.8,2.35l5.3.61,2.25,6.33s.51.63,1.41.13c.5-.28.88-.81.67-1.32l-2.62-8c-.12-.26-.45-.48-.74-.5l-3.98-.56-.39-3.18.93.73c.16.12.42.22.63.16,1.44-.41,3.74-1.3,5.03-1.76.39-.14.71-.68.57-1.23-.18-.73-.72-.85-1.02-.81-.99.12-4.36.73-4.36.73,0,0-2.01-1.84-2.82-2.54-.99-.86-3.04-.61-3.7.21-.48.6-.36,1.29-.36,1.29l.57,2.92Z"/><path class="cls-7" d="m516.29,427.21c0,1.59-1.29,2.88-2.88,2.88s-2.88-1.29-2.88-2.88,1.29-2.88,2.88-2.88,2.88,1.29,2.88,2.88Z"/><path class="cls-14" d="m514.06,435.87l-.8,4.44c-.21.71-.63,2.1-1.8,2.35l-5.31.61-3.73,6.36s-.52.63-1.41.13c-.5-.28-.89-.81-.67-1.32l4.09-8.03c.12-.26.46-.48.74-.5l3.99-.56.39-3.18-.93.73c-.16.12-.42.22-.63.16-1.44-.41-3.74-1.3-5.04-1.76-.39-.14-.71-.68-.58-1.23.18-.73.72-.85,1.02-.81.99.12,4.36.73,4.36.73,0,0,2.01-1.84,2.82-2.54,1-.86,3.05-.61,3.71.21.48.6.36,1.29.36,1.29l-.57,2.92Z"/><path class="cls-9" d="m514.06,435.87l-.8,4.44c-.21.71-.63,2.1-1.8,2.35l-5.31.61-3.73,6.36s-.52.63-1.41.13c-.5-.28-.89-.81-.67-1.32l4.09-8.03c.12-.26.46-.48.74-.5l3.99-.56.39-3.18-.93.73c-.16.12-.42.22-.63.16-1.44-.41-3.74-1.3-5.04-1.76-.39-.14-.71-.68-.58-1.23.18-.73.72-.85,1.02-.81.99.12,4.36.73,4.36.73,0,0,2.01-1.84,2.82-2.54,1-.86,3.05-.61,3.71.21.48.6.36,1.29.36,1.29l-.57,2.92Z"/><path class="cls-7" d="m532.44,511.96c0,1.59-1.29,2.88-2.88,2.88s-2.88-1.29-2.88-2.88,1.29-2.88,2.88-2.88,2.88,1.29,2.88,2.88Z"/><path class="cls-14" d="m466.28,513.16c0,1.59-1.29,2.88-2.88,2.88s-2.88-1.29-2.88-2.88,1.29-2.88,2.88-2.88,2.88,1.29,2.88,2.88"/><path class="cls-7" d="m466.28,513.16c0,1.59-1.29,2.88-2.88,2.88s-2.88-1.29-2.88-2.88,1.29-2.88,2.88-2.88,2.88,1.29,2.88,2.88Z"/><path class="cls-14" d="m530.21,520.62l-.8,4.44c-.21.71-.63,2.1-1.8,2.35l-5.31.61-3.72,6.36s-.52.63-1.41.13c-.5-.28-.89-.81-.67-1.32l4.09-8.03c.12-.26.46-.48.74-.5l3.99-.56.39-3.18-.93.73c-.16.12-.42.22-.63.16-1.44-.41-3.74-1.3-5.04-1.76-.39-.14-.71-.68-.58-1.23.18-.73.72-.85,1.02-.81.99.12,4.36.73,4.36.73,0,0,2.01-1.84,2.82-2.54,1-.86,3.05-.61,3.71.21.48.6.36,1.29.36,1.29l-.57,2.92Z"/><path class="cls-9" d="m530.21,520.62l-.8,4.44c-.21.71-.63,2.1-1.8,2.35l-5.31.61-3.72,6.36s-.52.63-1.41.13c-.5-.28-.89-.81-.67-1.32l4.09-8.03c.12-.26.46-.48.74-.5l3.99-.56.39-3.18-.93.73c-.16.12-.42.22-.63.16-1.44-.41-3.74-1.3-5.04-1.76-.39-.14-.71-.68-.58-1.23.18-.73.72-.85,1.02-.81.99.12,4.36.73,4.36.73,0,0,2.01-1.84,2.82-2.54,1-.86,3.05-.61,3.71.21.48.6.36,1.29.36,1.29l-.57,2.92Z"/></g><rect class="cls-7" x="322.07" y="403.4" width="35.13" height="19.19"/><rect class="cls-7" x="455.51" y="483.71" width="44.28" height="19.17"/><rect class="cls-7" x="438.7" y="403.36" width="15.77" height="19.27"/><g class="cls-43"><path class="cls-7" d="m446.84,410.18c0-.18.15-.17.33-.17s.33-.02.33.17m-2,0c0-.18.15-.17.33-.17s.33-.02.33.17m1.66,2.3c0,1-1.33,2.53-1.33,2.53m-1.33-2.53c0,1,1.33,2.53,1.33,2.53m.82-2.75c1.5.67,3,1.08,3,2.25v.5h-7.65v-.5c0-1.17,1.51-1.58,3-2.25m1.65,0c-.3.21-.6.34-.82.42m1.5-3.33c-1.33,0-1.33-.5-1.5-.67-.17.17-.17.67-1.5.67l-.17.66c-.5,0-.5,1,0,1,.17,1,1.17,1.5,1.66,1.66m2.49-.66c.44.07.93-.1,1.17-.67-.32,0-.52-.24-.67-.61m-.42-1.56c-.3-1.17-.8-2.21-2.57-1.33-3.33-1.66-2.16,3.49-3.66,3.49.5,1.16,2.03.66,2.03-.17m2.13.5h-.67m2.83-1.5c0,.27-.22.5-.5.5h-.33v-1h.33c.28,0,.5.22.5.5Zm-.5.5v.33c-.06.31-.35.67-.67.67h-1"/></g><rect class="cls-7" x="439.93" y="404.86" width="13.31" height="16.26"/><g class="cls-44"><path class="cls-7" d="m494.06,410.2c0-.19.15-.17.35-.17s.35-.02.35.17m-2.08,0c0-.19.15-.17.35-.17s.35-.02.35.17m-.54,2.08l-2.2.6c-.54.2-.9.72-.9,1.3v.86h7.96v-.86c0-.58-.36-1.09-.9-1.3l-2.2-.61m1.19-2.16l.18-1.3s.17-1.73-2.25-1.73-2.25,1.73-2.25,1.73l.18,1.3m2.07,2.51c.52,0,1.73-.69,1.73-1.73.52,0,.52-1.04,0-1.04l-.17-.86c-1.39,0-1.39-.52-1.56-.69-.17.17-.17.69-1.56.69l-.17.86c-.52,0-.52,1.04,0,1.04,0,1.04,1.21,1.73,1.73,1.73Z"/><path class="cls-9" d="m495.67,414.02h1.21m-3.64-1.54v.51c0,.28.23.51.52.51s.52-.23.52-.51v-.51m-.52,1.03l-1.04,1.54h2.08l-1.04-1.54Z"/></g><line class="cls-5" x1="449.42" y1="417.05" x2="443.34" y2="417.05"/><line class="cls-5" x1="449.42" y1="418.45" x2="443.34" y2="418.45"/><rect class="cls-7" x="485.82" y="403.36" width="15.77" height="19.27"/><rect class="cls-7" x="487.05" y="404.86" width="13.31" height="16.26"/><line class="cls-5" x1="496.54" y1="417.05" x2="490.46" y2="417.05"/><line class="cls-5" x1="496.54" y1="418.45" x2="490.46" y2="418.45"/><line class="cls-9" x1="307.24" y1="522.85" x2="317.29" y2="507.29"/><g class="cls-45"><path class="cls-14" d="m308.13,521.85l-3.34-1.25s-1.19-2.32-2.09-3.82c-.56-.94-1.98-1.73-3.68-.6-1.93,1.27-2.94,6.43-2.94,6.43-.18.57-.19,1.06-.12,1.69l1,4.72s-2.23,3.25-2.9,4.23c-.52.76-.49,1.73.18,2.21.27.2.56.29.84.29.48,0,.95-.25,1.35-.71.86-.96,2.9-3.16,3.73-4.26.42-.55.47-1.06.46-1.65-.02-.88.04-4.29.04-4.29l.96-3.26.61,1.02c.23.34.58.59.98.7l4.27.96c.88.2,1.46-.19,1.59-.84.17-.84-.21-1.34-.97-1.56"/><path class="cls-7" d="m308.13,521.85l-3.34-1.25s-1.19-2.32-2.09-3.82c-.56-.94-1.98-1.73-3.68-.6-1.93,1.27-2.94,6.43-2.94,6.43-.18.57-.19,1.06-.12,1.69l1,4.72s-2.23,3.25-2.9,4.23c-.52.76-.49,1.73.18,2.21.27.2.56.29.84.29.48,0,.95-.25,1.35-.71.86-.96,2.9-3.16,3.73-4.26.42-.55.47-1.06.46-1.65-.02-.88.04-4.29.04-4.29l.96-3.26.61,1.02c.23.34.58.59.98.7l4.27.96c.88.2,1.46-.19,1.59-.84.17-.84-.21-1.34-.97-1.56Z"/><path class="cls-14" d="m300.84,524.75l3.35,4.19c.23.25.4.69.45,1,0,0,.21,2.99.28,4.07.07,1.12-.35,1.52-1.1,1.6-.79.1-1.36-.38-1.48-1.27l-.38-3.72-1.22-1.44"/><path class="cls-7" d="m300.84,524.75l3.35,4.19c.23.25.4.69.45,1,0,0,.21,2.99.28,4.07.07,1.12-.35,1.52-1.1,1.6-.79.1-1.36-.38-1.48-1.27l-.38-3.72-1.22-1.44"/><path class="cls-14" d="m305.5,511.47c0,1.58-1.28,2.86-2.86,2.86s-2.86-1.28-2.86-2.86,1.28-2.86,2.86-2.86,2.86,1.28,2.86,2.86"/><path class="cls-7" d="m305.5,511.47c0,1.58-1.28,2.86-2.86,2.86s-2.86-1.28-2.86-2.86,1.28-2.86,2.86-2.86,2.86,1.28,2.86,2.86Z"/><path class="cls-14" d="m466.33,533.51v-6.32c1.1,0,1.65-.65,1.65-1.47v-3.02c.01-2.56-2.01-5.7-4.01-5.89h-1.42c-2.01.19-4.4,3.33-4.4,5.89v3.02c.01.82.58,1.47,1.65,1.47v6.33c0,.91.73,1.65,1.63,1.65s1.63-.74,1.63-1.65c0,.91.73,1.65,1.63,1.65s1.65-.49,1.65-1.65"/><path class="cls-9" d="m466.33,533.51v-6.32c1.1,0,1.65-.65,1.65-1.47v-3.02c.01-2.56-2.01-5.7-4.01-5.89h-1.42c-2.01.19-4.4,3.33-4.4,5.89v3.02c.01.82.58,1.47,1.65,1.47v6.33c0,.91.73,1.65,1.63,1.65s1.63-.74,1.63-1.65c0,.91.73,1.65,1.63,1.65s1.65-.49,1.65-1.65Z"/><path class="cls-14" d="m511.88,513.16c0,1.59-1.29,2.88-2.88,2.88s-2.88-1.29-2.88-2.88,1.29-2.88,2.88-2.88,2.88,1.29,2.88,2.88"/><path class="cls-7" d="m511.88,513.16c0,1.59-1.29,2.88-2.88,2.88s-2.88-1.29-2.88-2.88,1.29-2.88,2.88-2.88,2.88,1.29,2.88,2.88Z"/><path class="cls-14" d="m522.59,596.89c0,1.59-1.29,2.88-2.88,2.88s-2.88-1.29-2.88-2.88,1.29-2.88,2.88-2.88,2.88,1.29,2.88,2.88"/><path class="cls-7" d="m522.59,596.89c0,1.59-1.29,2.88-2.88,2.88s-2.88-1.29-2.88-2.88,1.29-2.88,2.88-2.88,2.88,1.29,2.88,2.88Z"/><path class="cls-14" d="m467.57,673.52c0,1.59-1.29,2.88-2.88,2.88s-2.88-1.29-2.88-2.88,1.29-2.88,2.88-2.88,2.88,1.29,2.88,2.88"/><path class="cls-7" d="m467.57,673.52c0,1.59-1.29,2.88-2.88,2.88s-2.88-1.29-2.88-2.88,1.29-2.88,2.88-2.88,2.88,1.29,2.88,2.88Z"/><path class="cls-14" d="m512.26,533.51v-6.32c1.1,0,1.65-.65,1.65-1.47v-3.02c.01-2.56-2.1-5.79-4.11-5.98h-1.42c-2.01.19-4.31,3.43-4.31,5.98v3.02c.01.82.58,1.47,1.65,1.47v6.33c0,.91.73,1.65,1.63,1.65s1.63-.74,1.63-1.65c0,.91.73,1.65,1.63,1.65s1.65-.49,1.65-1.65"/><path class="cls-9" d="m512.26,533.51v-6.32c1.1,0,1.65-.65,1.65-1.47v-3.02c.01-2.56-2.1-5.79-4.11-5.98h-1.42c-2.01.19-4.31,3.43-4.31,5.98v3.02c.01.82.58,1.47,1.65,1.47v6.33c0,.91.73,1.65,1.63,1.65s1.63-.74,1.63-1.65c0,.91.73,1.65,1.63,1.65s1.65-.49,1.65-1.65Z"/></g><line class="cls-9" x1="522.34" y1="523.31" x2="434.5" y2="523.31"/><line class="cls-7" x1="401.02" y1="615.31" x2="401.02" y2="612.47"/><g class="cls-46"><path class="cls-14" d="m406.15,611.43c0,.45-.38.82-.86.82h-8.57c-.47,0-.86-.36-.86-.82v-1.23c0-.45.38-.82.86-.82,2.95-.55,5.81-.55,8.57,0,.47,0,.86.37.86.82v1.23Z"/><path class="cls-9" d="m406.15,611.43c0,.45-.38.82-.86.82h-8.57c-.47,0-.86-.36-.86-.82v-1.23c0-.45.38-.82.86-.82,2.95-.55,5.81-.55,8.57,0,.47,0,.86.37.86.82v1.23Z"/></g><polyline class="cls-9" points="406.26 610.5 407.94 610.5 408.78 605.37"/><g class="cls-51"><path class="cls-14" d="m407.25,605.24h3.28c0-.84-.74-1.53-1.64-1.53s-1.64.69-1.64,1.53"/><path class="cls-9" d="m407.25,605.24h3.28c0-.84-.74-1.53-1.64-1.53s-1.64.69-1.64,1.53Z"/></g><polyline class="cls-9" points="395.76 610.5 394.08 610.5 393.24 605.37"/><g class="cls-47"><path class="cls-14" d="m394.77,605.24h-3.28c0-.84.74-1.53,1.64-1.53s1.64.69,1.64,1.53"/><path class="cls-9" d="m394.77,605.24h-3.28c0-.84.74-1.53,1.64-1.53s1.64.69,1.64,1.53Z"/><path class="cls-14" d="m398.01,608.82s-2.15-6.05-2.14-6.91c0-2.16,1.99-4.07,4.24-4.28.29-.03.58-.04.9-.04s.61.01.9.04c2.26.21,4.24,2.12,4.24,4.28,0,.86-2.14,6.91-2.14,6.91"/><path class="cls-9" d="m398.01,608.82s-2.15-6.05-2.14-6.91c0-2.16,1.99-4.07,4.24-4.28.29-.03.58-.04.9-.04s.61.01.9.04c2.26.21,4.24,2.12,4.24,4.28,0,.86-2.14,6.91-2.14,6.91"/><path class="cls-14" d="m401.77,616.74c0-.42-.34-.76-.76-.76s-.76.34-.76.76.34.76.76.76.76-.34.76-.76"/><path class="cls-7" d="m401.77,616.74c0-.42-.34-.76-.76-.76s-.76.34-.76.76.34.76.76.76.76-.34.76-.76Z"/><path class="cls-14" d="m406.15,616.74c0-.42-.34-.76-.76-.76s-.76.34-.76.76.34.76.76.76.76-.34.76-.76"/><path class="cls-7" d="m406.15,616.74c0-.42-.34-.76-.76-.76s-.76.34-.76.76.34.76.76.76.76-.34.76-.76Z"/><path class="cls-14" d="m397.39,616.74c0-.42-.34-.76-.76-.76s-.76.34-.76.76.34.76.76.76.76-.34.76-.76"/><path class="cls-7" d="m397.39,616.74c0-.42-.34-.76-.76-.76s-.76.34-.76.76.34.76.76.76.76-.34.76-.76Z"/><path class="cls-7" d="m396.74,615.75s1.28-1.53,4.26-1.53,4.27,1.53,4.27,1.53"/></g><line class="cls-7" x1="444.88" y1="615.31" x2="444.88" y2="612.47"/><g class="cls-33"><path class="cls-14" d="m450.05,611.43c0,.45-.38.82-.86.82h-8.57c-.47,0-.86-.36-.86-.82v-1.23c0-.45.38-.82.86-.82,2.95-.55,5.81-.55,8.57,0,.47,0,.86.37.86.82v1.23Z"/><path class="cls-9" d="m450.05,611.43c0,.45-.38.82-.86.82h-8.57c-.47,0-.86-.36-.86-.82v-1.23c0-.45.38-.82.86-.82,2.95-.55,5.81-.55,8.57,0,.47,0,.86.37.86.82v1.23Z"/></g><polyline class="cls-9" points="450.16 610.5 451.84 610.5 452.68 605.37"/><g class="cls-35"><path class="cls-14" d="m451.15,605.24h3.28c0-.84-.74-1.53-1.64-1.53s-1.64.69-1.64,1.53"/><path class="cls-9" d="m451.15,605.24h3.28c0-.84-.74-1.53-1.64-1.53s-1.64.69-1.64,1.53Z"/></g><polyline class="cls-9" points="439.66 610.5 437.98 610.5 437.14 605.37"/><g class="cls-34"><path class="cls-14" d="m438.67,605.24h-3.28c0-.84.74-1.53,1.64-1.53s1.64.69,1.64,1.53"/><path class="cls-9" d="m438.67,605.24h-3.28c0-.84.74-1.53,1.64-1.53s1.64.69,1.64,1.53Z"/><path class="cls-14" d="m441.91,608.82s-2.15-6.05-2.14-6.91c0-2.16,1.99-4.07,4.24-4.28.29-.03.58-.04.9-.04s.61.01.9.04c2.26.21,4.24,2.12,4.24,4.28,0,.86-2.14,6.91-2.14,6.91"/><path class="cls-9" d="m441.91,608.82s-2.15-6.05-2.14-6.91c0-2.16,1.99-4.07,4.24-4.28.29-.03.58-.04.9-.04s.61.01.9.04c2.26.21,4.24,2.12,4.24,4.28,0,.86-2.14,6.91-2.14,6.91"/><path class="cls-14" d="m445.67,616.74c0-.42-.34-.76-.76-.76s-.76.34-.76.76.34.76.76.76.76-.34.76-.76"/><path class="cls-7" d="m445.67,616.74c0-.42-.34-.76-.76-.76s-.76.34-.76.76.34.76.76.76.76-.34.76-.76Z"/><path class="cls-14" d="m450.05,616.74c0-.42-.34-.76-.76-.76s-.76.34-.76.76.34.76.76.76.76-.34.76-.76"/><path class="cls-7" d="m450.05,616.74c0-.42-.34-.76-.76-.76s-.76.34-.76.76.34.76.76.76.76-.34.76-.76Z"/><path class="cls-14" d="m441.29,616.74c0-.42-.34-.76-.76-.76s-.76.34-.76.76.34.76.76.76.76-.34.76-.76"/><path class="cls-7" d="m441.29,616.74c0-.42-.34-.76-.76-.76s-.76.34-.76.76.34.76.76.76.76-.34.76-.76Z"/><path class="cls-7" d="m440.64,615.75s1.28-1.53,4.26-1.53,4.27,1.53,4.27,1.53"/></g><line class="cls-7" x1="519.57" y1="615.31" x2="519.57" y2="612.47"/><g class="cls-37"><path class="cls-14" d="m524.81,611.43c0,.45-.38.82-.86.82h-8.57c-.47,0-.86-.36-.86-.82v-1.23c0-.45.38-.82.86-.82,2.95-.55,5.81-.55,8.57,0,.47,0,.86.37.86.82v1.23Z"/><path class="cls-9" d="m524.81,611.43c0,.45-.38.82-.86.82h-8.57c-.47,0-.86-.36-.86-.82v-1.23c0-.45.38-.82.86-.82,2.95-.55,5.81-.55,8.57,0,.47,0,.86.37.86.82v1.23Z"/></g><polyline class="cls-9" points="524.92 610.5 526.6 610.5 527.43 605.37"/><g class="cls-31"><path class="cls-14" d="m525.91,605.24h3.28c0-.84-.74-1.53-1.64-1.53s-1.64.69-1.64,1.53"/><path class="cls-9" d="m525.91,605.24h3.28c0-.84-.74-1.53-1.64-1.53s-1.64.69-1.64,1.53Z"/></g><polyline class="cls-9" points="514.41 610.5 512.74 610.5 511.9 605.37"/><g class="cls-32"><path class="cls-14" d="m513.43,605.24h-3.28c0-.84.74-1.53,1.64-1.53s1.64.69,1.64,1.53"/><path class="cls-9" d="m513.43,605.24h-3.28c0-.84.74-1.53,1.64-1.53s1.64.69,1.64,1.53Z"/><path class="cls-14" d="m516.67,608.82s-2.15-6.05-2.14-6.91c0-2.16,1.99-4.07,4.24-4.28.28-.03.58-.04.9-.04s.61.01.9.04c2.26.21,4.24,2.12,4.24,4.28,0,.86-2.14,6.91-2.14,6.91"/><path class="cls-9" d="m516.67,608.82s-2.15-6.05-2.14-6.91c0-2.16,1.99-4.07,4.24-4.28.28-.03.58-.04.9-.04s.61.01.9.04c2.26.21,4.24,2.12,4.24,4.28,0,.86-2.14,6.91-2.14,6.91"/><path class="cls-14" d="m520.43,616.74c0-.42-.34-.76-.76-.76s-.76.34-.76.76.34.76.76.76.76-.34.76-.76"/><path class="cls-7" d="m520.43,616.74c0-.42-.34-.76-.76-.76s-.76.34-.76.76.34.76.76.76.76-.34.76-.76Z"/><path class="cls-14" d="m524.81,616.74c0-.42-.34-.76-.76-.76s-.76.34-.76.76.34.76.76.76.76-.34.76-.76"/><path class="cls-7" d="m524.81,616.74c0-.42-.34-.76-.76-.76s-.76.34-.76.76.34.76.76.76.76-.34.76-.76Z"/><path class="cls-14" d="m516.05,616.74c0-.42-.34-.76-.76-.76s-.76.34-.76.76.34.76.76.76.76-.34.76-.76"/><path class="cls-7" d="m516.05,616.74c0-.42-.34-.76-.76-.76s-.76.34-.76.76.34.76.76.76.76-.34.76-.76Z"/><path class="cls-7" d="m515.4,615.75s1.28-1.53,4.26-1.53,4.27,1.53,4.27,1.53"/><path class="cls-7" d="m343.02,418l-5.59.07-.09-6.84,5.59-.07.09,6.84Zm-13.94-7.53h-3.31m3.31-1.51h-3.31m3.31-1.51h-3.31m4.45,5.05h-5.59v-6.84h5.59v6.84Zm160.11,77.75l.4-.4m3.08.5l-.4-.4m.3-3.08l-.4.4m-2.88-.3l.4.4m-1.1,1.15h.56m1.83,2.53v-.56m2.39-1.97h-.56m-1.83-2.25v.56m1.12,1.83c0,.62-.5,1.12-1.12,1.12s-1.13-.5-1.13-1.12.5-1.12,1.13-1.12,1.12.5,1.12,1.12Zm-28.74,6.89s-3.2,1.26-5.76.1c-2.56-1.16-3.4-2.41-3.4-2.41m44.43,2.31s-3.74,1.87-8.67,3.35c-3.34,1-10.34.1-10.34.1m19.01-4.92s-7.44-1.82-12.36-.34c-3.34,1-6.64,2.91-6.64,2.91m-11.9-4.89v.35m-1.4-.35v.35m-1.4-.35v.35m7,1.75h7.7v9.09h-6.3m4.9-1.75c0-.58-.47-1.05-1.05-1.05s-1.05.47-1.05,1.05v1.75h2.1v-1.75Zm-3.5,1.75v-1.75c0-.58-.47-1.05-1.05-1.05m4.55-3.85c0-.58-.47-1.05-1.05-1.05s-1.05.47-1.05,1.05v1.75h2.1v-1.75Zm-4.9,1.75h1.4v-1.75c0-.58-.47-1.05-1.05-1.05s-1.05.47-1.05,1.05m-3.15-1.05c-.58,0-1.05.47-1.05,1.05v1.75m-1.4-1.75c0-.58-.47-1.05-1.05-1.05s-1.05.47-1.05,1.05v1.75h2.1v-1.75Zm3.5,4.89c0-.58-.47-1.05-1.05-1.05s-1.05.47-1.05,1.05v1.75h2.1v-1.75Zm-3.5,0c0-.58-.47-1.05-1.05-1.05s-1.05.47-1.05,1.05v1.75h2.1v-1.75Zm4.9-3.15h-8.4m6.87-4.2h-6.87m8.4,9.09h-8.4v-12.59h5.6l2.8,7.69v4.89Z"/></g><rect class="cls-7" x="340.01" y="412.12" width="1.96" height="1.8"/><rect class="cls-7" x="338.56" y="414.88" width="3.39" height="1.76"/><polygon class="cls-14" points="336.34 418.53 330.99 417.37 332.41 410.8 337.76 411.96 336.34 418.53"/><polygon class="cls-7" points="336.34 418.53 330.99 417.37 332.41 410.8 337.76 411.96 336.34 418.53"/><path class="cls-7" d="m335.65,416.31l-3.11-.67m3.42-.74l-3.11-.67m3.42-.75l-3.11-.67"/><rect class="cls-14" x="345.5" y="406.11" width="9.34" height="12.95"/><rect class="cls-7" x="345.5" y="406.11" width="9.34" height="12.95"/><rect class="cls-7" x="332.76" y="406.46" width="3.64" height="2.3"/><path class="cls-7" d="m353.56,416.69h-6.83m6.83-1.64h-6.83m6.83-1.62h-6.83"/><rect class="cls-7" x="346.68" y="406.99" width="6.98" height="4.27"/><polygon class="cls-14" points="472.65 684.96 470.45 684.96 470.26 682 472.83 682 472.65 684.96"/><polygon class="cls-7" points="472.65 684.96 470.45 684.96 470.26 682 472.83 682 472.65 684.96"/><rect class="cls-14" x="470.07" y="681.23" width="2.96" height=".63"/><rect class="cls-7" x="470.07" y="681.23" width="2.95" height=".63"/><polygon class="cls-14" points="470.45 680.64 470.26 681.08 472.83 681.08 472.65 680.64 470.45 680.64"/><polygon class="cls-7" points="472.83 681.08 470.26 681.08 470.45 680.64 472.65 680.64 472.83 681.08"/><g class="cls-38"><path class="cls-14" d="m471.88,684.1l-3.81-1.42s-1.36-2.64-2.38-4.35c-.64-1.07-2.26-1.97-4.2-.68-2.2,1.45-3.35,7.34-3.35,7.34-.2.65-.22,1.2-.13,1.93l1.14,5.38s-2.54,3.71-3.31,4.82c-.59.86-.56,1.97.21,2.52.31.22.64.33.96.33.54,0,1.08-.29,1.55-.81.98-1.09,3.31-3.6,4.26-4.86.47-.63.54-1.21.53-1.88-.02-1.01.05-4.9.05-4.9l1.1-3.72.7,1.16c.26.39.66.67,1.12.8l4.88,1.09c1,.23,1.67-.22,1.82-.96.19-.95-.24-1.53-1.1-1.78"/><path class="cls-7" d="m471.88,684.1l-3.81-1.42s-1.36-2.64-2.38-4.35c-.64-1.07-2.26-1.97-4.2-.68-2.2,1.45-3.35,7.34-3.35,7.34-.2.65-.22,1.2-.13,1.93l1.14,5.38s-2.54,3.71-3.31,4.82c-.59.86-.56,1.97.21,2.52.31.22.64.33.96.33.54,0,1.08-.29,1.55-.81.98-1.09,3.31-3.6,4.26-4.86.47-.63.54-1.21.53-1.88-.02-1.01.05-4.9.05-4.9l1.1-3.72.7,1.16c.26.39.66.67,1.12.8l4.88,1.09c1,.23,1.67-.22,1.82-.96.19-.95-.24-1.53-1.1-1.78Z"/><path class="cls-7" d="m463.56,687.41l3.82,4.77c.27.28.46.79.51,1.14,0,0,.24,3.4.32,4.64.08,1.28-.4,1.73-1.25,1.83-.9.11-1.55-.43-1.69-1.44l-.43-4.24-1.39-1.64"/><path class="cls-14" d="m406.81,670.44c0,2.07-1.68,3.74-3.74,3.74s-3.74-1.68-3.74-3.74,1.67-3.74,3.74-3.74,3.74,1.68,3.74,3.74"/><path class="cls-7" d="m406.81,670.44c0,2.07-1.68,3.74-3.74,3.74s-3.74-1.68-3.74-3.74,1.67-3.74,3.74-3.74,3.74,1.68,3.74,3.74Z"/><path class="cls-14" d="m407.31,696.87v-8.21c1.42,0,2.14-.85,2.14-1.91l.02-3.93c0-3.32-2.74-7.52-5.35-7.77h-1.85c-2.61.24-5.6,4.45-5.6,7.77v3.93c.01,1.06.75,1.91,2.14,1.91v8.21c0,1.18.95,2.14,2.12,2.14s2.12-.96,2.12-2.14c0,1.18.95,2.14,2.12,2.14s2.14-.64,2.14-2.15"/><path class="cls-9" d="m407.31,696.87v-8.21c1.42,0,2.14-.85,2.14-1.91l.02-3.93c0-3.32-2.74-7.52-5.35-7.77h-1.85c-2.61.24-5.6,4.45-5.6,7.77v3.93c.01,1.06.75,1.91,2.14,1.91v8.21c0,1.18.95,2.14,2.12,2.14s2.12-.96,2.12-2.14c0,1.18.95,2.14,2.12,2.14s2.14-.64,2.14-2.15Z"/></g><rect class="cls-14" x="371.16" y="680.41" width="61.21" height="20.66"/><rect class="cls-7" x="371.16" y="680.41" width="61.21" height="20.66"/><g class="cls-36"><path class="cls-14" d="m441.87,525.63s-2.15-6.03-2.14-6.89c0-2.15,1.99-4.06,4.24-4.26.29-.03.58-.04.9-.04s.61.01.9.04c2.26.21,4.24,2.11,4.24,4.26,0,.86-2.14,6.89-2.14,6.89l-.67,2.07h-4.79l-.54-2.07Z"/><path class="cls-9" d="m441.87,525.63s-2.15-6.03-2.14-6.89c0-2.15,1.99-4.06,4.24-4.26.29-.03.58-.04.9-.04s.61.01.9.04c2.26.21,4.24,2.11,4.24,4.26,0,.86-2.14,6.89-2.14,6.89l-.67,2.07h-4.79l-.54-2.07Z"/><path class="cls-14" d="m490.89,525.63s-2.15-6.03-2.14-6.89c0-2.15,1.99-4.06,4.24-4.26.29-.03.58-.04.9-.04s.61.01.9.04c2.26.21,4.24,2.11,4.24,4.26,0,.86-2.14,6.89-2.14,6.89l-.67,2.07h-4.79l-.54-2.07Z"/><path class="cls-9" d="m490.89,525.63s-2.15-6.03-2.14-6.89c0-2.15,1.99-4.06,4.24-4.26.29-.03.58-.04.9-.04s.61.01.9.04c2.26.21,4.24,2.11,4.24,4.26,0,.86-2.14,6.89-2.14,6.89l-.67,2.07h-4.79l-.54-2.07Z"/><path class="cls-3" d="m380.18,334.8c-6.63,0-12,5.37-12,12v13.51h92.6v-13.51c0-6.63-5.37-12-12-12h-68.6Z"/></g><line class="cls-8" x1="415.3" y1="340.32" x2="415.3" y2="354.5"/><line class="cls-8" x1="421.68" y1="347.41" x2="407.51" y2="347.41"/></svg>