<svg width="16" height="13" xmlns="http://www.w3.org/2000/svg"><path d="M5.026 13c6.038 0 9.341-5.003 9.341-9.334 0-.14 0-.282-.006-.422A6.685 6.685 0 0 0 16 1.542c-.6.265-1.237.44-1.889.518A3.301 3.301 0 0 0 15.558.243a6.533 6.533 0 0 1-2.087.793A3.286 3.286 0 0 0 7.875 4.03 9.325 9.325 0 0 1 1.108.601a3.289 3.289 0 0 0 1.018 4.382A3.323 3.323 0 0 1 .64 4.575v.045a3.288 3.288 0 0 0 2.632 3.218 3.203 3.203 0 0 1-.865.115 3.23 3.23 0 0 1-.614-.057 3.283 3.283 0 0 0 3.067 2.277A6.588 6.588 0 0 1 .78 11.58a6.32 6.32 0 0 1-.78-.045A9.344 9.344 0 0 0 5.026 13z" fill="#FFF" fill-rule="nonzero"/></svg>