<svg width="16" height="12" xmlns="http://www.w3.org/2000/svg"><path d="M8.051-.001h.089c.822.003 4.987.033 6.11.335a2.01 2.01 0 0 1 1.415 1.42c.101.38.172.883.22 1.402l.01.104.022.26.008.104c.065.914.073 1.77.074 1.957v.075c-.001.194-.01 1.108-.082 2.06l-.008.105-.009.104c-.05.572-.124 1.14-.235 1.558a2.007 2.007 0 0 1-1.415 1.42c-1.16.312-5.569.334-6.18.335h-.142c-.309 0-1.587-.006-2.927-.052l-.17-.006-.087-.004-.171-.007-.171-.007c-1.11-.049-2.167-.128-2.654-.26A2.007 2.007 0 0 1 .333 9.483C.222 9.066.148 8.497.098 7.925L.09 7.82l-.008-.104A31.4 31.4 0 0 1 0 5.68v-.123c.002-.215.01-.958.064-1.778l.007-.103.003-.052.008-.104.022-.26.01-.104c.048-.519.119-1.023.22-1.402A2.007 2.007 0 0 1 1.749.334c.487-.13 1.544-.21 2.654-.26l.17-.007.172-.006.086-.003.171-.007C5.954.021 6.906.003 7.858 0h.193v-.001zM6.4 3.209v4.818l4.157-2.408L6.4 3.209z" fill="#FFF" fill-rule="nonzero"/></svg>